<svg width="461" height="412" viewBox="0 0 461 412" fill="none" xmlns="http://www.w3.org/2000/svg">
<g filter="url(#filter0_i)">
<path fill-rule="evenodd" clip-rule="evenodd" d="M342 117.5C342 118.108 341.994 118.714 341.981 119.319C386.251 123.112 421 160.248 421 205.5C421 249.718 387.821 286.188 345 291.369V292H334.5H176.5H165V291.242C122.664 285.618 90 249.374 90 205.5C90 160.248 124.749 123.112 169.019 119.319C169.006 118.714 169 118.108 169 117.5C169 69.7274 207.727 31 255.5 31C303.273 31 342 69.7274 342 117.5Z" fill="white"/>
</g>
<g filter="url(#filter1_f)">
<path fill-rule="evenodd" clip-rule="evenodd" d="M323.6 152.2C323.6 152.686 323.595 153.171 323.585 153.655C359.001 156.689 386.8 186.398 386.8 222.6C386.8 257.975 360.257 287.15 326 291.295V291.8L317.6 291.8H191.2L182 291.8V291.194C148.131 286.695 122 257.699 122 222.6C122 186.398 149.799 156.689 185.215 153.655C185.205 153.171 185.2 152.686 185.2 152.2C185.2 113.982 216.182 83 254.4 83C292.618 83 323.6 113.982 323.6 152.2Z" fill="#ADB1CC"/>
</g>
<g filter="url(#filter2_f)">
<path fill-rule="evenodd" clip-rule="evenodd" d="M328.622 121.857C328.985 118.761 329.173 115.604 329.173 112.398C329.173 72.4137 300.033 40 264.086 40C228.14 40 199 72.4137 199 112.398C199 152.382 228.14 184.796 264.086 184.796C273.832 184.796 283.078 182.413 291.378 178.143C291.015 181.239 290.827 184.396 290.827 187.602C290.827 227.586 319.967 260 355.914 260C391.86 260 421 227.586 421 187.602C421 147.618 391.86 115.204 355.914 115.204C346.168 115.204 336.922 117.587 328.622 121.857Z" fill="white"/>
</g>
<circle cx="108" cy="254" r="49" fill="white" fill-opacity="0.4"/>
<circle cx="34" cy="321" r="12" fill="white" fill-opacity="0.8"/>
<circle cx="17" cy="338" r="17" fill="white" fill-opacity="0.4"/>
<g filter="url(#filter3_d)">
<path d="M264 252.5L307.57 132L74 388L230.5 252.5L167.273 376L421 119L264 252.5Z" fill="url(#paint0_linear)"/>
</g>
<defs>
<filter id="filter0_i" x="90" y="11" width="331" height="281" filterUnits="userSpaceOnUse" color-interpolation-filters="sRGB">
<feFlood flood-opacity="0" result="BackgroundImageFix"/>
<feBlend mode="normal" in="SourceGraphic" in2="BackgroundImageFix" result="shape"/>
<feColorMatrix in="SourceAlpha" type="matrix" values="0 0 0 0 0 0 0 0 0 0 0 0 0 0 0 0 0 0 127 0" result="hardAlpha"/>
<feOffset dy="-20"/>
<feGaussianBlur stdDeviation="10"/>
<feComposite in2="hardAlpha" operator="arithmetic" k2="-1" k3="1"/>
<feColorMatrix type="matrix" values="0 0 0 0 0.701961 0 0 0 0 0.878431 0 0 0 0 0.984314 0 0 0 1 0"/>
<feBlend mode="normal" in2="shape" result="effect1_innerShadow"/>
</filter>
<filter id="filter1_f" x="72" y="33" width="364.8" height="308.8" filterUnits="userSpaceOnUse" color-interpolation-filters="sRGB">
<feFlood flood-opacity="0" result="BackgroundImageFix"/>
<feBlend mode="normal" in="SourceGraphic" in2="BackgroundImageFix" result="shape"/>
<feGaussianBlur stdDeviation="25" result="effect1_foregroundBlur"/>
</filter>
<filter id="filter2_f" x="159" y="0" width="302" height="300" filterUnits="userSpaceOnUse" color-interpolation-filters="sRGB">
<feFlood flood-opacity="0" result="BackgroundImageFix"/>
<feBlend mode="normal" in="SourceGraphic" in2="BackgroundImageFix" result="shape"/>
<feGaussianBlur stdDeviation="20" result="effect1_foregroundBlur"/>
</filter>
<filter id="filter3_d" x="54" y="103" width="387" height="309" filterUnits="userSpaceOnUse" color-interpolation-filters="sRGB">
<feFlood flood-opacity="0" result="BackgroundImageFix"/>
<feColorMatrix in="SourceAlpha" type="matrix" values="0 0 0 0 0 0 0 0 0 0 0 0 0 0 0 0 0 0 127 0"/>
<feOffset dy="4"/>
<feGaussianBlur stdDeviation="10"/>
<feColorMatrix type="matrix" values="0 0 0 0 0.972549 0 0 0 0 0.807843 0 0 0 0 0.192157 0 0 0 1 0"/>
<feBlend mode="normal" in2="BackgroundImageFix" result="effect1_dropShadow"/>
<feBlend mode="normal" in="SourceGraphic" in2="effect1_dropShadow" result="shape"/>
</filter>
<linearGradient id="paint0_linear" x1="247.5" y1="119" x2="247.5" y2="388" gradientUnits="userSpaceOnUse">
<stop offset="0.145833" stop-color="#FBE698"/>
<stop offset="0.625" stop-color="#F8CE31"/>
</linearGradient>
</defs>
</svg>
