<svg width="407" height="194" viewBox="0 0 407 194" fill="none" xmlns="http://www.w3.org/2000/svg">
<g filter="url(#filter0_f)">
<path d="M208 74C208 62.9543 216.954 54 228 54H346C356.493 54 365 62.5066 365 73V73C365 83.4934 356.493 92 346 92H208V74Z" fill="#E1F3FE"/>
<path d="M215 150C215 138.954 223.954 130 235 130H341C351.493 130 360 138.507 360 149V149C360 159.493 351.493 168 341 168H215V150Z" fill="#E1F3FE"/>
<path d="M208 16H291C301.493 16 310 24.5066 310 35V35C310 45.4934 301.493 54 291 54H208V16Z" fill="#E1F3FE"/>
<path d="M4 111C4 100.507 12.5066 92 23 92H138C149.046 92 158 100.954 158 112V130H23C12.5066 130 4 121.493 4 111V111Z" fill="#E1F3FE"/>
<path d="M32 149C32 138.507 40.5066 130 51 130H108C119.046 130 128 138.954 128 150V168H51C40.5066 168 32 159.493 32 149V149Z" fill="#E1F3FE"/>
<circle cx="384" cy="149" r="19" fill="#E1F3FE"/>
<g filter="url(#filter1_f)">
<path d="M212 33L80 33C72.8203 33 67 27.1797 67 20V20C67 12.8203 72.8203 7 80 7L212 7V33Z" fill="#E1F3FE"/>
</g>
<g filter="url(#filter2_f)">
<path d="M238 73L106 73C98.8203 73 93 67.1797 93 60V60C93 52.8203 98.8203 47 106 47L238 47V73Z" fill="#E1F3FE"/>
</g>
<g filter="url(#filter3_f)">
<path d="M221 57L47 57C39.8203 57 34 51.1797 34 44V44C34 36.8203 39.8203 31 47 31L221 31V57Z" fill="#E1F3FE"/>
</g>
</g>
<mask id="path-10-inside-1" fill="white">
<path fill-rule="evenodd" clip-rule="evenodd" d="M276 67C276 68.2291 275.967 69.4506 275.902 70.6634C309.129 70.8483 336.001 94.7181 336.001 124.136C336.001 153.41 309.393 177.19 276.391 177.605V177.61H130.871V177.589C130.288 177.603 129.704 177.61 129.117 177.61C94.2585 177.61 66 152.492 66 121.506C66 90.5212 94.2585 65.4026 129.117 65.4026C133.887 65.4026 138.533 65.8729 143 66.7642C143.127 29.8696 172.851 0 209.5 0C246.227 0 276 29.9969 276 67Z"/>
</mask>
<path fill-rule="evenodd" clip-rule="evenodd" d="M276 67C276 68.2291 275.967 69.4506 275.902 70.6634C309.129 70.8483 336.001 94.7181 336.001 124.136C336.001 153.41 309.393 177.19 276.391 177.605V177.61H130.871V177.589C130.288 177.603 129.704 177.61 129.117 177.61C94.2585 177.61 66 152.492 66 121.506C66 90.5212 94.2585 65.4026 129.117 65.4026C133.887 65.4026 138.533 65.8729 143 66.7642C143.127 29.8696 172.851 0 209.5 0C246.227 0 276 29.9969 276 67Z" fill="white"/>
<path d="M275.902 70.6634L272.907 70.5032L272.738 73.6459L275.886 73.6634L275.902 70.6634ZM276.391 177.605L276.353 174.605L273.391 174.642V177.605H276.391ZM276.391 177.61V180.61H279.391V177.61H276.391ZM130.871 177.61H127.871V180.61H130.871V177.61ZM130.871 177.589H133.871V174.516L130.798 174.59L130.871 177.589ZM143 66.7642L142.413 69.7062L145.988 70.4194L146 66.7745L143 66.7642ZM278.898 70.8236C278.966 69.5575 279 68.2826 279 67H273C273 68.1757 272.969 69.3437 272.907 70.5032L278.898 70.8236ZM339.001 124.136C339.001 92.7328 310.44 67.8556 275.919 67.6635L275.886 73.6634C307.819 73.8411 333.001 96.7034 333.001 124.136H339.001ZM276.429 180.605C310.718 180.174 339.001 155.385 339.001 124.136H333.001C333.001 151.435 308.067 174.206 276.353 174.605L276.429 180.605ZM279.391 177.61V177.605H273.391V177.61H279.391ZM130.871 180.61H276.391V174.61H130.871V180.61ZM127.871 177.589V177.61H133.871V177.589H127.871ZM130.798 174.59C130.24 174.604 129.679 174.61 129.117 174.61V180.61C129.728 180.61 130.337 180.603 130.944 180.588L130.798 174.59ZM129.117 174.61C95.5734 174.61 69 150.513 69 121.506H63C63 154.471 92.9435 180.61 129.117 180.61V174.61ZM69 121.506C69 92.5004 95.5734 68.4026 129.117 68.4026V62.4026C92.9435 62.4026 63 88.5419 63 121.506H69ZM129.117 68.4026C133.689 68.4026 138.139 68.8534 142.413 69.7062L143.587 63.8222C138.927 62.8924 134.084 62.4026 129.117 62.4026V68.4026ZM209.5 -3C171.177 -3 140.132 28.2282 140 66.754L146 66.7745C146.121 31.511 174.526 3 209.5 3V-3ZM279 67C279 28.3613 247.905 -3 209.5 -3V3C244.549 3 273 31.6325 273 67H279Z" fill="#69C1F8" mask="url(#path-10-inside-1)"/>
<path d="M149 146V193.5" stroke="white" stroke-width="10"/>
<path d="M181 146V193.5" stroke="white" stroke-width="10"/>
<path d="M178.561 103.193C179.146 102.607 179.146 101.658 178.56 101.072L169.014 91.527C168.428 90.9413 167.478 90.9414 166.892 91.5272C166.307 92.113 166.307 93.0628 166.892 93.6485L175.379 102.133L166.894 110.619C166.308 111.205 166.308 112.155 166.894 112.74C167.48 113.326 168.43 113.326 169.016 112.74L178.561 103.193ZM177 103.633L177.5 103.633L177.5 100.633L177 100.633L177 103.633Z" fill="#69C1F8"/>
<path d="M219.939 101.072C219.354 101.658 219.354 102.608 219.94 103.194L229.486 112.739C230.072 113.324 231.022 113.324 231.608 112.738C232.193 112.153 232.193 111.203 231.608 110.617L223.121 102.133L231.606 93.6466C232.192 93.0607 232.192 92.111 231.606 91.5252C231.02 90.9395 230.07 90.9396 229.484 91.5254L219.939 101.072ZM221.5 100.633L221 100.633L221 103.633L221.5 103.633L221.5 100.633Z" fill="#69C1F8"/>
<circle cx="201" cy="124" r="9.5" stroke="#69C1F8" stroke-width="3"/>
<defs>
<filter id="filter0_f" x="0" y="3" width="407" height="169" filterUnits="userSpaceOnUse" color-interpolation-filters="sRGB">
<feFlood flood-opacity="0" result="BackgroundImageFix"/>
<feBlend mode="normal" in="SourceGraphic" in2="BackgroundImageFix" result="shape"/>
<feGaussianBlur stdDeviation="2" result="effect1_foregroundBlur"/>
</filter>
<filter id="filter1_f" x="63" y="3" width="153" height="34" filterUnits="userSpaceOnUse" color-interpolation-filters="sRGB">
<feFlood flood-opacity="0" result="BackgroundImageFix"/>
<feBlend mode="normal" in="SourceGraphic" in2="BackgroundImageFix" result="shape"/>
<feGaussianBlur stdDeviation="2" result="effect1_foregroundBlur"/>
</filter>
<filter id="filter2_f" x="89" y="43" width="153" height="34" filterUnits="userSpaceOnUse" color-interpolation-filters="sRGB">
<feFlood flood-opacity="0" result="BackgroundImageFix"/>
<feBlend mode="normal" in="SourceGraphic" in2="BackgroundImageFix" result="shape"/>
<feGaussianBlur stdDeviation="2" result="effect1_foregroundBlur"/>
</filter>
<filter id="filter3_f" x="30" y="27" width="195" height="34" filterUnits="userSpaceOnUse" color-interpolation-filters="sRGB">
<feFlood flood-opacity="0" result="BackgroundImageFix"/>
<feBlend mode="normal" in="SourceGraphic" in2="BackgroundImageFix" result="shape"/>
<feGaussianBlur stdDeviation="2" result="effect1_foregroundBlur"/>
</filter>
</defs>
</svg>
