<svg width="407" height="294" viewBox="0 0 407 294" fill="none" xmlns="http://www.w3.org/2000/svg">
<mask id="path-1-inside-1" fill="white">
<path fill-rule="evenodd" clip-rule="evenodd" d="M136.156 30.1558C136.156 31.8275 136.02 33.4673 135.758 35.065L135.805 35.0649C149.168 35.0649 160 44.6414 160 56.4545C160 68.1642 149.357 77.6762 136.156 77.842V77.8442H135.805H77.9481V77.8357C77.7151 77.8413 77.4813 77.8442 77.2468 77.8442C63.3034 77.8442 52 67.7967 52 55.4026C52 43.3874 62.6227 33.5776 75.9755 32.989C75.8886 32.0563 75.8442 31.1113 75.8442 30.1558C75.8442 13.5012 89.3454 0 106 0C122.655 0 136.156 13.5012 136.156 30.1558Z"/>
</mask>
<path fill-rule="evenodd" clip-rule="evenodd" d="M136.156 30.1558C136.156 31.8275 136.02 33.4673 135.758 35.065L135.805 35.0649C149.168 35.0649 160 44.6414 160 56.4545C160 68.1642 149.357 77.6762 136.156 77.842V77.8442H135.805H77.9481V77.8357C77.7151 77.8413 77.4813 77.8442 77.2468 77.8442C63.3034 77.8442 52 67.7967 52 55.4026C52 43.3874 62.6227 33.5776 75.9755 32.989C75.8886 32.0563 75.8442 31.1113 75.8442 30.1558C75.8442 13.5012 89.3454 0 106 0C122.655 0 136.156 13.5012 136.156 30.1558Z" fill="white"/>
<path d="M135.758 35.065L132.798 34.5803L132.227 38.0681L135.761 38.065L135.758 35.065ZM135.805 35.0649L135.805 32.0649L135.803 32.0649L135.805 35.0649ZM136.156 77.842L136.118 74.8422L133.156 74.8794V77.842H136.156ZM136.156 77.8442V80.8442H139.156V77.8442H136.156ZM77.9481 77.8442H74.9481V80.8442H77.9481V77.8442ZM77.9481 77.8357H80.9481V74.7621L77.8754 74.8366L77.9481 77.8357ZM75.9755 32.989L76.1076 35.9861L79.2548 35.8474L78.9626 32.7107L75.9755 32.989ZM138.719 35.5497C139.007 33.7924 139.156 31.9905 139.156 30.1558H133.156C133.156 31.6645 133.033 33.1422 132.798 34.5803L138.719 35.5497ZM135.803 32.0649L135.756 32.065L135.761 38.065L135.808 38.0649L135.803 32.0649ZM163 56.4545C163 42.6478 150.466 32.0649 135.805 32.0649V38.0649C147.869 38.0649 157 46.635 157 56.4545H163ZM136.194 80.8417C150.682 80.6598 163 70.139 163 56.4545H157C157 66.1894 148.031 74.6926 136.118 74.8422L136.194 80.8417ZM139.156 77.8442V77.842H133.156V77.8442H139.156ZM135.805 80.8442H136.156V74.8442H135.805V80.8442ZM77.9481 80.8442H135.805V74.8442H77.9481V80.8442ZM74.9481 77.8357V77.8442H80.9481V77.8357H74.9481ZM77.8754 74.8366C77.6666 74.8416 77.457 74.8442 77.2468 74.8442V80.8442C77.5055 80.8442 77.7636 80.841 78.0207 80.8348L77.8754 74.8366ZM77.2468 74.8442C64.6183 74.8442 55 65.8175 55 55.4026H49C49 69.776 61.9884 80.8442 77.2468 80.8442V74.8442ZM55 55.4026C55 45.3017 64.0311 36.5184 76.1076 35.9861L75.8434 29.9919C61.2144 30.6368 49 41.4731 49 55.4026H55ZM72.8442 30.1558C72.8442 31.2043 72.8929 32.2422 72.9884 33.2673L78.9626 32.7107C78.8843 31.8704 78.8442 31.0182 78.8442 30.1558H72.8442ZM106 -3C87.6885 -3 72.8442 11.8444 72.8442 30.1558H78.8442C78.8442 15.1581 91.0022 3 106 3V-3ZM139.156 30.1558C139.156 11.8444 124.311 -3 106 -3V3C120.998 3 133.156 15.1581 133.156 30.1558H139.156Z" fill="#69C1F8" mask="url(#path-1-inside-1)"/>
<path d="M96 65V84" stroke="white" stroke-width="3"/>
<g filter="url(#filter0_f)">
<path d="M150 126C150 114.954 158.954 106 170 106H318C328.493 106 337 114.507 337 125V125C337 135.493 328.493 144 318 144H150V126Z" fill="#E1F3FE"/>
<path d="M150 88C150 76.9543 158.954 68 170 68H360C370.493 68 379 76.5066 379 87V87C379 97.4934 370.493 106 360 106H150V88Z" fill="#E1F3FE"/>
<path d="M4 163C4 152.507 12.5066 144 23 144H138C149.046 144 158 152.954 158 164V182H23C12.5066 182 4 173.493 4 163V163Z" fill="#E1F3FE"/>
<path d="M68 201C68 190.507 76.5066 182 87 182H144C155.046 182 164 190.954 164 202V220H87C76.5066 220 68 211.493 68 201V201Z" fill="#E1F3FE"/>
<circle cx="379" cy="125" r="19" fill="#E1F3FE"/>
</g>
<ellipse cx="198" cy="267.5" rx="60" ry="24.5" fill="white" stroke="#69C1F8" stroke-width="3"/>
<path d="M149.5 244L167 264.5" stroke="white" stroke-width="3"/>
<path d="M166 237L183.5 257.5" stroke="white" stroke-width="7"/>
<path d="M212.349 258.906L231.152 239.594" stroke="white" stroke-width="7"/>
<path fill-rule="evenodd" clip-rule="evenodd" d="M108.001 99.5233C108 99.6821 108 99.841 108 100C108 102.899 108.137 105.766 108.405 108.594C112.278 155.076 143.745 207.908 194.715 260.63C196.55 262.527 199.569 262.646 201.542 260.892C260.361 208.626 286.177 151.88 287.906 104.141C287.969 102.769 288 101.388 288 100C288 99.8507 288 99.7015 287.999 99.5524C288 99.3681 288 99.184 288 99C288 99.1668 288 99.3334 287.999 99.5C287.73 50.0244 247.539 10 198 10C148.461 10 108.27 50.0244 108.001 99.5C108 99.3334 108 99.1668 108 99C108 99.1743 108 99.3488 108.001 99.5233ZM238 106C238 128.091 220.091 146 198 146C175.909 146 158 128.091 158 106C158 83.9086 175.909 66 198 66C220.091 66 238 83.9086 238 106Z" fill="white"/>
<path d="M108.001 99.5233L110.001 99.5337L110.001 99.5238L110.001 99.5139L108.001 99.5233ZM108.405 108.594L110.398 108.428L110.397 108.417L110.396 108.406L108.405 108.594ZM194.715 260.63L193.277 262.02L193.277 262.02L194.715 260.63ZM201.542 260.892L202.871 262.387L202.871 262.387L201.542 260.892ZM287.906 104.141L285.908 104.051L285.908 104.06L285.908 104.069L287.906 104.141ZM287.999 99.5524L285.999 99.5444L285.999 99.5533L285.999 99.5622L287.999 99.5524ZM287.999 99.5L285.999 99.5109L289.999 99.5108L287.999 99.5ZM108.001 99.5L106.001 99.5109L110.001 99.5109L108.001 99.5ZM106.001 99.5129C106 99.6752 106 99.8375 106 100H110C110 99.8445 110 99.689 110.001 99.5337L106.001 99.5129ZM106 100C106 102.962 106.14 105.892 106.414 108.783L110.396 108.406C110.134 105.64 110 102.836 110 100H106ZM196.153 259.24C145.29 206.628 114.214 154.217 110.398 108.428L106.412 108.761C110.343 155.936 142.2 209.188 193.277 262.02L196.153 259.24ZM200.214 259.397C199.044 260.437 197.244 260.369 196.153 259.24L193.277 262.02C195.855 264.686 200.095 264.854 202.871 262.387L200.214 259.397ZM285.908 104.069C284.202 151.142 258.723 207.406 200.214 259.397L202.871 262.387C261.999 209.846 288.151 152.618 289.905 104.214L285.908 104.069ZM289.904 104.232C289.968 102.829 290 101.418 290 100H286C286 101.358 285.969 102.708 285.908 104.051L289.904 104.232ZM290 100C290 99.8476 290 99.6951 289.999 99.5426L285.999 99.5622C286 99.7079 286 99.8538 286 100H290ZM286 99C286 99.1814 286 99.3629 285.999 99.5444L289.999 99.5603C290 99.3733 290 99.1865 290 99H286ZM289.999 99.5108C290 99.3407 290 99.1704 290 99H286C286 99.1631 286 99.3262 285.999 99.4892L289.999 99.5108ZM289.999 99.4891C289.723 48.9138 248.64 8 198 8V12C246.438 12 285.736 51.135 285.999 99.5109L289.999 99.4891ZM198 8C147.36 8 106.277 48.9138 106.001 99.4891L110.001 99.5109C110.264 51.135 149.562 12 198 12V8ZM106 99C106 99.1704 106 99.3407 106.001 99.5109L110.001 99.4891C110 99.3262 110 99.1631 110 99H106ZM110.001 99.5139C110 99.3425 110 99.1712 110 99H106C106 99.1775 106 99.3551 106.001 99.5327L110.001 99.5139ZM198 148C221.196 148 240 129.196 240 106H236C236 126.987 218.987 144 198 144V148ZM156 106C156 129.196 174.804 148 198 148V144C177.013 144 160 126.987 160 106H156ZM198 64C174.804 64 156 82.804 156 106H160C160 85.0132 177.013 68 198 68V64ZM240 106C240 82.804 221.196 64 198 64V68C218.987 68 236 85.0132 236 106H240Z" fill="#69C1F8"/>
<path fill-rule="evenodd" clip-rule="evenodd" d="M310.156 167.156C310.156 168.827 310.02 170.467 309.758 172.065L309.805 172.065C323.168 172.065 334 181.641 334 193.455C334 205.164 323.357 214.676 310.156 214.842V214.844H309.805H251.948V214.836C251.715 214.841 251.481 214.844 251.247 214.844C237.303 214.844 226 204.797 226 192.403C226 180.387 236.623 170.578 249.975 169.989C249.889 169.056 249.844 168.111 249.844 167.156C249.844 150.501 263.345 137 280 137C296.655 137 310.156 150.501 310.156 167.156Z" fill="white"/>
<path d="M309.758 172.065L308.278 171.823L307.992 173.567L309.76 173.565L309.758 172.065ZM309.805 172.065L309.805 170.565L309.804 170.565L309.805 172.065ZM310.156 214.842L310.137 213.342L308.656 213.361V214.842H310.156ZM310.156 214.844V216.344H311.656V214.844H310.156ZM251.948 214.844H250.448V216.344H251.948V214.844ZM251.948 214.836H253.448V213.299L251.912 213.336L251.948 214.836ZM249.975 169.989L250.042 171.488L251.615 171.418L251.469 169.85L249.975 169.989ZM311.239 172.307C311.513 170.63 311.656 168.909 311.656 167.156H308.656C308.656 168.746 308.526 170.305 308.278 171.823L311.239 172.307ZM309.804 170.565L309.757 170.565L309.76 173.565L309.807 173.565L309.804 170.565ZM335.5 193.455C335.5 180.645 323.817 170.565 309.805 170.565V173.565C322.518 173.565 332.5 182.638 332.5 193.455H335.5ZM310.175 216.342C324.02 216.168 335.5 206.152 335.5 193.455H332.5C332.5 204.177 322.694 213.184 310.137 213.342L310.175 216.342ZM311.656 214.844V214.842H308.656V214.844H311.656ZM309.805 216.344H310.156V213.344H309.805V216.344ZM251.948 216.344H309.805V213.344H251.948V216.344ZM250.448 214.836V214.844H253.448V214.836H250.448ZM251.912 213.336C251.691 213.341 251.469 213.344 251.247 213.344V216.344C251.493 216.344 251.739 216.341 251.984 216.335L251.912 213.336ZM251.247 213.344C237.961 213.344 227.5 203.807 227.5 192.403H224.5C224.5 205.786 236.646 216.344 251.247 216.344V213.344ZM227.5 192.403C227.5 181.345 237.327 172.048 250.042 171.488L249.909 168.49C235.919 169.107 224.5 179.43 224.5 192.403H227.5ZM248.344 167.156C248.344 168.158 248.391 169.149 248.482 170.128L251.469 169.85C251.386 168.963 251.344 168.065 251.344 167.156H248.344ZM280 135.5C262.517 135.5 248.344 149.673 248.344 167.156H251.344C251.344 151.33 264.174 138.5 280 138.5V135.5ZM311.656 167.156C311.656 149.673 297.483 135.5 280 135.5V138.5C295.826 138.5 308.656 151.33 308.656 167.156H311.656Z" fill="#69C1F8"/>
<path d="M264.5 208.5V227.5" stroke="white" stroke-width="3"/>
<defs>
<filter id="filter0_f" x="0" y="64" width="402" height="160" filterUnits="userSpaceOnUse" color-interpolation-filters="sRGB">
<feFlood flood-opacity="0" result="BackgroundImageFix"/>
<feBlend mode="normal" in="SourceGraphic" in2="BackgroundImageFix" result="shape"/>
<feGaussianBlur stdDeviation="2" result="effect1_foregroundBlur"/>
</filter>
</defs>
</svg>
