<svg width="290" height="290" viewBox="0 0 290 290" fill="none" xmlns="http://www.w3.org/2000/svg">
<g filter="url(#filter0_f)">
<path d="M240 145C240 197.467 197.467 240 145 240C92.5329 240 50 197.467 50 145C50 92.5329 92.5329 50 145 50C197.467 50 240 92.5329 240 145Z" fill="#ADB8C2"/>
</g>
<path d="M238 144C238 195.362 196.362 237 145 237C93.6375 237 52 195.362 52 144C52 92.6375 93.6375 51 145 51C196.362 51 238 92.6375 238 144Z" fill="url(#paint0_linear)"/>
<g filter="url(#filter1_i)">
<path fill-rule="evenodd" clip-rule="evenodd" d="M189.224 163.53C189.394 160.305 192.92 158.393 195.134 155.841C197.284 153.364 198.491 149.899 201.794 149.044C205.357 148.122 209.334 149.215 212.018 151.47C214.539 153.589 214.943 156.974 215.003 160.145C215.056 162.936 214.034 165.528 212.329 167.876C210.454 170.457 208.286 173.002 205.051 173.848C201.392 174.805 197.305 174.592 194.254 172.603C191.126 170.564 189.037 167.09 189.224 163.53Z" fill="url(#paint1_linear)"/>
</g>
<g filter="url(#filter2_f)">
<path d="M187.147 173.726C188.275 175.64 189.642 177.728 191.628 178.835C192.329 179.225 192.86 179.704 193.647 179.939C194.262 180.122 194.878 180.306 195.493 180.489C197.049 180.953 198.594 181.34 200.196 180.986C200.758 180.862 201.285 180.594 201.793 180.32C202.459 179.96 203.091 179.934 203.794 179.674" stroke="#5B7186" stroke-linecap="round" stroke-linejoin="round"/>
</g>
<g filter="url(#filter3_f)">
<path d="M203.5 145C205 144.5 205.5 144.333 207.5 145C209 145.5 210.698 146.492 211.708 147.333C212.924 148.346 214.841 148.493 215.994 149.667C218.57 152.289 219 155.462 219 159" stroke="#5B7186" stroke-linecap="round" stroke-linejoin="round"/>
</g>
<g filter="url(#filter4_i)">
<path fill-rule="evenodd" clip-rule="evenodd" d="M134.679 202.413C136.66 199.861 140.646 200.306 143.921 199.476C147.101 198.669 150.07 196.515 153.27 197.699C156.721 198.976 159.362 202.145 160.277 205.529C161.137 208.708 159.536 211.718 157.774 214.356C156.224 216.677 153.904 218.221 151.163 219.174C148.15 220.223 144.918 221.074 141.779 219.921C138.229 218.617 134.995 216.107 133.626 212.733C132.223 209.272 132.492 205.228 134.679 202.413Z" fill="url(#paint2_linear)"/>
</g>
<g filter="url(#filter5_f)">
<path d="M127.151 209.596C126.984 211.811 126.913 214.306 127.911 216.348C128.264 217.07 128.426 217.766 128.938 218.408C129.339 218.91 129.739 219.412 130.139 219.914C131.152 221.183 132.199 222.383 133.716 223.008C134.249 223.227 134.834 223.308 135.407 223.372C136.16 223.457 136.694 223.797 137.42 223.985" stroke="#5B7186" stroke-linecap="round" stroke-linejoin="round"/>
</g>
<g filter="url(#filter6_f)">
<path d="M156.979 195.353C158.496 195.8 159.002 195.948 160.263 197.638C161.209 198.905 162.036 200.688 162.385 201.957C162.805 203.483 164.295 204.697 164.571 206.319C165.187 209.943 163.728 212.794 161.708 215.698" stroke="#5B7186" stroke-linecap="round" stroke-linejoin="round"/>
</g>
<g filter="url(#filter7_i)">
<path fill-rule="evenodd" clip-rule="evenodd" d="M85.1577 111.011C86.7856 104.9 94.3137 102.663 99.586 98.6696C104.705 94.7925 108.418 88.6432 115.091 88.34C122.288 88.0129 129.466 91.7145 133.695 97.1196C137.668 102.197 137.075 108.844 135.908 114.944C134.882 120.311 131.876 124.863 127.661 128.672C123.026 132.859 117.846 136.858 111.306 137.171C103.911 137.526 96.1665 135.465 91.1267 130.423C85.9584 125.252 83.3611 117.755 85.1577 111.011Z" fill="url(#paint3_linear)"/>
</g>
<g filter="url(#filter8_f)">
<path d="M87.2012 141.216C90.2485 144.318 93.8327 147.639 98.129 148.802C99.6464 149.213 100.881 149.872 102.487 149.945C103.743 150.002 104.999 150.06 106.254 150.117C109.43 150.262 112.548 150.267 115.425 148.837C116.434 148.335 117.308 147.578 118.143 146.816C119.237 145.817 120.426 145.468 121.64 144.642" stroke="#5B7186" stroke-linecap="round" stroke-linejoin="round"/>
</g>
<g filter="url(#filter9_f)">
<path d="M116 82C118.799 82 125.583 79.9807 128 82C129.712 83.4297 131.951 85.2603 133.5 87C135.365 89.0937 138.623 91.2852 140.391 93.7111C144.341 99.1314 142.5 108.689 142.5 116" stroke="#5B7186" stroke-linecap="round" stroke-linejoin="round"/>
</g>
<defs>
<filter id="filter0_f" x="0" y="0" width="290" height="290" filterUnits="userSpaceOnUse" color-interpolation-filters="sRGB">
<feFlood flood-opacity="0" result="BackgroundImageFix"/>
<feBlend mode="normal" in="SourceGraphic" in2="BackgroundImageFix" result="shape"/>
<feGaussianBlur stdDeviation="25" result="effect1_foregroundBlur"/>
</filter>
<filter id="filter1_i" x="187.416" y="147.428" width="31.3842" height="30.44" filterUnits="userSpaceOnUse" color-interpolation-filters="sRGB">
<feFlood flood-opacity="0" result="BackgroundImageFix"/>
<feBlend mode="normal" in="SourceGraphic" in2="BackgroundImageFix" result="shape"/>
<feColorMatrix in="SourceAlpha" type="matrix" values="0 0 0 0 0 0 0 0 0 0 0 0 0 0 0 0 0 0 127 0" result="hardAlpha"/>
<feOffset dx="3" dy="4"/>
<feGaussianBlur stdDeviation="1"/>
<feComposite in2="hardAlpha" operator="arithmetic" k2="-1" k3="1"/>
<feColorMatrix type="matrix" values="0 0 0 0 0.678431 0 0 0 0 0.721569 0 0 0 0 0.760784 0 0 0 1 0"/>
<feBlend mode="normal" in2="shape" result="effect1_innerShadow"/>
</filter>
<filter id="filter2_f" x="177.355" y="165.104" width="35.3313" height="26.2126" filterUnits="userSpaceOnUse" color-interpolation-filters="sRGB">
<feFlood flood-opacity="0" result="BackgroundImageFix"/>
<feBlend mode="normal" in="SourceGraphic" in2="BackgroundImageFix" result="shape"/>
<feGaussianBlur stdDeviation="4" result="effect1_foregroundBlur"/>
</filter>
<filter id="filter3_f" x="195" y="136.06" width="32.5001" height="31.4397" filterUnits="userSpaceOnUse" color-interpolation-filters="sRGB">
<feFlood flood-opacity="0" result="BackgroundImageFix"/>
<feBlend mode="normal" in="SourceGraphic" in2="BackgroundImageFix" result="shape"/>
<feGaussianBlur stdDeviation="4" result="effect1_foregroundBlur"/>
</filter>
<filter id="filter4_i" x="128.845" y="190.975" width="36.9703" height="36.5001" filterUnits="userSpaceOnUse" color-interpolation-filters="sRGB">
<feFlood flood-opacity="0" result="BackgroundImageFix"/>
<feBlend mode="normal" in="SourceGraphic" in2="BackgroundImageFix" result="shape"/>
<feColorMatrix in="SourceAlpha" type="matrix" values="0 0 0 0 0 0 0 0 0 0 0 0 0 0 0 0 0 0 127 0" result="hardAlpha"/>
<feOffset dx="3" dy="4"/>
<feGaussianBlur stdDeviation="1"/>
<feComposite in2="hardAlpha" operator="arithmetic" k2="-1" k3="1"/>
<feColorMatrix type="matrix" values="0 0 0 0 0.678431 0 0 0 0 0.721569 0 0 0 0 0.760784 0 0 0 1 0"/>
<feBlend mode="normal" in2="shape" result="effect1_innerShadow"/>
</filter>
<filter id="filter5_f" x="115.245" y="200.893" width="31.6167" height="33.7603" filterUnits="userSpaceOnUse" color-interpolation-filters="sRGB">
<feFlood flood-opacity="0" result="BackgroundImageFix"/>
<feBlend mode="normal" in="SourceGraphic" in2="BackgroundImageFix" result="shape"/>
<feGaussianBlur stdDeviation="4" result="effect1_foregroundBlur"/>
</filter>
<filter id="filter6_f" x="140.288" y="186.297" width="38.3622" height="38.0973" filterUnits="userSpaceOnUse" color-interpolation-filters="sRGB">
<feFlood flood-opacity="0" result="BackgroundImageFix"/>
<feBlend mode="normal" in="SourceGraphic" in2="BackgroundImageFix" result="shape"/>
<feGaussianBlur stdDeviation="4" result="effect1_foregroundBlur"/>
</filter>
<filter id="filter7_i" x="83" y="86.0001" width="58.1979" height="56.224" filterUnits="userSpaceOnUse" color-interpolation-filters="sRGB">
<feFlood flood-opacity="0" result="BackgroundImageFix"/>
<feBlend mode="normal" in="SourceGraphic" in2="BackgroundImageFix" result="shape"/>
<feColorMatrix in="SourceAlpha" type="matrix" values="0 0 0 0 0 0 0 0 0 0 0 0 0 0 0 0 0 0 127 0" result="hardAlpha"/>
<feOffset dx="4" dy="6"/>
<feGaussianBlur stdDeviation="1.5"/>
<feComposite in2="hardAlpha" operator="arithmetic" k2="-1" k3="1"/>
<feColorMatrix type="matrix" values="0 0 0 0 0.678431 0 0 0 0 0.721569 0 0 0 0 0.760784 0 0 0 1 0"/>
<feBlend mode="normal" in2="shape" result="effect1_innerShadow"/>
</filter>
<filter id="filter8_f" x="78.313" y="132.694" width="51.9335" height="26.6353" filterUnits="userSpaceOnUse" color-interpolation-filters="sRGB">
<feFlood flood-opacity="0" result="BackgroundImageFix"/>
<feBlend mode="normal" in="SourceGraphic" in2="BackgroundImageFix" result="shape"/>
<feGaussianBlur stdDeviation="4" result="effect1_foregroundBlur"/>
</filter>
<filter id="filter9_f" x="107.5" y="72.6025" width="43.9283" height="51.8974" filterUnits="userSpaceOnUse" color-interpolation-filters="sRGB">
<feFlood flood-opacity="0" result="BackgroundImageFix"/>
<feBlend mode="normal" in="SourceGraphic" in2="BackgroundImageFix" result="shape"/>
<feGaussianBlur stdDeviation="4" result="effect1_foregroundBlur"/>
</filter>
<linearGradient id="paint0_linear" x1="179.5" y1="120" x2="81" y2="213" gradientUnits="userSpaceOnUse">
<stop stop-color="white"/>
<stop offset="1" stop-color="white" stop-opacity="0.3"/>
</linearGradient>
<linearGradient id="paint1_linear" x1="195.085" y1="152.109" x2="213.661" y2="160.98" gradientUnits="userSpaceOnUse">
<stop offset="0.0677083" stop-color="#DEE3E7" stop-opacity="0.5"/>
<stop offset="0.683775" stop-color="#DEE3E7"/>
</linearGradient>
<linearGradient id="paint2_linear" x1="146.012" y1="196.384" x2="156.195" y2="214.274" gradientUnits="userSpaceOnUse">
<stop offset="0.0677083" stop-color="#DEE3E7" stop-opacity="0.5"/>
<stop offset="0.683775" stop-color="#DEE3E7"/>
</linearGradient>
<linearGradient id="paint3_linear" x1="101" y1="91.5001" x2="133" y2="116" gradientUnits="userSpaceOnUse">
<stop offset="0.0677083" stop-color="#DEE3E7" stop-opacity="0.5"/>
<stop offset="0.683775" stop-color="#DEE3E7"/>
</linearGradient>
</defs>
</svg>
