<svg width="485" height="414" viewBox="0 0 485 414" fill="none" xmlns="http://www.w3.org/2000/svg">
<g filter="url(#filter0_f)">
<path d="M435 145C435 197.467 392.467 240 340 240C287.533 240 245 197.467 245 145C245 92.5329 287.533 50 340 50C392.467 50 435 92.5329 435 145Z" fill="#ADB8C2"/>
</g>
<path d="M433 144C433 195.362 391.362 237 340 237C288.638 237 247 195.362 247 144C247 92.6375 288.638 51 340 51C391.362 51 433 92.6375 433 144Z" fill="url(#paint0_linear)"/>
<g filter="url(#filter1_i)">
<path fill-rule="evenodd" clip-rule="evenodd" d="M384.224 163.53C384.394 160.305 387.92 158.393 390.134 155.841C392.284 153.364 393.491 149.899 396.794 149.044C400.357 148.122 404.334 149.215 407.018 151.47C409.539 153.589 409.943 156.974 410.003 160.145C410.056 162.936 409.034 165.528 407.329 167.876C405.454 170.457 403.286 173.002 400.051 173.848C396.392 174.805 392.305 174.592 389.254 172.603C386.126 170.564 384.037 167.09 384.224 163.53Z" fill="url(#paint1_linear)"/>
</g>
<g filter="url(#filter2_f)">
<path d="M382.147 173.726C383.275 175.64 384.642 177.728 386.628 178.835C387.329 179.225 387.86 179.704 388.647 179.939C389.262 180.122 389.878 180.306 390.493 180.489C392.049 180.953 393.594 181.34 395.196 180.986C395.758 180.862 396.285 180.594 396.793 180.32C397.459 179.96 398.091 179.934 398.794 179.674" stroke="#5B7186" stroke-linecap="round" stroke-linejoin="round"/>
</g>
<g filter="url(#filter3_f)">
<path d="M398.5 145C400 144.5 400.5 144.333 402.5 145C404 145.5 405.698 146.492 406.708 147.333C407.924 148.346 409.841 148.493 410.994 149.667C413.57 152.289 414 155.462 414 159" stroke="#5B7186" stroke-linecap="round" stroke-linejoin="round"/>
</g>
<g filter="url(#filter4_i)">
<path fill-rule="evenodd" clip-rule="evenodd" d="M329.679 202.413C331.66 199.861 335.646 200.306 338.921 199.476C342.101 198.669 345.07 196.515 348.27 197.699C351.721 198.976 354.362 202.145 355.277 205.529C356.137 208.708 354.536 211.718 352.774 214.356C351.224 216.677 348.904 218.221 346.163 219.174C343.15 220.223 339.918 221.074 336.779 219.921C333.229 218.617 329.995 216.107 328.626 212.733C327.223 209.272 327.492 205.228 329.679 202.413Z" fill="url(#paint2_linear)"/>
</g>
<g filter="url(#filter5_f)">
<path d="M322.151 209.596C321.984 211.811 321.913 214.306 322.911 216.348C323.264 217.07 323.426 217.766 323.938 218.408C324.339 218.91 324.739 219.412 325.139 219.914C326.152 221.183 327.199 222.383 328.716 223.008C329.249 223.227 329.834 223.308 330.407 223.372C331.16 223.457 331.694 223.797 332.42 223.985" stroke="#5B7186" stroke-linecap="round" stroke-linejoin="round"/>
</g>
<g filter="url(#filter6_f)">
<path d="M351.979 195.353C353.496 195.8 354.002 195.948 355.263 197.638C356.209 198.905 357.036 200.688 357.385 201.957C357.805 203.483 359.295 204.697 359.571 206.319C360.187 209.943 358.728 212.794 356.708 215.698" stroke="#5B7186" stroke-linecap="round" stroke-linejoin="round"/>
</g>
<g filter="url(#filter7_i)">
<path fill-rule="evenodd" clip-rule="evenodd" d="M280.158 111.011C281.786 104.9 289.314 102.663 294.586 98.6696C299.705 94.7925 303.418 88.6432 310.091 88.34C317.288 88.0129 324.466 91.7145 328.695 97.1196C332.668 102.197 332.075 108.844 330.908 114.944C329.882 120.311 326.876 124.863 322.661 128.672C318.026 132.859 312.846 136.858 306.306 137.171C298.911 137.526 291.166 135.465 286.127 130.423C280.958 125.252 278.361 117.755 280.158 111.011Z" fill="url(#paint3_linear)"/>
</g>
<g filter="url(#filter8_f)">
<path d="M282.201 141.216C285.249 144.318 288.833 147.639 293.129 148.802C294.646 149.213 295.881 149.872 297.487 149.945C298.743 150.002 299.999 150.06 301.254 150.117C304.43 150.262 307.548 150.267 310.425 148.837C311.434 148.335 312.308 147.578 313.143 146.816C314.237 145.817 315.426 145.468 316.64 144.642" stroke="#5B7186" stroke-linecap="round" stroke-linejoin="round"/>
</g>
<g filter="url(#filter9_f)">
<path d="M311 82C313.799 82 320.583 79.9807 323 82C324.712 83.4297 326.951 85.2603 328.5 87C330.365 89.0937 333.623 91.2852 335.391 93.7111C339.341 99.1314 337.5 108.689 337.5 116" stroke="#5B7186" stroke-linecap="round" stroke-linejoin="round"/>
</g>
<g filter="url(#filter10_i)">
<path fill-rule="evenodd" clip-rule="evenodd" d="M277.613 180.14C277.613 180.78 277.607 181.419 277.594 182.056C323.201 186.052 359 225.181 359 272.86C359 319.451 324.818 357.876 280.704 363.335V364H269.887H107.113H95.2659V363.202C51.6507 357.276 18 319.087 18 272.86C18 225.181 53.7986 186.052 99.406 182.056C99.3932 181.419 99.3867 180.78 99.3867 180.14C99.3867 129.805 139.284 89 188.5 89C237.716 89 277.613 129.805 277.613 180.14Z" fill="white"/>
</g>
<g filter="url(#filter11_f)">
<path fill-rule="evenodd" clip-rule="evenodd" d="M258.657 216.701C258.657 217.214 258.652 217.725 258.642 218.234C295.128 221.431 323.767 252.734 323.767 290.877C323.767 328.15 296.421 358.89 261.13 363.258V363.789H112.779V363.151C77.8873 358.41 50.9668 327.859 50.9668 290.877C50.9668 252.734 79.6057 221.431 116.092 218.234C116.081 217.725 116.076 217.214 116.076 216.701C116.076 176.433 147.994 143.789 187.367 143.789C226.74 143.789 258.657 176.433 258.657 216.701Z" fill="#5B7186"/>
</g>
<g filter="url(#filter12_f)">
<path fill-rule="evenodd" clip-rule="evenodd" d="M263.831 184.73C264.205 181.469 264.398 178.142 264.398 174.764C264.398 132.635 234.378 98.4828 197.346 98.4828C160.313 98.4828 130.293 132.635 130.293 174.764C130.293 216.893 160.313 251.046 197.346 251.046C207.386 251.046 216.911 248.535 225.462 244.036C225.087 247.298 224.894 250.624 224.894 254.002C224.894 296.131 254.915 330.284 291.947 330.284C328.979 330.284 359 296.131 359 254.002C359 211.873 328.979 177.721 291.947 177.721C281.907 177.721 272.382 180.231 263.831 184.73Z" fill="url(#paint4_linear)"/>
</g>
<defs>
<filter id="filter0_f" x="195" y="0" width="290" height="290" filterUnits="userSpaceOnUse" color-interpolation-filters="sRGB">
<feFlood flood-opacity="0" result="BackgroundImageFix"/>
<feBlend mode="normal" in="SourceGraphic" in2="BackgroundImageFix" result="shape"/>
<feGaussianBlur stdDeviation="25" result="effect1_foregroundBlur"/>
</filter>
<filter id="filter1_i" x="382.416" y="147.428" width="31.3842" height="30.44" filterUnits="userSpaceOnUse" color-interpolation-filters="sRGB">
<feFlood flood-opacity="0" result="BackgroundImageFix"/>
<feBlend mode="normal" in="SourceGraphic" in2="BackgroundImageFix" result="shape"/>
<feColorMatrix in="SourceAlpha" type="matrix" values="0 0 0 0 0 0 0 0 0 0 0 0 0 0 0 0 0 0 127 0" result="hardAlpha"/>
<feOffset dx="3" dy="4"/>
<feGaussianBlur stdDeviation="1"/>
<feComposite in2="hardAlpha" operator="arithmetic" k2="-1" k3="1"/>
<feColorMatrix type="matrix" values="0 0 0 0 0.678431 0 0 0 0 0.721569 0 0 0 0 0.760784 0 0 0 1 0"/>
<feBlend mode="normal" in2="shape" result="effect1_innerShadow"/>
</filter>
<filter id="filter2_f" x="372.355" y="165.104" width="35.3313" height="26.2126" filterUnits="userSpaceOnUse" color-interpolation-filters="sRGB">
<feFlood flood-opacity="0" result="BackgroundImageFix"/>
<feBlend mode="normal" in="SourceGraphic" in2="BackgroundImageFix" result="shape"/>
<feGaussianBlur stdDeviation="4" result="effect1_foregroundBlur"/>
</filter>
<filter id="filter3_f" x="390" y="136.06" width="32.5001" height="31.4397" filterUnits="userSpaceOnUse" color-interpolation-filters="sRGB">
<feFlood flood-opacity="0" result="BackgroundImageFix"/>
<feBlend mode="normal" in="SourceGraphic" in2="BackgroundImageFix" result="shape"/>
<feGaussianBlur stdDeviation="4" result="effect1_foregroundBlur"/>
</filter>
<filter id="filter4_i" x="323.845" y="190.975" width="36.9703" height="36.5001" filterUnits="userSpaceOnUse" color-interpolation-filters="sRGB">
<feFlood flood-opacity="0" result="BackgroundImageFix"/>
<feBlend mode="normal" in="SourceGraphic" in2="BackgroundImageFix" result="shape"/>
<feColorMatrix in="SourceAlpha" type="matrix" values="0 0 0 0 0 0 0 0 0 0 0 0 0 0 0 0 0 0 127 0" result="hardAlpha"/>
<feOffset dx="3" dy="4"/>
<feGaussianBlur stdDeviation="1"/>
<feComposite in2="hardAlpha" operator="arithmetic" k2="-1" k3="1"/>
<feColorMatrix type="matrix" values="0 0 0 0 0.678431 0 0 0 0 0.721569 0 0 0 0 0.760784 0 0 0 1 0"/>
<feBlend mode="normal" in2="shape" result="effect1_innerShadow"/>
</filter>
<filter id="filter5_f" x="310.245" y="200.893" width="31.6167" height="33.7603" filterUnits="userSpaceOnUse" color-interpolation-filters="sRGB">
<feFlood flood-opacity="0" result="BackgroundImageFix"/>
<feBlend mode="normal" in="SourceGraphic" in2="BackgroundImageFix" result="shape"/>
<feGaussianBlur stdDeviation="4" result="effect1_foregroundBlur"/>
</filter>
<filter id="filter6_f" x="335.288" y="186.297" width="38.3622" height="38.0973" filterUnits="userSpaceOnUse" color-interpolation-filters="sRGB">
<feFlood flood-opacity="0" result="BackgroundImageFix"/>
<feBlend mode="normal" in="SourceGraphic" in2="BackgroundImageFix" result="shape"/>
<feGaussianBlur stdDeviation="4" result="effect1_foregroundBlur"/>
</filter>
<filter id="filter7_i" x="278" y="86.0001" width="58.1979" height="56.224" filterUnits="userSpaceOnUse" color-interpolation-filters="sRGB">
<feFlood flood-opacity="0" result="BackgroundImageFix"/>
<feBlend mode="normal" in="SourceGraphic" in2="BackgroundImageFix" result="shape"/>
<feColorMatrix in="SourceAlpha" type="matrix" values="0 0 0 0 0 0 0 0 0 0 0 0 0 0 0 0 0 0 127 0" result="hardAlpha"/>
<feOffset dx="4" dy="6"/>
<feGaussianBlur stdDeviation="1.5"/>
<feComposite in2="hardAlpha" operator="arithmetic" k2="-1" k3="1"/>
<feColorMatrix type="matrix" values="0 0 0 0 0.678431 0 0 0 0 0.721569 0 0 0 0 0.760784 0 0 0 1 0"/>
<feBlend mode="normal" in2="shape" result="effect1_innerShadow"/>
</filter>
<filter id="filter8_f" x="273.313" y="132.694" width="51.9335" height="26.6353" filterUnits="userSpaceOnUse" color-interpolation-filters="sRGB">
<feFlood flood-opacity="0" result="BackgroundImageFix"/>
<feBlend mode="normal" in="SourceGraphic" in2="BackgroundImageFix" result="shape"/>
<feGaussianBlur stdDeviation="4" result="effect1_foregroundBlur"/>
</filter>
<filter id="filter9_f" x="302.5" y="72.6025" width="43.9283" height="51.8974" filterUnits="userSpaceOnUse" color-interpolation-filters="sRGB">
<feFlood flood-opacity="0" result="BackgroundImageFix"/>
<feBlend mode="normal" in="SourceGraphic" in2="BackgroundImageFix" result="shape"/>
<feGaussianBlur stdDeviation="4" result="effect1_foregroundBlur"/>
</filter>
<filter id="filter10_i" x="18" y="69" width="341" height="295" filterUnits="userSpaceOnUse" color-interpolation-filters="sRGB">
<feFlood flood-opacity="0" result="BackgroundImageFix"/>
<feBlend mode="normal" in="SourceGraphic" in2="BackgroundImageFix" result="shape"/>
<feColorMatrix in="SourceAlpha" type="matrix" values="0 0 0 0 0 0 0 0 0 0 0 0 0 0 0 0 0 0 127 0" result="hardAlpha"/>
<feOffset dy="-20"/>
<feGaussianBlur stdDeviation="10"/>
<feComposite in2="hardAlpha" operator="arithmetic" k2="-1" k3="1"/>
<feColorMatrix type="matrix" values="0 0 0 0 0.870588 0 0 0 0 0.890196 0 0 0 0 0.905882 0 0 0 1 0"/>
<feBlend mode="normal" in2="shape" result="effect1_innerShadow"/>
</filter>
<filter id="filter11_f" x="0.966797" y="93.7893" width="372.8" height="320" filterUnits="userSpaceOnUse" color-interpolation-filters="sRGB">
<feFlood flood-opacity="0" result="BackgroundImageFix"/>
<feBlend mode="normal" in="SourceGraphic" in2="BackgroundImageFix" result="shape"/>
<feGaussianBlur stdDeviation="25" result="effect1_foregroundBlur"/>
</filter>
<filter id="filter12_f" x="90.293" y="58.4828" width="308.707" height="311.801" filterUnits="userSpaceOnUse" color-interpolation-filters="sRGB">
<feFlood flood-opacity="0" result="BackgroundImageFix"/>
<feBlend mode="normal" in="SourceGraphic" in2="BackgroundImageFix" result="shape"/>
<feGaussianBlur stdDeviation="20" result="effect1_foregroundBlur"/>
</filter>
<linearGradient id="paint0_linear" x1="374.5" y1="120" x2="276" y2="213" gradientUnits="userSpaceOnUse">
<stop stop-color="white"/>
<stop offset="1" stop-color="white" stop-opacity="0.3"/>
</linearGradient>
<linearGradient id="paint1_linear" x1="390.085" y1="152.109" x2="408.661" y2="160.98" gradientUnits="userSpaceOnUse">
<stop offset="0.0677083" stop-color="#DEE3E7" stop-opacity="0.5"/>
<stop offset="0.683775" stop-color="#DEE3E7"/>
</linearGradient>
<linearGradient id="paint2_linear" x1="341.012" y1="196.384" x2="351.195" y2="214.274" gradientUnits="userSpaceOnUse">
<stop offset="0.0677083" stop-color="#DEE3E7" stop-opacity="0.5"/>
<stop offset="0.683775" stop-color="#DEE3E7"/>
</linearGradient>
<linearGradient id="paint3_linear" x1="296" y1="91.5001" x2="328" y2="116" gradientUnits="userSpaceOnUse">
<stop offset="0.0677083" stop-color="#DEE3E7" stop-opacity="0.5"/>
<stop offset="0.683775" stop-color="#DEE3E7"/>
</linearGradient>
<linearGradient id="paint4_linear" x1="244.646" y1="98.4828" x2="244.646" y2="330.284" gradientUnits="userSpaceOnUse">
<stop stop-color="#DEE3E7"/>
<stop offset="1" stop-color="white" stop-opacity="0"/>
</linearGradient>
</defs>
</svg>
