<svg width="410" height="422" viewBox="0 0 410 422" fill="none" xmlns="http://www.w3.org/2000/svg">
<g filter="url(#filter0_i)">
<path fill-rule="evenodd" clip-rule="evenodd" d="M291 117.5C291 118.108 290.994 118.714 290.981 119.319C335.251 123.112 370 160.248 370 205.5C370 249.718 336.821 286.188 294 291.369V292H283.5H125.5H114V291.242C71.6639 285.618 39 249.374 39 205.5C39 160.248 73.7488 123.112 118.019 119.319C118.006 118.714 118 118.108 118 117.5C118 69.7274 156.727 31 204.5 31C252.273 31 291 69.7274 291 117.5Z" fill="white"/>
</g>
<g filter="url(#filter1_f)">
<path fill-rule="evenodd" clip-rule="evenodd" d="M272.6 152.2C272.6 152.686 272.595 153.171 272.585 153.655C308.001 156.689 335.8 186.398 335.8 222.6C335.8 257.975 309.257 287.15 275 291.295V291.8L266.6 291.8H140.2L131 291.8V291.194C97.1311 286.695 71 257.699 71 222.6C71 186.398 98.7991 156.689 134.215 153.655C134.205 153.171 134.2 152.686 134.2 152.2C134.2 113.982 165.182 83 203.4 83C241.618 83 272.6 113.982 272.6 152.2Z" fill="#5B7186"/>
</g>
<g filter="url(#filter2_f)">
<path fill-rule="evenodd" clip-rule="evenodd" d="M277.622 121.857C277.985 118.761 278.173 115.604 278.173 112.398C278.173 72.4137 249.033 40 213.086 40C177.14 40 148 72.4137 148 112.398C148 152.382 177.14 184.796 213.086 184.796C222.832 184.796 232.078 182.413 240.378 178.143C240.015 181.239 239.827 184.396 239.827 187.602C239.827 227.586 268.967 260 304.914 260C340.86 260 370 227.586 370 187.602C370 147.618 340.86 115.204 304.914 115.204C295.168 115.204 285.922 117.587 277.622 121.857Z" fill="url(#paint0_linear)"/>
</g>
<path d="M188.13 313C179.731 326.413 167.973 353.389 188.13 353.99C208.286 354.592 196.528 326.914 188.13 313Z" fill="#E1F3FE"/>
<path d="M156.13 369C147.731 382.413 135.973 409.389 156.13 409.99C176.286 410.592 164.528 382.914 156.13 369Z" fill="#E1F3FE"/>
<path d="M106.13 293C97.7309 306.413 85.9728 333.389 106.13 333.99C126.286 334.592 114.528 306.914 106.13 293Z" fill="#E1F3FE"/>
<path d="M255.13 290C246.731 303.413 234.973 330.389 255.13 330.99C275.286 331.592 263.528 303.914 255.13 290Z" fill="#E1F3FE"/>
<path d="M382.13 276C373.731 289.413 361.973 316.389 382.13 316.99C402.286 317.592 390.528 289.914 382.13 276Z" fill="#E1F3FE"/>
<path d="M28.1296 280C19.7309 293.413 7.97285 320.389 28.1296 320.99C48.2863 321.592 36.5282 293.914 28.1296 280Z" fill="#E1F3FE"/>
<path d="M311.13 330C302.731 343.413 290.973 370.389 311.13 370.99C331.286 371.592 319.528 343.914 311.13 330Z" fill="#E1F3FE"/>
<defs>
<filter id="filter0_i" x="39" y="11" width="331" height="281" filterUnits="userSpaceOnUse" color-interpolation-filters="sRGB">
<feFlood flood-opacity="0" result="BackgroundImageFix"/>
<feBlend mode="normal" in="SourceGraphic" in2="BackgroundImageFix" result="shape"/>
<feColorMatrix in="SourceAlpha" type="matrix" values="0 0 0 0 0 0 0 0 0 0 0 0 0 0 0 0 0 0 127 0" result="hardAlpha"/>
<feOffset dy="-20"/>
<feGaussianBlur stdDeviation="10"/>
<feComposite in2="hardAlpha" operator="arithmetic" k2="-1" k3="1"/>
<feColorMatrix type="matrix" values="0 0 0 0 0.870588 0 0 0 0 0.890196 0 0 0 0 0.905882 0 0 0 1 0"/>
<feBlend mode="normal" in2="shape" result="effect1_innerShadow"/>
</filter>
<filter id="filter1_f" x="21" y="33" width="364.8" height="308.8" filterUnits="userSpaceOnUse" color-interpolation-filters="sRGB">
<feFlood flood-opacity="0" result="BackgroundImageFix"/>
<feBlend mode="normal" in="SourceGraphic" in2="BackgroundImageFix" result="shape"/>
<feGaussianBlur stdDeviation="25" result="effect1_foregroundBlur"/>
</filter>
<filter id="filter2_f" x="108" y="0" width="302" height="300" filterUnits="userSpaceOnUse" color-interpolation-filters="sRGB">
<feFlood flood-opacity="0" result="BackgroundImageFix"/>
<feBlend mode="normal" in="SourceGraphic" in2="BackgroundImageFix" result="shape"/>
<feGaussianBlur stdDeviation="20" result="effect1_foregroundBlur"/>
</filter>
<linearGradient id="paint0_linear" x1="259" y1="40" x2="259" y2="260" gradientUnits="userSpaceOnUse">
<stop stop-color="#DEE3E7"/>
<stop offset="1" stop-color="white" stop-opacity="0"/>
</linearGradient>
</defs>
</svg>
