<svg width="514" height="473" viewBox="0 0 514 473" fill="none" xmlns="http://www.w3.org/2000/svg">
<g filter="url(#filter0_f)">
<path d="M464 145C464 197.467 421.467 240 369 240C316.533 240 274 197.467 274 145C274 92.5329 316.533 50 369 50C421.467 50 464 92.5329 464 145Z" fill="#ADB8C2"/>
</g>
<path d="M462 144C462 195.362 420.362 237 369 237C317.638 237 276 195.362 276 144C276 92.6375 317.638 51 369 51C420.362 51 462 92.6375 462 144Z" fill="url(#paint0_linear)"/>
<g filter="url(#filter1_i)">
<path fill-rule="evenodd" clip-rule="evenodd" d="M413.225 163.53C413.394 160.305 416.921 158.393 419.135 155.841C421.284 153.364 422.491 149.899 425.794 149.044C429.357 148.122 433.335 149.215 436.018 151.47C438.539 153.589 438.944 156.974 439.004 160.145C439.057 162.936 438.034 165.528 436.329 167.876C434.454 170.457 432.287 173.002 429.051 173.848C425.393 174.805 421.305 174.592 418.255 172.603C415.126 170.564 413.038 167.09 413.225 163.53Z" fill="url(#paint1_linear)"/>
</g>
<g filter="url(#filter2_f)">
<path d="M411.147 173.726C412.275 175.64 413.642 177.728 415.628 178.835C416.329 179.225 416.86 179.704 417.647 179.939C418.262 180.122 418.878 180.306 419.493 180.489C421.049 180.953 422.594 181.34 424.196 180.986C424.758 180.862 425.285 180.594 425.793 180.32C426.459 179.96 427.091 179.934 427.794 179.674" stroke="#5B7186" stroke-linecap="round" stroke-linejoin="round"/>
</g>
<g filter="url(#filter3_f)">
<path d="M427.5 145C429 144.5 429.5 144.333 431.5 145C433 145.5 434.698 146.492 435.708 147.333C436.924 148.346 438.841 148.493 439.994 149.667C442.57 152.289 443 155.462 443 159" stroke="#5B7186" stroke-linecap="round" stroke-linejoin="round"/>
</g>
<g filter="url(#filter4_i)">
<path fill-rule="evenodd" clip-rule="evenodd" d="M358.678 202.413C360.659 199.861 364.646 200.306 367.92 199.476C371.1 198.67 374.069 196.515 377.269 197.699C380.72 198.976 383.361 202.145 384.276 205.53C385.136 208.708 383.535 211.718 381.773 214.356C380.223 216.677 377.903 218.221 375.162 219.174C372.149 220.223 368.917 221.074 365.778 219.921C362.228 218.617 358.994 216.107 357.626 212.733C356.222 209.272 356.491 205.228 358.678 202.413Z" fill="url(#paint2_linear)"/>
</g>
<g filter="url(#filter5_f)">
<path d="M351.15 209.596C350.983 211.811 350.912 214.306 351.911 216.348C352.263 217.07 352.426 217.766 352.938 218.408C353.338 218.91 353.738 219.412 354.139 219.914C355.151 221.183 356.199 222.383 357.716 223.008C358.248 223.227 358.833 223.308 359.407 223.372C360.159 223.457 360.693 223.797 361.419 223.985" stroke="#5B7186" stroke-linecap="round" stroke-linejoin="round"/>
</g>
<g filter="url(#filter6_f)">
<path d="M380.979 195.354C382.496 195.8 383.002 195.949 384.263 197.638C385.209 198.905 386.036 200.689 386.385 201.957C386.805 203.483 388.295 204.698 388.571 206.32C389.187 209.944 387.728 212.794 385.708 215.698" stroke="#5B7186" stroke-linecap="round" stroke-linejoin="round"/>
</g>
<g filter="url(#filter7_i)">
<path fill-rule="evenodd" clip-rule="evenodd" d="M309.158 111.01C310.786 104.9 318.314 102.663 323.586 98.6695C328.705 94.7924 332.418 88.6431 339.091 88.3399C346.288 88.0128 353.466 91.7144 357.695 97.1195C361.668 102.197 361.075 108.844 359.908 114.944C358.882 120.311 355.876 124.863 351.661 128.672C347.026 132.859 341.846 136.857 335.306 137.171C327.911 137.525 320.166 135.465 315.127 130.423C309.958 125.252 307.361 117.754 309.158 111.01Z" fill="url(#paint3_linear)"/>
</g>
<g filter="url(#filter8_f)">
<path d="M311.201 141.216C314.249 144.318 317.833 147.639 322.129 148.802C323.646 149.213 324.881 149.872 326.487 149.945C327.743 150.002 328.999 150.06 330.254 150.117C333.43 150.262 336.548 150.267 339.425 148.837C340.434 148.335 341.308 147.578 342.143 146.816C343.237 145.817 344.426 145.468 345.64 144.642" stroke="#5B7186" stroke-linecap="round" stroke-linejoin="round"/>
</g>
<g filter="url(#filter9_f)">
<path d="M340 82C342.799 82 349.583 79.9806 352 82C353.712 83.4297 355.951 85.2602 357.5 86.9999C359.365 89.0936 362.623 91.2851 364.391 93.7111C368.341 99.1313 366.5 108.689 366.5 116" stroke="#5B7186" stroke-linecap="round" stroke-linejoin="round"/>
</g>
<g filter="url(#filter10_i)">
<path fill-rule="evenodd" clip-rule="evenodd" d="M288 171.5C288 172.108 287.994 172.714 287.981 173.319C332.251 177.112 367 214.248 367 259.5C367 303.718 333.821 340.188 291 345.369V346H280.5H122.5H111V345.242C68.6639 339.618 36 303.374 36 259.5C36 214.248 70.7488 177.112 115.019 173.319C115.006 172.714 115 172.108 115 171.5C115 123.727 153.727 85 201.5 85C249.273 85 288 123.727 288 171.5Z" fill="white"/>
</g>
<g filter="url(#filter11_f)">
<path fill-rule="evenodd" clip-rule="evenodd" d="M269.6 206.2C269.6 206.686 269.595 207.171 269.585 207.655C305.001 210.689 332.8 240.398 332.8 276.6C332.8 311.975 306.257 341.15 272 345.295V345.8L263.6 345.8H137.2L128 345.8V345.194C94.1311 340.695 68 311.699 68 276.6C68 240.398 95.7991 210.689 131.215 207.655C131.205 207.171 131.2 206.686 131.2 206.2C131.2 167.982 162.182 137 200.4 137C238.618 137 269.6 167.982 269.6 206.2Z" fill="#5B7186"/>
</g>
<g filter="url(#filter12_f)">
<path fill-rule="evenodd" clip-rule="evenodd" d="M274.622 175.857C274.985 172.761 275.173 169.604 275.173 166.398C275.173 126.414 246.033 94 210.086 94C174.14 94 145 126.414 145 166.398C145 206.382 174.14 238.796 210.086 238.796C219.832 238.796 229.078 236.413 237.378 232.143C237.015 235.239 236.827 238.396 236.827 241.602C236.827 281.586 265.967 314 301.914 314C337.86 314 367 281.586 367 241.602C367 201.618 337.86 169.204 301.914 169.204C292.168 169.204 282.922 171.587 274.622 175.857Z" fill="url(#paint4_linear)"/>
</g>
<path d="M185.13 371C176.731 384.413 164.973 411.389 185.13 411.99C205.286 412.592 193.528 384.914 185.13 371Z" fill="#E1F3FE"/>
<path d="M153.13 427C144.731 440.413 132.973 467.389 153.13 467.99C173.286 468.592 161.528 440.914 153.13 427Z" fill="#E1F3FE"/>
<path d="M103.13 351C94.7309 364.413 82.9728 391.389 103.13 391.99C123.286 392.592 111.528 364.914 103.13 351Z" fill="#E1F3FE"/>
<path d="M252.13 348C243.731 361.413 231.973 388.389 252.13 388.99C272.286 389.592 260.528 361.914 252.13 348Z" fill="#E1F3FE"/>
<path d="M379.13 334C370.731 347.413 358.973 374.389 379.13 374.99C399.286 375.592 387.528 347.914 379.13 334Z" fill="#E1F3FE"/>
<path d="M25.1296 338C16.7309 351.413 4.97285 378.389 25.1296 378.99C45.2863 379.592 33.5282 351.914 25.1296 338Z" fill="#E1F3FE"/>
<path d="M308.13 388C299.731 401.413 287.973 428.389 308.13 428.99C328.286 429.592 316.528 401.914 308.13 388Z" fill="#E1F3FE"/>
<defs>
<filter id="filter0_f" x="224" y="0" width="290" height="290" filterUnits="userSpaceOnUse" color-interpolation-filters="sRGB">
<feFlood flood-opacity="0" result="BackgroundImageFix"/>
<feBlend mode="normal" in="SourceGraphic" in2="BackgroundImageFix" result="shape"/>
<feGaussianBlur stdDeviation="25" result="effect1_foregroundBlur"/>
</filter>
<filter id="filter1_i" x="411.417" y="147.428" width="31.3842" height="30.44" filterUnits="userSpaceOnUse" color-interpolation-filters="sRGB">
<feFlood flood-opacity="0" result="BackgroundImageFix"/>
<feBlend mode="normal" in="SourceGraphic" in2="BackgroundImageFix" result="shape"/>
<feColorMatrix in="SourceAlpha" type="matrix" values="0 0 0 0 0 0 0 0 0 0 0 0 0 0 0 0 0 0 127 0" result="hardAlpha"/>
<feOffset dx="3" dy="4"/>
<feGaussianBlur stdDeviation="1"/>
<feComposite in2="hardAlpha" operator="arithmetic" k2="-1" k3="1"/>
<feColorMatrix type="matrix" values="0 0 0 0 0.678431 0 0 0 0 0.721569 0 0 0 0 0.760784 0 0 0 1 0"/>
<feBlend mode="normal" in2="shape" result="effect1_innerShadow"/>
</filter>
<filter id="filter2_f" x="401.355" y="165.104" width="35.3313" height="26.2126" filterUnits="userSpaceOnUse" color-interpolation-filters="sRGB">
<feFlood flood-opacity="0" result="BackgroundImageFix"/>
<feBlend mode="normal" in="SourceGraphic" in2="BackgroundImageFix" result="shape"/>
<feGaussianBlur stdDeviation="4" result="effect1_foregroundBlur"/>
</filter>
<filter id="filter3_f" x="419" y="136.06" width="32.5001" height="31.4397" filterUnits="userSpaceOnUse" color-interpolation-filters="sRGB">
<feFlood flood-opacity="0" result="BackgroundImageFix"/>
<feBlend mode="normal" in="SourceGraphic" in2="BackgroundImageFix" result="shape"/>
<feGaussianBlur stdDeviation="4" result="effect1_foregroundBlur"/>
</filter>
<filter id="filter4_i" x="352.844" y="190.975" width="36.9703" height="36.5001" filterUnits="userSpaceOnUse" color-interpolation-filters="sRGB">
<feFlood flood-opacity="0" result="BackgroundImageFix"/>
<feBlend mode="normal" in="SourceGraphic" in2="BackgroundImageFix" result="shape"/>
<feColorMatrix in="SourceAlpha" type="matrix" values="0 0 0 0 0 0 0 0 0 0 0 0 0 0 0 0 0 0 127 0" result="hardAlpha"/>
<feOffset dx="3" dy="4"/>
<feGaussianBlur stdDeviation="1"/>
<feComposite in2="hardAlpha" operator="arithmetic" k2="-1" k3="1"/>
<feColorMatrix type="matrix" values="0 0 0 0 0.678431 0 0 0 0 0.721569 0 0 0 0 0.760784 0 0 0 1 0"/>
<feBlend mode="normal" in2="shape" result="effect1_innerShadow"/>
</filter>
<filter id="filter5_f" x="339.244" y="200.893" width="31.6167" height="33.7603" filterUnits="userSpaceOnUse" color-interpolation-filters="sRGB">
<feFlood flood-opacity="0" result="BackgroundImageFix"/>
<feBlend mode="normal" in="SourceGraphic" in2="BackgroundImageFix" result="shape"/>
<feGaussianBlur stdDeviation="4" result="effect1_foregroundBlur"/>
</filter>
<filter id="filter6_f" x="364.288" y="186.297" width="38.3622" height="38.0973" filterUnits="userSpaceOnUse" color-interpolation-filters="sRGB">
<feFlood flood-opacity="0" result="BackgroundImageFix"/>
<feBlend mode="normal" in="SourceGraphic" in2="BackgroundImageFix" result="shape"/>
<feGaussianBlur stdDeviation="4" result="effect1_foregroundBlur"/>
</filter>
<filter id="filter7_i" x="307" y="85.9999" width="58.1979" height="56.224" filterUnits="userSpaceOnUse" color-interpolation-filters="sRGB">
<feFlood flood-opacity="0" result="BackgroundImageFix"/>
<feBlend mode="normal" in="SourceGraphic" in2="BackgroundImageFix" result="shape"/>
<feColorMatrix in="SourceAlpha" type="matrix" values="0 0 0 0 0 0 0 0 0 0 0 0 0 0 0 0 0 0 127 0" result="hardAlpha"/>
<feOffset dx="4" dy="6"/>
<feGaussianBlur stdDeviation="1.5"/>
<feComposite in2="hardAlpha" operator="arithmetic" k2="-1" k3="1"/>
<feColorMatrix type="matrix" values="0 0 0 0 0.678431 0 0 0 0 0.721569 0 0 0 0 0.760784 0 0 0 1 0"/>
<feBlend mode="normal" in2="shape" result="effect1_innerShadow"/>
</filter>
<filter id="filter8_f" x="302.312" y="132.694" width="51.9335" height="26.6353" filterUnits="userSpaceOnUse" color-interpolation-filters="sRGB">
<feFlood flood-opacity="0" result="BackgroundImageFix"/>
<feBlend mode="normal" in="SourceGraphic" in2="BackgroundImageFix" result="shape"/>
<feGaussianBlur stdDeviation="4" result="effect1_foregroundBlur"/>
</filter>
<filter id="filter9_f" x="331.5" y="72.6025" width="43.9283" height="51.8974" filterUnits="userSpaceOnUse" color-interpolation-filters="sRGB">
<feFlood flood-opacity="0" result="BackgroundImageFix"/>
<feBlend mode="normal" in="SourceGraphic" in2="BackgroundImageFix" result="shape"/>
<feGaussianBlur stdDeviation="4" result="effect1_foregroundBlur"/>
</filter>
<filter id="filter10_i" x="36" y="65" width="331" height="281" filterUnits="userSpaceOnUse" color-interpolation-filters="sRGB">
<feFlood flood-opacity="0" result="BackgroundImageFix"/>
<feBlend mode="normal" in="SourceGraphic" in2="BackgroundImageFix" result="shape"/>
<feColorMatrix in="SourceAlpha" type="matrix" values="0 0 0 0 0 0 0 0 0 0 0 0 0 0 0 0 0 0 127 0" result="hardAlpha"/>
<feOffset dy="-20"/>
<feGaussianBlur stdDeviation="10"/>
<feComposite in2="hardAlpha" operator="arithmetic" k2="-1" k3="1"/>
<feColorMatrix type="matrix" values="0 0 0 0 0.870588 0 0 0 0 0.890196 0 0 0 0 0.905882 0 0 0 1 0"/>
<feBlend mode="normal" in2="shape" result="effect1_innerShadow"/>
</filter>
<filter id="filter11_f" x="18" y="87" width="364.8" height="308.8" filterUnits="userSpaceOnUse" color-interpolation-filters="sRGB">
<feFlood flood-opacity="0" result="BackgroundImageFix"/>
<feBlend mode="normal" in="SourceGraphic" in2="BackgroundImageFix" result="shape"/>
<feGaussianBlur stdDeviation="25" result="effect1_foregroundBlur"/>
</filter>
<filter id="filter12_f" x="105" y="54" width="302" height="300" filterUnits="userSpaceOnUse" color-interpolation-filters="sRGB">
<feFlood flood-opacity="0" result="BackgroundImageFix"/>
<feBlend mode="normal" in="SourceGraphic" in2="BackgroundImageFix" result="shape"/>
<feGaussianBlur stdDeviation="20" result="effect1_foregroundBlur"/>
</filter>
<linearGradient id="paint0_linear" x1="403.5" y1="120" x2="305" y2="213" gradientUnits="userSpaceOnUse">
<stop stop-color="white"/>
<stop offset="1" stop-color="white" stop-opacity="0.3"/>
</linearGradient>
<linearGradient id="paint1_linear" x1="419.085" y1="152.109" x2="437.662" y2="160.98" gradientUnits="userSpaceOnUse">
<stop offset="0.0677083" stop-color="#DEE3E7" stop-opacity="0.5"/>
<stop offset="0.683775" stop-color="#DEE3E7"/>
</linearGradient>
<linearGradient id="paint2_linear" x1="370.011" y1="196.384" x2="380.194" y2="214.274" gradientUnits="userSpaceOnUse">
<stop offset="0.0677083" stop-color="#DEE3E7" stop-opacity="0.5"/>
<stop offset="0.683775" stop-color="#DEE3E7"/>
</linearGradient>
<linearGradient id="paint3_linear" x1="325" y1="91.5" x2="357" y2="116" gradientUnits="userSpaceOnUse">
<stop offset="0.0677083" stop-color="#DEE3E7" stop-opacity="0.5"/>
<stop offset="0.683775" stop-color="#DEE3E7"/>
</linearGradient>
<linearGradient id="paint4_linear" x1="256" y1="94" x2="256" y2="314" gradientUnits="userSpaceOnUse">
<stop stop-color="#DEE3E7"/>
<stop offset="1" stop-color="white" stop-opacity="0"/>
</linearGradient>
</defs>
</svg>
