<svg width="405" height="421" fill="none" xmlns="http://www.w3.org/2000/svg"><g filter="url(#filter0_i)"><path fill-rule="evenodd" clip-rule="evenodd" d="M285 117.5c0 .608-.006 1.214-.019 1.819C329.251 123.112 364 160.248 364 205.5c0 44.218-33.179 80.688-76 85.869V292H108v-.758c-42.336-5.624-75-41.868-75-85.742 0-45.252 34.749-82.388 79.019-86.181A84.652 84.652 0 01112 117.5c0-47.773 38.727-86.5 86.5-86.5S285 69.727 285 117.5z" fill="#fff"/></g><g filter="url(#filter1_f)"><path fill-rule="evenodd" clip-rule="evenodd" d="M266.6 152.2c0 .486-.005.971-.015 1.455 35.416 3.034 63.215 32.743 63.215 68.945 0 35.375-26.543 64.55-60.8 68.695v.505H125v-.606c-33.869-4.499-60-33.495-60-68.594 0-36.202 27.8-65.911 63.215-68.945-.01-.484-.015-.969-.015-1.455 0-38.218 30.982-69.2 69.2-69.2s69.2 30.982 69.2 69.2z" fill="#5B7186"/></g><g filter="url(#filter2_f)"><path fill-rule="evenodd" clip-rule="evenodd" d="M271.622 121.857c.363-3.096.551-6.253.551-9.459 0-39.984-29.14-72.398-65.087-72.398C171.14 40 142 72.414 142 112.398c0 39.984 29.14 72.398 65.086 72.398 9.746 0 18.992-2.383 27.292-6.653a81.212 81.212 0 00-.551 9.459c0 39.984 29.14 72.398 65.087 72.398C334.86 260 364 227.586 364 187.602c0-39.984-29.14-72.398-65.086-72.398-9.746 0-18.992 2.383-27.292 6.653z" fill="url(#paint0_linear)"/></g><mask id="a" fill="#fff"><path fill-rule="evenodd" clip-rule="evenodd" d="M205.717 264a3 3 0 116 0v4.229l2.59-2.586a3 3 0 014.239 4.246l-6.829 6.818v9.097l9.444-5.452 3.273-8.722a3.001 3.001 0 015.618 2.108l-.709 1.89 1.257-.726a3 3 0 013 5.196l-2.181 1.259 2.78.871a3 3 0 01-1.794 5.726l-8.046-2.521-9.642 5.567 9.863 5.694 8.334-2.084a3 3 0 111.456 5.821l-2.316.579 1.546.892a3 3 0 01-3 5.196l-1.642-.948.78 2.516a3 3 0 11-5.731 1.776l-2.699-8.709-9.591-5.537v10.443l5.907 6.446a3 3 0 01-4.424 4.053l-1.483-1.618V318a3 3 0 11-6 0v-3.021l-1.964 2.012a3 3 0 01-4.293-4.192l6.257-6.408v-10.195l-7.536 4.351-2.8 8.959a3 3 0 01-5.727-1.79l.857-2.74-3.676 2.122a3 3 0 11-3-5.196l3.293-1.901-2.09-.528a3 3 0 111.469-5.818l8.077 2.041 8.133-4.696-8.081-4.666-8.907 2.231a3 3 0 01-1.457-5.821l2.892-.724-3.329-1.922a3 3 0 113-5.196l3.554 2.052-1.098-3.296a3 3 0 015.693-1.896l3.16 9.487c.024.073.046.146.064.219l7.509 4.336v-9.211l-6.761-6.894a3 3 0 114.283-4.201l2.478 2.526V264z"/></mask><path fill-rule="evenodd" clip-rule="evenodd" d="M205.717 264a3 3 0 116 0v4.229l2.59-2.586a3 3 0 014.239 4.246l-6.829 6.818v9.097l9.444-5.452 3.273-8.722a3.001 3.001 0 015.618 2.108l-.709 1.89 1.257-.726a3 3 0 013 5.196l-2.181 1.259 2.78.871a3 3 0 01-1.794 5.726l-8.046-2.521-9.642 5.567 9.863 5.694 8.334-2.084a3 3 0 111.456 5.821l-2.316.579 1.546.892a3 3 0 01-3 5.196l-1.642-.948.78 2.516a3 3 0 11-5.731 1.776l-2.699-8.709-9.591-5.537v10.443l5.907 6.446a3 3 0 01-4.424 4.053l-1.483-1.618V318a3 3 0 11-6 0v-3.021l-1.964 2.012a3 3 0 01-4.293-4.192l6.257-6.408v-10.195l-7.536 4.351-2.8 8.959a3 3 0 01-5.727-1.79l.857-2.74-3.676 2.122a3 3 0 11-3-5.196l3.293-1.901-2.09-.528a3 3 0 111.469-5.818l8.077 2.041 8.133-4.696-8.081-4.666-8.907 2.231a3 3 0 01-1.457-5.821l2.892-.724-3.329-1.922a3 3 0 113-5.196l3.554 2.052-1.098-3.296a3 3 0 015.693-1.896l3.16 9.487c.024.073.046.146.064.219l7.509 4.336v-9.211l-6.761-6.894a3 3 0 114.283-4.201l2.478 2.526V264z" fill="#B3E0FB"/><path d="M211.717 268.229h-1v2.411l1.707-1.704-.707-.707zm2.59-2.586l.706.708-.706-.708zm4.243.004l-.708.706.708-.706zm-.004 4.242l.706.708-.706-.708zm-6.829 6.818l-.706-.708-.294.293v.415h1zm0 9.097h-1v1.732l1.5-.866-.5-.866zm9.444-5.452l.5.866.31-.18.126-.335-.936-.351zm3.273-8.722l-.936-.351.936.351zm3.863-1.755l.352-.936-.352.936zm1.755 3.863l.936.352-.936-.352zm-.709 1.89l-.937-.352-.98 2.613 2.417-1.395-.5-.866zm1.257-.726l-.5-.866.5.866zm4.098 1.098l.866-.5-.866.5zm-1.098 4.098l-.5-.866.5.866zm-2.181 1.259l-.5-.866-1.973 1.14 2.174.681.299-.955zm2.78.871l.299-.954-.299.954zm1.966 3.76l.954.299-.954-.299zm-3.76 1.966l-.299.954.299-.954zm-8.046-2.521l.299-.954-.419-.131-.38.219.5.866zM214.717 291l-.5-.866-1.5.866 1.5.866.5-.866zm9.863 5.694l-.5.866.35.202.392-.098-.242-.97zm8.334-2.084l.243.97-.243-.97zm3.638 2.182l-.97.243.97-.243zm-2.182 3.639l.242.97-.242-.97zm-2.316.579l-.242-.971-2.399.6 2.141 1.237.5-.866zm1.546.892l.5-.866-.5.866zm1.098 4.098l-.866-.5.866.5zm-4.098 1.098l.5-.866-.5.866zm-1.642-.948l.5-.866-2.211-1.276.756 2.438.955-.296zm.78 2.516l.955-.296-.955.296zm-1.977 3.753l-.296-.955.296.955zm-3.754-1.977l.955-.296-.955.296zm-2.699-8.709l.955-.296-.116-.374-.339-.196-.5.866zm-9.591-5.537l.5-.866-1.5-.866v1.732h1zm0 10.443h-1v.389l.263.287.737-.676zm5.907 6.446l-.738.675.738-.675zm-.185 4.238l.675.738-.675-.738zm-4.239-.185l.737-.675-.737.675zm-1.483-1.618l.737-.676-1.737-1.895v2.571h1zm-6-.541h1v-2.455l-1.715 1.757.715.698zm-1.964 2.012l-.716-.699.716.699zm-4.242.051l-.699.715.699-.715zm-.051-4.243l.716.699-.716-.699zm6.257-6.408l.716.699.284-.291v-.408h-1zm0-10.195h1v-1.732l-1.5.866.5.866zm-7.536 4.351l-.5-.866-.338.195-.116.373.954.298zm-2.8 8.959l-.955-.298.955.298zm-5.727-1.79l.954.299-.954-.299zm.857-2.74l.954.298.765-2.445-2.219 1.281.5.866zm-3.676 2.122l.5.866-.5-.866zM182.736 306l-.866.5.866-.5zm1.099-4.098l-.5-.866.5.866zm3.293-1.901l.5.866 2.134-1.232-2.389-.604-.245.97zm-2.09-.528l.245-.97-.245.97zm-2.174-3.644l-.97-.245.97.245zm3.643-2.174l.245-.969-.245.969zm8.077 2.041l-.245.969.394.1.351-.203-.5-.866zm8.133-4.696l.5.866 1.5-.866-1.5-.866-.5.866zm-8.081-4.666l.5-.866-.351-.202-.392.098.243.97zm-8.907 2.231l.243.97-.243-.97zm-1.457-5.821l-.243-.97.243.97zm2.892-.724l.243.97 2.397-.6-2.14-1.236-.5.866zm-3.329-1.922l.5-.866-.5.866zM182.736 276l.867.5-.867-.5zm4.099-1.098l.5-.866-.5.866zm3.554 2.052l-.5.866 2.281 1.317-.832-2.499-.949.316zm-1.098-3.296l.949-.316-.949.316zm1.898-3.794l.316.949-.316-.949zm3.795 1.898l-.949.316.949-.316zm3.16 9.487l-.949.316.949-.316zm.064.219l-.97.244.104.411.366.211.5-.866zm7.509 4.336l-.5.866 1.5.866v-1.732h-1zm0-9.211h1v-.408l-.286-.292-.714.7zm-6.761-6.894l-.714.7.714-.7zm.041-4.242l-.7-.714.7.714zm4.242.041l-.714.7.714-.7zm2.478 2.526l-.714.701 1.714 1.747v-2.448h-1zm3-8.024a4 4 0 00-4 4h2a2 2 0 012-2v-2zm4 4a4 4 0 00-4-4v2a2 2 0 012 2h2zm0 4.229V264h-2v4.229h2zm.883-3.293l-2.589 2.585 1.413 1.415 2.589-2.585-1.413-1.415zm5.657.004a4 4 0 00-5.657-.004l1.413 1.415a2.002 2.002 0 012.829.002l1.415-1.413zm-.005 5.657a4 4 0 00.005-5.657l-1.415 1.413a2 2 0 01-.003 2.829l1.413 1.415zm-6.828 6.817l6.828-6.817-1.413-1.415-6.828 6.817 1.413 1.415zm.293 8.39v-9.097h-2v9.097h2zm7.944-6.318l-9.444 5.452 1 1.732 9.444-5.452-1-1.732zm2.837-8.207L220.225 280l1.872.703 3.274-8.722-1.873-.702zm5.151-2.34a4 4 0 00-5.151 2.34l1.873.702a2 2 0 012.575-1.169l.703-1.873zm2.339 5.151a4.001 4.001 0 00-2.339-5.151l-.703 1.873a2 2 0 011.17 2.575l1.872.703zm-.709 1.889l.709-1.889-1.872-.703-.71 1.889 1.873.703zm-.179-1.943l-1.257.726 1 1.732 1.257-.726-1-1.732zm5.464 1.464a4 4 0 00-5.464-1.464l1 1.732a2 2 0 012.732.732l1.732-1zm-1.464 5.464a4 4 0 001.464-5.464l-1.732 1a2 2 0 01-.732 2.732l1 1.732zm-2.181 1.259l2.181-1.259-1-1.732-2.181 1.259 1 1.732zm2.579-.949l-2.78-.871-.598 1.909 2.78.87.598-1.908zm2.621 5.013a4 4 0 00-2.621-5.013l-.598 1.908a2.001 2.001 0 011.311 2.507l1.908.598zm-5.013 2.621a4 4 0 005.013-2.621l-1.908-.598a2 2 0 01-2.507 1.31l-.598 1.909zm-8.046-2.52l8.046 2.52.598-1.909-8.046-2.52-.598 1.909zm-8.843 5.478l9.642-5.566-1-1.733-9.642 5.567 1 1.732zm9.863 3.962l-9.863-5.694-1 1.732 9.863 5.694 1-1.732zm-.258 1.836l8.335-2.084-.485-1.94-8.335 2.084.485 1.94zm8.335-2.084a2 2 0 012.425 1.455l1.94-.485a3.999 3.999 0 00-4.85-2.91l.485 1.94zm2.425 1.455a1.999 1.999 0 01-1.455 2.425l.485 1.941a4 4 0 002.91-4.851l-1.94.485zm-1.455 2.425l-2.315.579.485 1.941 2.315-.579-.485-1.941zm-.027 1.576l-1.546-.892-1 1.732 1.546.892 1-1.732zm1.464 5.464a4 4 0 00-1.464-5.464l-1 1.732a2 2 0 01.732 2.732l1.732 1zm-5.464 1.464a4 4 0 005.464-1.464l-1.732-1a2 2 0 01-2.732.732l-1 1.732zm-1.642-.948l1.642.948 1-1.732-1.642-.948-1 1.732zm2.235 1.354l-.779-2.516-1.911.592.78 2.516 1.91-.592zm-2.636 5.005a4 4 0 002.636-5.005l-1.91.592a2 2 0 01-1.318 2.502l.592 1.911zm-5.005-2.637a4 4 0 005.005 2.637l-.592-1.911a2 2 0 01-2.503-1.318l-1.91.592zm-2.7-8.709l2.7 8.709 1.91-.592-2.699-8.709-1.911.592zm-9.135-4.967l9.591 5.537 1-1.732-9.591-5.537-1 1.732zm1.5 9.577v-10.443h-2v10.443h2zm5.644 5.77l-5.907-6.446-1.474 1.352 5.906 6.445 1.475-1.351zm-.247 5.652a4 4 0 00.247-5.652l-1.475 1.351a2 2 0 01-.123 2.826l1.351 1.475zm-5.651-.247a4 4 0 005.651.247l-1.351-1.475a2 2 0 01-2.826-.123l-1.474 1.351zm-1.483-1.618l1.483 1.618 1.474-1.351-1.483-1.619-1.474 1.352zm1.737 1.804v-2.48h-2V318h2zm-4 4a4 4 0 004-4h-2a2 2 0 01-2 2v2zm-4-4a4 4 0 004 4v-2a2 2 0 01-2-2h-2zm0-3.021V318h2v-3.021h-2zm-.249 2.711l1.965-2.012-1.431-1.397-1.965 2.011 1.431 1.398zm-5.656.067a4 4 0 005.656-.067l-1.431-1.398a1.999 1.999 0 01-2.828.034l-1.397 1.431zm-.067-5.656a3.999 3.999 0 00.067 5.656l1.397-1.431a2 2 0 01-.033-2.828l-1.431-1.397zm6.257-6.408l-6.257 6.408 1.431 1.397 6.257-6.408-1.431-1.397zm-.285-9.497v10.195h2v-10.195h-2zm-6.036 5.217l7.536-4.351-1-1.732-7.536 4.351 1 1.732zm-2.346 8.392l2.801-8.96-1.909-.596-2.801 8.959 1.909.597zm-5.011 2.624a4 4 0 005.011-2.624l-1.909-.597a1.999 1.999 0 01-2.505 1.312l-.597 1.909zm-2.624-5.011a3.999 3.999 0 002.624 5.011l.597-1.909a2 2 0 01-1.313-2.505l-1.908-.597zm.856-2.741l-.856 2.741 1.908.597.857-2.741-1.909-.597zm-2.221 3.287l3.676-2.122-1-1.732-3.676 2.122 1 1.732zm-5.465-1.464a4 4 0 005.465 1.464l-1-1.732a2 2 0 01-2.732-.732l-1.733 1zm1.465-5.464a4 4 0 00-1.465 5.464l1.733-1a1.999 1.999 0 01.732-2.732l-1-1.732zm3.293-1.901l-3.293 1.901 1 1.732 3.293-1.901-1-1.732zm-1.835 1.307l2.09.528.49-1.939-2.09-.528-.49 1.939zm-2.899-4.858a4 4 0 002.899 4.858l.49-1.939a2.001 2.001 0 01-1.45-2.429l-1.939-.49zm4.858-2.898a4 4 0 00-4.858 2.898l1.939.49a2 2 0 012.429-1.449l.49-1.939zm8.077 2.04l-8.077-2.04-.49 1.939 8.077 2.04.49-1.939zm7.388-4.592l-8.133 4.696 1 1.732 8.133-4.696-1-1.732zm-8.081-2.934l8.081 4.666 1-1.732-8.081-4.666-1 1.732zm-8.164 2.335l8.907-2.231-.486-1.94-8.906 2.23.485 1.941zm-4.851-2.909a4 4 0 004.851 2.909l-.485-1.941a1.999 1.999 0 01-2.426-1.454l-1.94.486zm2.908-4.852a4 4 0 00-2.908 4.852l1.94-.486a2 2 0 011.454-2.426l-.486-1.94zm2.892-.724l-2.892.724.486 1.94 2.892-.724-.486-1.94zm-3.586-.086l3.329 1.922 1-1.732-3.329-1.922-1 1.732zm-1.465-5.464a4 4 0 001.465 5.464l1-1.732a1.999 1.999 0 01-.732-2.732l-1.733-1zm5.465-1.464a4 4 0 00-5.465 1.464l1.733 1a2 2 0 012.732-.732l1-1.732zm3.554 2.052l-3.554-2.052-1 1.732 3.554 2.052 1-1.732zm-2.546-2.114l1.097 3.296 1.898-.632-1.098-3.296-1.897.632zm2.53-5.059a3.999 3.999 0 00-2.53 5.059l1.897-.632a2 2 0 011.265-2.529l-.632-1.898zm5.059 2.531a4 4 0 00-5.059-2.531l.632 1.898a2 2 0 012.53 1.265l1.897-.632zm3.161 9.487l-3.161-9.487-1.897.632 3.16 9.487 1.898-.632zm.085.291a4.56 4.56 0 00-.085-.291l-1.898.632c.017.049.031.099.043.147l1.94-.488zm7.039 3.714l-7.509-4.336-1 1.732 7.509 4.336 1-1.732zm-1.5-8.345v9.211h2v-9.211h-2zm-6.475-6.194l6.761 6.894 1.428-1.4-6.761-6.894-1.428 1.4zm.055-5.656a3.998 3.998 0 00-.055 5.656l1.428-1.4a1.999 1.999 0 01.027-2.828l-1.4-1.428zm5.656.055a4 4 0 00-5.656-.055l1.4 1.428a2 2 0 012.828.027l1.428-1.4zm2.478 2.526l-2.478-2.526-1.428 1.4 2.478 2.527 1.428-1.401zM204.717 264v4.024h2V264h-2z" fill="#B3E0FB" mask="url(#a)"/><mask id="b" fill="#fff"><path fill-rule="evenodd" clip-rule="evenodd" d="M174.717 334a3 3 0 116 0v4.229l2.59-2.586a3 3 0 014.239 4.246l-6.829 6.818v9.097l9.444-5.452 3.273-8.722a3.001 3.001 0 015.618 2.108l-.709 1.89 1.257-.726a3 3 0 013 5.196l-2.181 1.259 2.78.871a3 3 0 01-1.794 5.726l-8.046-2.521-9.642 5.567 9.863 5.694 8.334-2.084a3 3 0 111.456 5.821l-2.316.579 1.546.892a3 3 0 01-3 5.196l-1.642-.948.78 2.516a3 3 0 11-5.731 1.776l-2.699-8.709-9.591-5.537v10.443l5.907 6.446a3 3 0 01-4.424 4.053l-1.483-1.618V388a3 3 0 11-6 0v-3.021l-1.964 2.012a3 3 0 01-4.293-4.192l6.257-6.408v-10.195l-7.536 4.351-2.8 8.959a3 3 0 01-5.727-1.79l.857-2.74-3.676 2.122a3 3 0 11-3-5.196l3.293-1.901-2.09-.528a3 3 0 111.469-5.818l8.077 2.041 8.133-4.696-8.081-4.666-8.907 2.231a3 3 0 01-1.457-5.821l2.892-.724-3.329-1.922a3 3 0 113-5.196l3.554 2.052-1.098-3.296a3 3 0 015.693-1.896l3.16 9.487c.024.073.046.146.064.219l7.509 4.336v-9.211l-6.761-6.894a3 3 0 114.283-4.201l2.478 2.526V334z"/></mask><path fill-rule="evenodd" clip-rule="evenodd" d="M174.717 334a3 3 0 116 0v4.229l2.59-2.586a3 3 0 014.239 4.246l-6.829 6.818v9.097l9.444-5.452 3.273-8.722a3.001 3.001 0 015.618 2.108l-.709 1.89 1.257-.726a3 3 0 013 5.196l-2.181 1.259 2.78.871a3 3 0 01-1.794 5.726l-8.046-2.521-9.642 5.567 9.863 5.694 8.334-2.084a3 3 0 111.456 5.821l-2.316.579 1.546.892a3 3 0 01-3 5.196l-1.642-.948.78 2.516a3 3 0 11-5.731 1.776l-2.699-8.709-9.591-5.537v10.443l5.907 6.446a3 3 0 01-4.424 4.053l-1.483-1.618V388a3 3 0 11-6 0v-3.021l-1.964 2.012a3 3 0 01-4.293-4.192l6.257-6.408v-10.195l-7.536 4.351-2.8 8.959a3 3 0 01-5.727-1.79l.857-2.74-3.676 2.122a3 3 0 11-3-5.196l3.293-1.901-2.09-.528a3 3 0 111.469-5.818l8.077 2.041 8.133-4.696-8.081-4.666-8.907 2.231a3 3 0 01-1.457-5.821l2.892-.724-3.329-1.922a3 3 0 113-5.196l3.554 2.052-1.098-3.296a3 3 0 015.693-1.896l3.16 9.487c.024.073.046.146.064.219l7.509 4.336v-9.211l-6.761-6.894a3 3 0 114.283-4.201l2.478 2.526V334z" fill="#B3E0FB"/><path d="M180.717 338.229h-1v2.411l1.707-1.704-.707-.707zm2.59-2.586l.706.708-.706-.708zm4.243.004l-.708.706.708-.706zm-.004 4.242l.706.708-.706-.708zm-6.829 6.818l-.706-.708-.294.293v.415h1zm0 9.097h-1v1.732l1.5-.866-.5-.866zm9.444-5.452l.5.866.31-.18.126-.335-.936-.351zm3.273-8.722l-.936-.351.936.351zm3.863-1.755l.352-.936-.352.936zm1.755 3.863l.936.352-.936-.352zm-.709 1.89l-.937-.352-.98 2.613 2.417-1.395-.5-.866zm1.257-.726l-.5-.866.5.866zm4.098 1.098l.866-.5-.866.5zm-1.098 4.098l-.5-.866.5.866zm-2.181 1.259l-.5-.866-1.973 1.14 2.174.681.299-.955zm2.78.871l.299-.954-.299.954zm1.966 3.76l.954.299-.954-.299zm-3.76 1.966l-.299.954.299-.954zm-8.046-2.521l.299-.954-.419-.131-.38.219.5.866zM183.717 361l-.5-.866-1.5.866 1.5.866.5-.866zm9.863 5.694l-.5.866.35.202.392-.098-.242-.97zm8.334-2.084l.243.97-.243-.97zm3.638 2.182l-.97.243.97-.243zm-2.182 3.639l.242.97-.242-.97zm-2.316.579l-.242-.971-2.399.6 2.141 1.237.5-.866zm1.546.892l.5-.866-.5.866zm1.098 4.098l-.866-.5.866.5zm-4.098 1.098l.5-.866-.5.866zm-1.642-.948l.5-.866-2.211-1.276.756 2.438.955-.296zm.78 2.516l.955-.296-.955.296zm-1.977 3.753l-.296-.955.296.955zm-3.754-1.977l.955-.296-.955.296zm-2.699-8.709l.955-.296-.116-.374-.339-.196-.5.866zm-9.591-5.537l.5-.866-1.5-.866v1.732h1zm0 10.443h-1v.389l.263.287.737-.676zm5.907 6.446l-.738.675.738-.675zm-.185 4.238l.675.738-.675-.738zm-4.239-.185l.737-.675-.737.675zm-1.483-1.618l.737-.676-1.737-1.895v2.571h1zm-6-.541h1v-2.455l-1.715 1.757.715.698zm-1.964 2.012l-.716-.699.716.699zm-4.242.051l-.699.715.699-.715zm-.051-4.243l.716.699-.716-.699zm6.257-6.408l.716.699.284-.291v-.408h-1zm0-10.195h1v-1.732l-1.5.866.5.866zm-7.536 4.351l-.5-.866-.338.195-.116.373.954.298zm-2.8 8.959l-.955-.298.955.298zm-5.727-1.79l.954.299-.954-.299zm.857-2.74l.954.298.765-2.445-2.219 1.281.5.866zm-3.676 2.122l.5.866-.5-.866zM151.736 376l-.866.5.866-.5zm1.099-4.098l-.5-.866.5.866zm3.293-1.901l.5.866 2.134-1.232-2.389-.604-.245.97zm-2.09-.528l.245-.97-.245.97zm-2.174-3.644l-.97-.245.97.245zm3.643-2.174l.245-.969-.245.969zm8.077 2.041l-.245.969.394.1.351-.203-.5-.866zm8.133-4.696l.5.866 1.5-.866-1.5-.866-.5.866zm-8.081-4.666l.5-.866-.351-.202-.392.098.243.97zm-8.907 2.231l.243.97-.243-.97zm-1.457-5.821l-.243-.97.243.97zm2.892-.724l.243.97 2.397-.6-2.14-1.236-.5.866zm-3.329-1.922l.5-.866-.5.866zM151.736 346l.867.5-.867-.5zm4.099-1.098l.5-.866-.5.866zm3.554 2.052l-.5.866 2.281 1.317-.832-2.499-.949.316zm-1.098-3.296l.949-.316-.949.316zm1.898-3.794l.316.949-.316-.949zm3.795 1.898l-.949.316.949-.316zm3.16 9.487l-.949.316.949-.316zm.064.219l-.97.244.104.411.366.211.5-.866zm7.509 4.336l-.5.866 1.5.866v-1.732h-1zm0-9.211h1v-.408l-.286-.292-.714.7zm-6.761-6.894l-.714.7.714-.7zm.041-4.242l-.7-.714.7.714zm4.242.041l-.714.7.714-.7zm2.478 2.526l-.714.701 1.714 1.747v-2.448h-1zm3-8.024a4 4 0 00-4 4h2a2 2 0 012-2v-2zm4 4a4 4 0 00-4-4v2a2 2 0 012 2h2zm0 4.229V334h-2v4.229h2zm.883-3.293l-2.589 2.585 1.413 1.415 2.589-2.585-1.413-1.415zm5.657.004a4 4 0 00-5.657-.004l1.413 1.415a2.002 2.002 0 012.829.002l1.415-1.413zm-.005 5.657a4 4 0 00.005-5.657l-1.415 1.413a2 2 0 01-.003 2.829l1.413 1.415zm-6.828 6.817l6.828-6.817-1.413-1.415-6.828 6.817 1.413 1.415zm.293 8.39v-9.097h-2v9.097h2zm7.944-6.318l-9.444 5.452 1 1.732 9.444-5.452-1-1.732zm2.837-8.207L189.225 350l1.872.703 3.274-8.722-1.873-.702zm5.151-2.34a4 4 0 00-5.151 2.34l1.873.702a2 2 0 012.575-1.169l.703-1.873zm2.339 5.151a4.001 4.001 0 00-2.339-5.151l-.703 1.873a2 2 0 011.17 2.575l1.872.703zm-.709 1.889l.709-1.889-1.872-.703-.71 1.889 1.873.703zm-.179-1.943l-1.257.726 1 1.732 1.257-.726-1-1.732zm5.464 1.464a4 4 0 00-5.464-1.464l1 1.732a2 2 0 012.732.732l1.732-1zm-1.464 5.464a4 4 0 001.464-5.464l-1.732 1a2 2 0 01-.732 2.732l1 1.732zm-2.181 1.259l2.181-1.259-1-1.732-2.181 1.259 1 1.732zm2.579-.949l-2.78-.871-.598 1.909 2.78.87.598-1.908zm2.621 5.013a4 4 0 00-2.621-5.013l-.598 1.908a2.001 2.001 0 011.311 2.507l1.908.598zm-5.013 2.621a4 4 0 005.013-2.621l-1.908-.598a2 2 0 01-2.507 1.31l-.598 1.909zm-8.046-2.52l8.046 2.52.598-1.909-8.046-2.52-.598 1.909zm-8.843 5.478l9.642-5.566-1-1.733-9.642 5.567 1 1.732zm9.863 3.962l-9.863-5.694-1 1.732 9.863 5.694 1-1.732zm-.258 1.836l8.335-2.084-.485-1.94-8.335 2.084.485 1.94zm8.335-2.084a2 2 0 012.425 1.455l1.94-.485a3.999 3.999 0 00-4.85-2.91l.485 1.94zm2.425 1.455a1.999 1.999 0 01-1.455 2.425l.485 1.941a4 4 0 002.91-4.851l-1.94.485zm-1.455 2.425l-2.315.579.485 1.941 2.315-.579-.485-1.941zm-.027 1.576l-1.546-.892-1 1.732 1.546.892 1-1.732zm1.464 5.464a4 4 0 00-1.464-5.464l-1 1.732a2 2 0 01.732 2.732l1.732 1zm-5.464 1.464a4 4 0 005.464-1.464l-1.732-1a2 2 0 01-2.732.732l-1 1.732zm-1.642-.948l1.642.948 1-1.732-1.642-.948-1 1.732zm2.235 1.354l-.779-2.516-1.911.592.78 2.516 1.91-.592zm-2.636 5.005a4 4 0 002.636-5.005l-1.91.592a2 2 0 01-1.318 2.502l.592 1.911zm-5.005-2.637a4 4 0 005.005 2.637l-.592-1.911a2 2 0 01-2.503-1.318l-1.91.592zm-2.7-8.709l2.7 8.709 1.91-.592-2.699-8.709-1.911.592zm-9.135-4.967l9.591 5.537 1-1.732-9.591-5.537-1 1.732zm1.5 9.577v-10.443h-2v10.443h2zm5.644 5.77l-5.907-6.446-1.474 1.352 5.906 6.445 1.475-1.351zm-.247 5.652a4 4 0 00.247-5.652l-1.475 1.351a2 2 0 01-.123 2.826l1.351 1.475zm-5.651-.247a4 4 0 005.651.247l-1.351-1.475a2 2 0 01-2.826-.123l-1.474 1.351zm-1.483-1.618l1.483 1.618 1.474-1.351-1.483-1.619-1.474 1.352zm1.737 1.804v-2.48h-2V388h2zm-4 4a4 4 0 004-4h-2a2 2 0 01-2 2v2zm-4-4a4 4 0 004 4v-2a2 2 0 01-2-2h-2zm0-3.021V388h2v-3.021h-2zm-.249 2.711l1.965-2.012-1.431-1.397-1.965 2.011 1.431 1.398zm-5.656.067a4 4 0 005.656-.067l-1.431-1.398a1.999 1.999 0 01-2.828.034l-1.397 1.431zm-.067-5.656a3.999 3.999 0 00.067 5.656l1.397-1.431a2 2 0 01-.033-2.828l-1.431-1.397zm6.257-6.408l-6.257 6.408 1.431 1.397 6.257-6.408-1.431-1.397zm-.285-9.497v10.195h2v-10.195h-2zm-6.036 5.217l7.536-4.351-1-1.732-7.536 4.351 1 1.732zm-2.346 8.392l2.801-8.96-1.909-.596-2.801 8.959 1.909.597zm-5.011 2.624a4 4 0 005.011-2.624l-1.909-.597a1.999 1.999 0 01-2.505 1.312l-.597 1.909zm-2.624-5.011a3.999 3.999 0 002.624 5.011l.597-1.909a2 2 0 01-1.313-2.505l-1.908-.597zm.856-2.741l-.856 2.741 1.908.597.857-2.741-1.909-.597zm-2.221 3.287l3.676-2.122-1-1.732-3.676 2.122 1 1.732zm-5.465-1.464a4 4 0 005.465 1.464l-1-1.732a2 2 0 01-2.732-.732l-1.733 1zm1.465-5.464a4 4 0 00-1.465 5.464l1.733-1a1.999 1.999 0 01.732-2.732l-1-1.732zm3.293-1.901l-3.293 1.901 1 1.732 3.293-1.901-1-1.732zm-1.835 1.307l2.09.528.49-1.939-2.09-.528-.49 1.939zm-2.899-4.858a4 4 0 002.899 4.858l.49-1.939a2.001 2.001 0 01-1.45-2.429l-1.939-.49zm4.858-2.898a4 4 0 00-4.858 2.898l1.939.49a2 2 0 012.429-1.449l.49-1.939zm8.077 2.04l-8.077-2.04-.49 1.939 8.077 2.04.49-1.939zm7.388-4.592l-8.133 4.696 1 1.732 8.133-4.696-1-1.732zm-8.081-2.934l8.081 4.666 1-1.732-8.081-4.666-1 1.732zm-8.164 2.335l8.907-2.231-.486-1.94-8.906 2.23.485 1.941zm-4.851-2.909a4 4 0 004.851 2.909l-.485-1.941a1.999 1.999 0 01-2.426-1.454l-1.94.486zm2.908-4.852a4 4 0 00-2.908 4.852l1.94-.486a2 2 0 011.454-2.426l-.486-1.94zm2.892-.724l-2.892.724.486 1.94 2.892-.724-.486-1.94zm-3.586-.086l3.329 1.922 1-1.732-3.329-1.922-1 1.732zm-1.465-5.464a4 4 0 001.465 5.464l1-1.732a1.999 1.999 0 01-.732-2.732l-1.733-1zm5.465-1.464a4 4 0 00-5.465 1.464l1.733 1a2 2 0 012.732-.732l1-1.732zm3.554 2.052l-3.554-2.052-1 1.732 3.554 2.052 1-1.732zm-2.546-2.114l1.097 3.296 1.898-.632-1.098-3.296-1.897.632zm2.53-5.059a3.999 3.999 0 00-2.53 5.059l1.897-.632a2 2 0 011.265-2.529l-.632-1.898zm5.059 2.531a4 4 0 00-5.059-2.531l.632 1.898a2 2 0 012.53 1.265l1.897-.632zm3.161 9.487l-3.161-9.487-1.897.632 3.16 9.487 1.898-.632zm.085.291a4.56 4.56 0 00-.085-.291l-1.898.632c.017.049.031.099.043.147l1.94-.488zm7.039 3.714l-7.509-4.336-1 1.732 7.509 4.336 1-1.732zm-1.5-8.345v9.211h2v-9.211h-2zm-6.475-6.194l6.761 6.894 1.428-1.4-6.761-6.894-1.428 1.4zm.055-5.656a3.998 3.998 0 00-.055 5.656l1.428-1.4a1.999 1.999 0 01.027-2.828l-1.4-1.428zm5.656.055a4 4 0 00-5.656-.055l1.4 1.428a2 2 0 012.828.027l1.428-1.4zm2.478 2.526l-2.478-2.526-1.428 1.4 2.478 2.527 1.428-1.401zM173.717 334v4.024h2V334h-2z" fill="#B3E0FB" mask="url(#b)"/><mask id="c" fill="#fff"><path fill-rule="evenodd" clip-rule="evenodd" d="M298.717 296a3 3 0 116 0v4.229l2.59-2.586a3 3 0 014.239 4.246l-6.829 6.818v9.097l9.444-5.452 3.273-8.722a3.001 3.001 0 015.618 2.108l-.709 1.89 1.257-.726a3 3 0 013 5.196l-2.181 1.259 2.78.871a3 3 0 01-1.794 5.726l-8.046-2.521-9.642 5.567 9.863 5.694 8.334-2.084a3 3 0 111.456 5.821l-2.316.579 1.546.892a3 3 0 01-3 5.196l-1.642-.948.78 2.516a3 3 0 11-5.731 1.776l-2.699-8.709-9.591-5.537v10.443l5.907 6.446a3 3 0 01-4.424 4.053l-1.483-1.618V350a3 3 0 11-6 0v-3.021l-1.964 2.012a3 3 0 01-4.293-4.192l6.257-6.408v-10.195l-7.536 4.351-2.8 8.959a3 3 0 01-5.727-1.79l.857-2.74-3.676 2.122a3 3 0 11-3-5.196l3.293-1.901-2.09-.528a3 3 0 111.469-5.818l8.077 2.041 8.133-4.696-8.081-4.666-8.907 2.231a3 3 0 01-1.457-5.821l2.892-.724-3.329-1.922a3 3 0 113-5.196l3.554 2.052-1.098-3.296a3 3 0 015.693-1.896l3.16 9.487c.024.073.046.146.064.219l7.509 4.336v-9.211l-6.761-6.894a3 3 0 114.283-4.201l2.478 2.526V296z"/></mask><path fill-rule="evenodd" clip-rule="evenodd" d="M298.717 296a3 3 0 116 0v4.229l2.59-2.586a3 3 0 014.239 4.246l-6.829 6.818v9.097l9.444-5.452 3.273-8.722a3.001 3.001 0 015.618 2.108l-.709 1.89 1.257-.726a3 3 0 013 5.196l-2.181 1.259 2.78.871a3 3 0 01-1.794 5.726l-8.046-2.521-9.642 5.567 9.863 5.694 8.334-2.084a3 3 0 111.456 5.821l-2.316.579 1.546.892a3 3 0 01-3 5.196l-1.642-.948.78 2.516a3 3 0 11-5.731 1.776l-2.699-8.709-9.591-5.537v10.443l5.907 6.446a3 3 0 01-4.424 4.053l-1.483-1.618V350a3 3 0 11-6 0v-3.021l-1.964 2.012a3 3 0 01-4.293-4.192l6.257-6.408v-10.195l-7.536 4.351-2.8 8.959a3 3 0 01-5.727-1.79l.857-2.74-3.676 2.122a3 3 0 11-3-5.196l3.293-1.901-2.09-.528a3 3 0 111.469-5.818l8.077 2.041 8.133-4.696-8.081-4.666-8.907 2.231a3 3 0 01-1.457-5.821l2.892-.724-3.329-1.922a3 3 0 113-5.196l3.554 2.052-1.098-3.296a3 3 0 015.693-1.896l3.16 9.487c.024.073.046.146.064.219l7.509 4.336v-9.211l-6.761-6.894a3 3 0 114.283-4.201l2.478 2.526V296z" fill="#B3E0FB"/><path d="M304.717 300.229h-1v2.411l1.707-1.704-.707-.707zm2.59-2.586l.706.708-.706-.708zm4.243.004l-.708.706.708-.706zm-.004 4.242l.706.708-.706-.708zm-6.829 6.818l-.706-.708-.294.293v.415h1zm0 9.097h-1v1.732l1.5-.866-.5-.866zm9.444-5.452l.5.866.31-.18.126-.335-.936-.351zm3.273-8.722l-.936-.351.936.351zm3.863-1.755l.352-.936-.352.936zm1.755 3.863l.936.352-.936-.352zm-.709 1.89l-.937-.352-.98 2.613 2.417-1.395-.5-.866zm1.257-.726l-.5-.866.5.866zm4.098 1.098l.866-.5-.866.5zm-1.098 4.098l-.5-.866.5.866zm-2.181 1.259l-.5-.866-1.973 1.14 2.174.681.299-.955zm2.78.871l.299-.954-.299.954zm1.966 3.76l.954.299-.954-.299zm-3.76 1.966l-.299.954.299-.954zm-8.046-2.521l.299-.954-.419-.131-.38.219.5.866zM307.717 323l-.5-.866-1.5.866 1.5.866.5-.866zm9.863 5.694l-.5.866.35.202.392-.098-.242-.97zm8.334-2.084l.243.97-.243-.97zm3.638 2.182l-.97.243.97-.243zm-2.182 3.639l.242.97-.242-.97zm-2.316.579l-.242-.971-2.399.6 2.141 1.237.5-.866zm1.546.892l.5-.866-.5.866zm1.098 4.098l-.866-.5.866.5zm-4.098 1.098l.5-.866-.5.866zm-1.642-.948l.5-.866-2.211-1.276.756 2.438.955-.296zm.78 2.516l.955-.296-.955.296zm-1.977 3.753l-.296-.955.296.955zm-3.754-1.977l.955-.296-.955.296zm-2.699-8.709l.955-.296-.116-.374-.339-.196-.5.866zm-9.591-5.537l.5-.866-1.5-.866v1.732h1zm0 10.443h-1v.389l.263.287.737-.676zm5.907 6.446l-.738.675.738-.675zm-.185 4.238l.675.738-.675-.738zm-4.239-.185l.737-.675-.737.675zm-1.483-1.618l.737-.676-1.737-1.895v2.571h1zm-6-.541h1v-2.455l-1.715 1.757.715.698zm-1.964 2.012l-.716-.699.716.699zm-4.242.051l-.699.715.699-.715zm-.051-4.243l.716.699-.716-.699zm6.257-6.408l.716.699.284-.291v-.408h-1zm0-10.195h1v-1.732l-1.5.866.5.866zm-7.536 4.351l-.5-.866-.338.195-.116.373.954.298zm-2.8 8.959l-.955-.298.955.298zm-5.727-1.79l.954.299-.954-.299zm.857-2.74l.954.298.765-2.445-2.219 1.281.5.866zm-3.676 2.122l.5.866-.5-.866zM275.736 338l-.866.5.866-.5zm1.099-4.098l-.5-.866.5.866zm3.293-1.901l.5.866 2.134-1.232-2.389-.604-.245.97zm-2.09-.528l.245-.97-.245.97zm-2.174-3.644l-.97-.245.97.245zm3.643-2.174l.245-.969-.245.969zm8.077 2.041l-.245.969.394.1.351-.203-.5-.866zm8.133-4.696l.5.866 1.5-.866-1.5-.866-.5.866zm-8.081-4.666l.5-.866-.351-.202-.392.098.243.97zm-8.907 2.231l.243.97-.243-.97zm-1.457-5.821l-.243-.97.243.97zm2.892-.724l.243.97 2.397-.6-2.14-1.236-.5.866zm-3.329-1.922l.5-.866-.5.866zM275.736 308l.867.5-.867-.5zm4.099-1.098l.5-.866-.5.866zm3.554 2.052l-.5.866 2.281 1.317-.832-2.499-.949.316zm-1.098-3.296l.949-.316-.949.316zm1.898-3.794l.316.949-.316-.949zm3.795 1.898l-.949.316.949-.316zm3.16 9.487l-.949.316.949-.316zm.064.219l-.97.244.104.411.366.211.5-.866zm7.509 4.336l-.5.866 1.5.866v-1.732h-1zm0-9.211h1v-.408l-.286-.292-.714.7zm-6.761-6.894l-.714.7.714-.7zm.041-4.242l-.7-.714.7.714zm4.242.041l-.714.7.714-.7zm2.478 2.526l-.714.701 1.714 1.747v-2.448h-1zm3-8.024a4 4 0 00-4 4h2a2 2 0 012-2v-2zm4 4a4 4 0 00-4-4v2a2 2 0 012 2h2zm0 4.229V296h-2v4.229h2zm.883-3.293l-2.589 2.585 1.413 1.415 2.589-2.585-1.413-1.415zm5.657.004a4 4 0 00-5.657-.004l1.413 1.415a2.002 2.002 0 012.829.002l1.415-1.413zm-.005 5.657a4 4 0 00.005-5.657l-1.415 1.413a2 2 0 01-.003 2.829l1.413 1.415zm-6.828 6.817l6.828-6.817-1.413-1.415-6.828 6.817 1.413 1.415zm.293 8.39v-9.097h-2v9.097h2zm7.944-6.318l-9.444 5.452 1 1.732 9.444-5.452-1-1.732zm2.837-8.207L313.225 312l1.872.703 3.274-8.722-1.873-.702zm5.151-2.34a4 4 0 00-5.151 2.34l1.873.702a2 2 0 012.575-1.169l.703-1.873zm2.339 5.151a4.001 4.001 0 00-2.339-5.151l-.703 1.873a2 2 0 011.17 2.575l1.872.703zm-.709 1.889l.709-1.889-1.872-.703-.71 1.889 1.873.703zm-.179-1.943l-1.257.726 1 1.732 1.257-.726-1-1.732zm5.464 1.464a4 4 0 00-5.464-1.464l1 1.732a2 2 0 012.732.732l1.732-1zm-1.464 5.464a4 4 0 001.464-5.464l-1.732 1a2 2 0 01-.732 2.732l1 1.732zm-2.181 1.259l2.181-1.259-1-1.732-2.181 1.259 1 1.732zm2.579-.949l-2.78-.871-.598 1.909 2.78.87.598-1.908zm2.621 5.013a4 4 0 00-2.621-5.013l-.598 1.908a2.001 2.001 0 011.311 2.507l1.908.598zm-5.013 2.621a4 4 0 005.013-2.621l-1.908-.598a2 2 0 01-2.507 1.31l-.598 1.909zm-8.046-2.52l8.046 2.52.598-1.909-8.046-2.52-.598 1.909zm-8.843 5.478l9.642-5.566-1-1.733-9.642 5.567 1 1.732zm9.863 3.962l-9.863-5.694-1 1.732 9.863 5.694 1-1.732zm-.258 1.836l8.335-2.084-.485-1.94-8.335 2.084.485 1.94zm8.335-2.084a2 2 0 012.425 1.455l1.94-.485a3.999 3.999 0 00-4.85-2.91l.485 1.94zm2.425 1.455a1.999 1.999 0 01-1.455 2.425l.485 1.941a4 4 0 002.91-4.851l-1.94.485zm-1.455 2.425l-2.315.579.485 1.941 2.315-.579-.485-1.941zm-.027 1.576l-1.546-.892-1 1.732 1.546.892 1-1.732zm1.464 5.464a4 4 0 00-1.464-5.464l-1 1.732a2 2 0 01.732 2.732l1.732 1zm-5.464 1.464a4 4 0 005.464-1.464l-1.732-1a2 2 0 01-2.732.732l-1 1.732zm-1.642-.948l1.642.948 1-1.732-1.642-.948-1 1.732zm2.235 1.354l-.779-2.516-1.911.592.78 2.516 1.91-.592zm-2.636 5.005a4 4 0 002.636-5.005l-1.91.592a2 2 0 01-1.318 2.502l.592 1.911zm-5.005-2.637a4 4 0 005.005 2.637l-.592-1.911a2 2 0 01-2.503-1.318l-1.91.592zm-2.7-8.709l2.7 8.709 1.91-.592-2.699-8.709-1.911.592zm-9.135-4.967l9.591 5.537 1-1.732-9.591-5.537-1 1.732zm1.5 9.577v-10.443h-2v10.443h2zm5.644 5.77l-5.907-6.446-1.474 1.352 5.906 6.445 1.475-1.351zm-.247 5.652a4 4 0 00.247-5.652l-1.475 1.351a2 2 0 01-.123 2.826l1.351 1.475zm-5.651-.247a4 4 0 005.651.247l-1.351-1.475a2 2 0 01-2.826-.123l-1.474 1.351zm-1.483-1.618l1.483 1.618 1.474-1.351-1.483-1.619-1.474 1.352zm1.737 1.804v-2.48h-2V350h2zm-4 4a4 4 0 004-4h-2a2 2 0 01-2 2v2zm-4-4a4 4 0 004 4v-2a2 2 0 01-2-2h-2zm0-3.021V350h2v-3.021h-2zm-.249 2.711l1.965-2.012-1.431-1.397-1.965 2.011 1.431 1.398zm-5.656.067a4 4 0 005.656-.067l-1.431-1.398a1.999 1.999 0 01-2.828.034l-1.397 1.431zm-.067-5.656a3.999 3.999 0 00.067 5.656l1.397-1.431a2 2 0 01-.033-2.828l-1.431-1.397zm6.257-6.408l-6.257 6.408 1.431 1.397 6.257-6.408-1.431-1.397zm-.285-9.497v10.195h2v-10.195h-2zm-6.036 5.217l7.536-4.351-1-1.732-7.536 4.351 1 1.732zm-2.346 8.392l2.801-8.96-1.909-.596-2.801 8.959 1.909.597zm-5.011 2.624a4 4 0 005.011-2.624l-1.909-.597a1.999 1.999 0 01-2.505 1.312l-.597 1.909zm-2.624-5.011a3.999 3.999 0 002.624 5.011l.597-1.909a2 2 0 01-1.313-2.505l-1.908-.597zm.856-2.741l-.856 2.741 1.908.597.857-2.741-1.909-.597zm-2.221 3.287l3.676-2.122-1-1.732-3.676 2.122 1 1.732zm-5.465-1.464a4 4 0 005.465 1.464l-1-1.732a2 2 0 01-2.732-.732l-1.733 1zm1.465-5.464a4 4 0 00-1.465 5.464l1.733-1a1.999 1.999 0 01.732-2.732l-1-1.732zm3.293-1.901l-3.293 1.901 1 1.732 3.293-1.901-1-1.732zm-1.835 1.307l2.09.528.49-1.939-2.09-.528-.49 1.939zm-2.899-4.858a4 4 0 002.899 4.858l.49-1.939a2.001 2.001 0 01-1.45-2.429l-1.939-.49zm4.858-2.898a4 4 0 00-4.858 2.898l1.939.49a2 2 0 012.429-1.449l.49-1.939zm8.077 2.04l-8.077-2.04-.49 1.939 8.077 2.04.49-1.939zm7.388-4.592l-8.133 4.696 1 1.732 8.133-4.696-1-1.732zm-8.081-2.934l8.081 4.666 1-1.732-8.081-4.666-1 1.732zm-8.164 2.335l8.907-2.231-.486-1.94-8.906 2.23.485 1.941zm-4.851-2.909a4 4 0 004.851 2.909l-.485-1.941a1.999 1.999 0 01-2.426-1.454l-1.94.486zm2.908-4.852a4 4 0 00-2.908 4.852l1.94-.486a2 2 0 011.454-2.426l-.486-1.94zm2.892-.724l-2.892.724.486 1.94 2.892-.724-.486-1.94zm-3.586-.086l3.329 1.922 1-1.732-3.329-1.922-1 1.732zm-1.465-5.464a4 4 0 001.465 5.464l1-1.732a1.999 1.999 0 01-.732-2.732l-1.733-1zm5.465-1.464a4 4 0 00-5.465 1.464l1.733 1a2 2 0 012.732-.732l1-1.732zm3.554 2.052l-3.554-2.052-1 1.732 3.554 2.052 1-1.732zm-2.546-2.114l1.097 3.296 1.898-.632-1.098-3.296-1.897.632zm2.53-5.059a3.999 3.999 0 00-2.53 5.059l1.897-.632a2 2 0 011.265-2.529l-.632-1.898zm5.059 2.531a4 4 0 00-5.059-2.531l.632 1.898a2 2 0 012.53 1.265l1.897-.632zm3.161 9.487l-3.161-9.487-1.897.632 3.16 9.487 1.898-.632zm.085.291a4.56 4.56 0 00-.085-.291l-1.898.632c.017.049.031.099.043.147l1.94-.488zm7.039 3.714l-7.509-4.336-1 1.732 7.509 4.336 1-1.732zm-1.5-8.345v9.211h2v-9.211h-2zm-6.475-6.194l6.761 6.894 1.428-1.4-6.761-6.894-1.428 1.4zm.055-5.656a3.998 3.998 0 00-.055 5.656l1.428-1.4a1.999 1.999 0 01.027-2.828l-1.4-1.428zm5.656.055a4 4 0 00-5.656-.055l1.4 1.428a2 2 0 012.828.027l1.428-1.4zm2.478 2.526l-2.478-2.526-1.428 1.4 2.478 2.527 1.428-1.401zM297.717 296v4.024h2V296h-2z" fill="#B3E0FB" mask="url(#c)"/><mask id="d" fill="#fff"><path fill-rule="evenodd" clip-rule="evenodd" d="M256.717 364a3 3 0 116 0v4.229l2.59-2.586a3 3 0 014.239 4.246l-6.829 6.818v9.097l9.444-5.452 3.273-8.722a3.001 3.001 0 015.618 2.108l-.709 1.89 1.257-.726a3 3 0 013 5.196l-2.181 1.259 2.78.871a3 3 0 01-1.794 5.726l-8.046-2.521-9.642 5.567 9.863 5.694 8.334-2.084a3 3 0 111.456 5.821l-2.316.579 1.546.892a3 3 0 01-3 5.196l-1.642-.948.78 2.516a3 3 0 11-5.731 1.776l-2.699-8.709-9.591-5.537v10.443l5.907 6.446a3 3 0 01-4.424 4.053l-1.483-1.618V418a3 3 0 11-6 0v-3.021l-1.964 2.012a3 3 0 01-4.293-4.192l6.257-6.408v-10.195l-7.536 4.351-2.8 8.959a3 3 0 01-5.727-1.79l.857-2.74-3.676 2.122a3 3 0 11-3-5.196l3.293-1.901-2.09-.528a3 3 0 111.469-5.818l8.077 2.041 8.133-4.696-8.081-4.666-8.907 2.231a3 3 0 01-1.457-5.821l2.892-.724-3.329-1.922a3 3 0 113-5.196l3.554 2.052-1.098-3.296a3 3 0 015.693-1.896l3.16 9.487c.024.073.046.146.064.219l7.509 4.336v-9.211l-6.761-6.894a3 3 0 114.283-4.201l2.478 2.526V364z"/></mask><path fill-rule="evenodd" clip-rule="evenodd" d="M256.717 364a3 3 0 116 0v4.229l2.59-2.586a3 3 0 014.239 4.246l-6.829 6.818v9.097l9.444-5.452 3.273-8.722a3.001 3.001 0 015.618 2.108l-.709 1.89 1.257-.726a3 3 0 013 5.196l-2.181 1.259 2.78.871a3 3 0 01-1.794 5.726l-8.046-2.521-9.642 5.567 9.863 5.694 8.334-2.084a3 3 0 111.456 5.821l-2.316.579 1.546.892a3 3 0 01-3 5.196l-1.642-.948.78 2.516a3 3 0 11-5.731 1.776l-2.699-8.709-9.591-5.537v10.443l5.907 6.446a3 3 0 01-4.424 4.053l-1.483-1.618V418a3 3 0 11-6 0v-3.021l-1.964 2.012a3 3 0 01-4.293-4.192l6.257-6.408v-10.195l-7.536 4.351-2.8 8.959a3 3 0 01-5.727-1.79l.857-2.74-3.676 2.122a3 3 0 11-3-5.196l3.293-1.901-2.09-.528a3 3 0 111.469-5.818l8.077 2.041 8.133-4.696-8.081-4.666-8.907 2.231a3 3 0 01-1.457-5.821l2.892-.724-3.329-1.922a3 3 0 113-5.196l3.554 2.052-1.098-3.296a3 3 0 015.693-1.896l3.16 9.487c.024.073.046.146.064.219l7.509 4.336v-9.211l-6.761-6.894a3 3 0 114.283-4.201l2.478 2.526V364z" fill="#B3E0FB"/><path d="M262.717 368.229h-1v2.411l1.707-1.704-.707-.707zm2.59-2.586l.706.708-.706-.708zm4.243.004l-.708.706.708-.706zm-.004 4.242l.706.708-.706-.708zm-6.829 6.818l-.706-.708-.294.293v.415h1zm0 9.097h-1v1.732l1.5-.866-.5-.866zm9.444-5.452l.5.866.31-.18.126-.335-.936-.351zm3.273-8.722l-.936-.351.936.351zm3.863-1.755l.352-.936-.352.936zm1.755 3.863l.936.352-.936-.352zm-.709 1.89l-.937-.352-.98 2.613 2.417-1.395-.5-.866zm1.257-.726l-.5-.866.5.866zm4.098 1.098l.866-.5-.866.5zm-1.098 4.098l-.5-.866.5.866zm-2.181 1.259l-.5-.866-1.973 1.14 2.174.681.299-.955zm2.78.871l.299-.954-.299.954zm1.966 3.76l.954.299-.954-.299zm-3.76 1.966l-.299.954.299-.954zm-8.046-2.521l.299-.954-.419-.131-.38.219.5.866zM265.717 391l-.5-.866-1.5.866 1.5.866.5-.866zm9.863 5.694l-.5.866.35.202.392-.098-.242-.97zm8.334-2.084l.243.97-.243-.97zm3.638 2.182l-.97.243.97-.243zm-2.182 3.639l.242.97-.242-.97zm-2.316.579l-.242-.971-2.399.6 2.141 1.237.5-.866zm1.546.892l.5-.866-.5.866zm1.098 4.098l-.866-.5.866.5zm-4.098 1.098l.5-.866-.5.866zm-1.642-.948l.5-.866-2.211-1.276.756 2.438.955-.296zm.78 2.516l.955-.296-.955.296zm-1.977 3.753l-.296-.955.296.955zm-3.754-1.977l.955-.296-.955.296zm-2.699-8.709l.955-.296-.116-.374-.339-.196-.5.866zm-9.591-5.537l.5-.866-1.5-.866v1.732h1zm0 10.443h-1v.389l.263.287.737-.676zm5.907 6.446l-.738.675.738-.675zm-.185 4.238l.675.738-.675-.738zm-4.239-.185l.737-.675-.737.675zm-1.483-1.618l.737-.676-1.737-1.895v2.571h1zm-6-.541h1v-2.455l-1.715 1.757.715.698zm-1.964 2.012l-.716-.699.716.699zm-4.242.051l-.699.715.699-.715zm-.051-4.243l.716.699-.716-.699zm6.257-6.408l.716.699.284-.291v-.408h-1zm0-10.195h1v-1.732l-1.5.866.5.866zm-7.536 4.351l-.5-.866-.338.195-.116.373.954.298zm-2.8 8.959l-.955-.298.955.298zm-5.727-1.79l.954.299-.954-.299zm.857-2.74l.954.298.765-2.445-2.219 1.281.5.866zm-3.676 2.122l.5.866-.5-.866zM233.736 406l-.866.5.866-.5zm1.099-4.098l-.5-.866.5.866zm3.293-1.901l.5.866 2.134-1.232-2.389-.604-.245.97zm-2.09-.528l.245-.97-.245.97zm-2.174-3.644l-.97-.245.97.245zm3.643-2.174l.245-.969-.245.969zm8.077 2.041l-.245.969.394.1.351-.203-.5-.866zm8.133-4.696l.5.866 1.5-.866-1.5-.866-.5.866zm-8.081-4.666l.5-.866-.351-.202-.392.098.243.97zm-8.907 2.231l.243.97-.243-.97zm-1.457-5.821l-.243-.97.243.97zm2.892-.724l.243.97 2.397-.6-2.14-1.236-.5.866zm-3.329-1.922l.5-.866-.5.866zM233.736 376l.867.5-.867-.5zm4.099-1.098l.5-.866-.5.866zm3.554 2.052l-.5.866 2.281 1.317-.832-2.499-.949.316zm-1.098-3.296l.949-.316-.949.316zm1.898-3.794l.316.949-.316-.949zm3.795 1.898l-.949.316.949-.316zm3.16 9.487l-.949.316.949-.316zm.064.219l-.97.244.104.411.366.211.5-.866zm7.509 4.336l-.5.866 1.5.866v-1.732h-1zm0-9.211h1v-.408l-.286-.292-.714.7zm-6.761-6.894l-.714.7.714-.7zm.041-4.242l-.7-.714.7.714zm4.242.041l-.714.7.714-.7zm2.478 2.526l-.714.701 1.714 1.747v-2.448h-1zm3-8.024a4 4 0 00-4 4h2a2 2 0 012-2v-2zm4 4a4 4 0 00-4-4v2a2 2 0 012 2h2zm0 4.229V364h-2v4.229h2zm.883-3.293l-2.589 2.585 1.413 1.415 2.589-2.585-1.413-1.415zm5.657.004a4 4 0 00-5.657-.004l1.413 1.415a2.002 2.002 0 012.829.002l1.415-1.413zm-.005 5.657a4 4 0 00.005-5.657l-1.415 1.413a2 2 0 01-.003 2.829l1.413 1.415zm-6.828 6.817l6.828-6.817-1.413-1.415-6.828 6.817 1.413 1.415zm.293 8.39v-9.097h-2v9.097h2zm7.944-6.318l-9.444 5.452 1 1.732 9.444-5.452-1-1.732zm2.837-8.207L271.225 380l1.872.703 3.274-8.722-1.873-.702zm5.151-2.34a4 4 0 00-5.151 2.34l1.873.702a2 2 0 012.575-1.169l.703-1.873zm2.339 5.151a4.001 4.001 0 00-2.339-5.151l-.703 1.873a2 2 0 011.17 2.575l1.872.703zm-.709 1.889l.709-1.889-1.872-.703-.71 1.889 1.873.703zm-.179-1.943l-1.257.726 1 1.732 1.257-.726-1-1.732zm5.464 1.464a4 4 0 00-5.464-1.464l1 1.732a2 2 0 012.732.732l1.732-1zm-1.464 5.464a4 4 0 001.464-5.464l-1.732 1a2 2 0 01-.732 2.732l1 1.732zm-2.181 1.259l2.181-1.259-1-1.732-2.181 1.259 1 1.732zm2.579-.949l-2.78-.871-.598 1.909 2.78.87.598-1.908zm2.621 5.013a4 4 0 00-2.621-5.013l-.598 1.908a2.001 2.001 0 011.311 2.507l1.908.598zm-5.013 2.621a4 4 0 005.013-2.621l-1.908-.598a2 2 0 01-2.507 1.31l-.598 1.909zm-8.046-2.52l8.046 2.52.598-1.909-8.046-2.52-.598 1.909zm-8.843 5.478l9.642-5.566-1-1.733-9.642 5.567 1 1.732zm9.863 3.962l-9.863-5.694-1 1.732 9.863 5.694 1-1.732zm-.258 1.836l8.335-2.084-.485-1.94-8.335 2.084.485 1.94zm8.335-2.084a2 2 0 012.425 1.455l1.94-.485a3.999 3.999 0 00-4.85-2.91l.485 1.94zm2.425 1.455a1.999 1.999 0 01-1.455 2.425l.485 1.941a4 4 0 002.91-4.851l-1.94.485zm-1.455 2.425l-2.315.579.485 1.941 2.315-.579-.485-1.941zm-.027 1.576l-1.546-.892-1 1.732 1.546.892 1-1.732zm1.464 5.464a4 4 0 00-1.464-5.464l-1 1.732a2 2 0 01.732 2.732l1.732 1zm-5.464 1.464a4 4 0 005.464-1.464l-1.732-1a2 2 0 01-2.732.732l-1 1.732zm-1.642-.948l1.642.948 1-1.732-1.642-.948-1 1.732zm2.235 1.354l-.779-2.516-1.911.592.78 2.516 1.91-.592zm-2.636 5.005a4 4 0 002.636-5.005l-1.91.592a2 2 0 01-1.318 2.502l.592 1.911zm-5.005-2.637a4 4 0 005.005 2.637l-.592-1.911a2 2 0 01-2.503-1.318l-1.91.592zm-2.7-8.709l2.7 8.709 1.91-.592-2.699-8.709-1.911.592zm-9.135-4.967l9.591 5.537 1-1.732-9.591-5.537-1 1.732zm1.5 9.577v-10.443h-2v10.443h2zm5.644 5.77l-5.907-6.446-1.474 1.352 5.906 6.445 1.475-1.351zm-.247 5.652a4 4 0 00.247-5.652l-1.475 1.351a2 2 0 01-.123 2.826l1.351 1.475zm-5.651-.247a4 4 0 005.651.247l-1.351-1.475a2 2 0 01-2.826-.123l-1.474 1.351zm-1.483-1.618l1.483 1.618 1.474-1.351-1.483-1.619-1.474 1.352zm1.737 1.804v-2.48h-2V418h2zm-4 4a4 4 0 004-4h-2a2 2 0 01-2 2v2zm-4-4a4 4 0 004 4v-2a2 2 0 01-2-2h-2zm0-3.021V418h2v-3.021h-2zm-.249 2.711l1.965-2.012-1.431-1.397-1.965 2.011 1.431 1.398zm-5.656.067a4 4 0 005.656-.067l-1.431-1.398a1.999 1.999 0 01-2.828.034l-1.397 1.431zm-.067-5.656a3.999 3.999 0 00.067 5.656l1.397-1.431a2 2 0 01-.033-2.828l-1.431-1.397zm6.257-6.408l-6.257 6.408 1.431 1.397 6.257-6.408-1.431-1.397zm-.285-9.497v10.195h2v-10.195h-2zm-6.036 5.217l7.536-4.351-1-1.732-7.536 4.351 1 1.732zm-2.346 8.392l2.801-8.96-1.909-.596-2.801 8.959 1.909.597zm-5.011 2.624a4 4 0 005.011-2.624l-1.909-.597a1.999 1.999 0 01-2.505 1.312l-.597 1.909zm-2.624-5.011a3.999 3.999 0 002.624 5.011l.597-1.909a2 2 0 01-1.313-2.505l-1.908-.597zm.856-2.741l-.856 2.741 1.908.597.857-2.741-1.909-.597zm-2.221 3.287l3.676-2.122-1-1.732-3.676 2.122 1 1.732zm-5.465-1.464a4 4 0 005.465 1.464l-1-1.732a2 2 0 01-2.732-.732l-1.733 1zm1.465-5.464a4 4 0 00-1.465 5.464l1.733-1a1.999 1.999 0 01.732-2.732l-1-1.732zm3.293-1.901l-3.293 1.901 1 1.732 3.293-1.901-1-1.732zm-1.835 1.307l2.09.528.49-1.939-2.09-.528-.49 1.939zm-2.899-4.858a4 4 0 002.899 4.858l.49-1.939a2.001 2.001 0 01-1.45-2.429l-1.939-.49zm4.858-2.898a4 4 0 00-4.858 2.898l1.939.49a2 2 0 012.429-1.449l.49-1.939zm8.077 2.04l-8.077-2.04-.49 1.939 8.077 2.04.49-1.939zm7.388-4.592l-8.133 4.696 1 1.732 8.133-4.696-1-1.732zm-8.081-2.934l8.081 4.666 1-1.732-8.081-4.666-1 1.732zm-8.164 2.335l8.907-2.231-.486-1.94-8.906 2.23.485 1.941zm-4.851-2.909a4 4 0 004.851 2.909l-.485-1.941a1.999 1.999 0 01-2.426-1.454l-1.94.486zm2.908-4.852a4 4 0 00-2.908 4.852l1.94-.486a2 2 0 011.454-2.426l-.486-1.94zm2.892-.724l-2.892.724.486 1.94 2.892-.724-.486-1.94zm-3.586-.086l3.329 1.922 1-1.732-3.329-1.922-1 1.732zm-1.465-5.464a4 4 0 001.465 5.464l1-1.732a1.999 1.999 0 01-.732-2.732l-1.733-1zm5.465-1.464a4 4 0 00-5.465 1.464l1.733 1a2 2 0 012.732-.732l1-1.732zm3.554 2.052l-3.554-2.052-1 1.732 3.554 2.052 1-1.732zm-2.546-2.114l1.097 3.296 1.898-.632-1.098-3.296-1.897.632zm2.53-5.059a3.999 3.999 0 00-2.53 5.059l1.897-.632a2 2 0 011.265-2.529l-.632-1.898zm5.059 2.531a4 4 0 00-5.059-2.531l.632 1.898a2 2 0 012.53 1.265l1.897-.632zm3.161 9.487l-3.161-9.487-1.897.632 3.16 9.487 1.898-.632zm.085.291a4.56 4.56 0 00-.085-.291l-1.898.632c.017.049.031.099.043.147l1.94-.488zm7.039 3.714l-7.509-4.336-1 1.732 7.509 4.336 1-1.732zm-1.5-8.345v9.211h2v-9.211h-2zm-6.475-6.194l6.761 6.894 1.428-1.4-6.761-6.894-1.428 1.4zm.055-5.656a3.998 3.998 0 00-.055 5.656l1.428-1.4a1.999 1.999 0 01.027-2.828l-1.4-1.428zm5.656.055a4 4 0 00-5.656-.055l1.4 1.428a2 2 0 012.828.027l1.428-1.4zm2.478 2.526l-2.478-2.526-1.428 1.4 2.478 2.527 1.428-1.401zM255.717 364v4.024h2V364h-2z" fill="#B3E0FB" mask="url(#d)"/><mask id="e" fill="#fff"><path fill-rule="evenodd" clip-rule="evenodd" d="M92.717 364a3 3 0 116 0v4.229l2.59-2.586a3 3 0 014.239 4.246l-6.829 6.818v9.097l9.444-5.452 3.273-8.722a3.001 3.001 0 015.618 2.108l-.709 1.89 1.257-.726a3 3 0 013 5.196l-2.181 1.259 2.78.871a3 3 0 01-1.794 5.726l-8.046-2.521-9.642 5.567 9.863 5.694 8.334-2.084a3 3 0 111.456 5.821l-2.316.579 1.546.892a3 3 0 01-3 5.196l-1.642-.948.78 2.516a3 3 0 11-5.731 1.776l-2.699-8.709-9.59-5.537v10.443l5.906 6.446a3 3 0 01-4.424 4.053l-1.483-1.618V418a3 3 0 11-6 0v-3.021l-1.964 2.012a3.001 3.001 0 01-4.293-4.192l6.257-6.408v-10.195l-7.536 4.351-2.8 8.959a3 3 0 11-5.727-1.79l.857-2.74-3.676 2.122a3 3 0 11-3-5.196l3.293-1.901-2.09-.528a3 3 0 011.47-5.818l8.076 2.041L89.717 391l-8.081-4.666-8.906 2.231a3.001 3.001 0 01-1.458-5.821l2.892-.724-3.33-1.922a3 3 0 113-5.196l3.555 2.052-1.098-3.296a3 3 0 115.693-1.896l3.16 9.487c.024.073.046.146.064.219l7.51 4.336v-9.211l-6.762-6.894a3 3 0 114.283-4.201l2.478 2.526V364z"/></mask><path fill-rule="evenodd" clip-rule="evenodd" d="M92.717 364a3 3 0 116 0v4.229l2.59-2.586a3 3 0 014.239 4.246l-6.829 6.818v9.097l9.444-5.452 3.273-8.722a3.001 3.001 0 015.618 2.108l-.709 1.89 1.257-.726a3 3 0 013 5.196l-2.181 1.259 2.78.871a3 3 0 01-1.794 5.726l-8.046-2.521-9.642 5.567 9.863 5.694 8.334-2.084a3 3 0 111.456 5.821l-2.316.579 1.546.892a3 3 0 01-3 5.196l-1.642-.948.78 2.516a3 3 0 11-5.731 1.776l-2.699-8.709-9.59-5.537v10.443l5.906 6.446a3 3 0 01-4.424 4.053l-1.483-1.618V418a3 3 0 11-6 0v-3.021l-1.964 2.012a3.001 3.001 0 01-4.293-4.192l6.257-6.408v-10.195l-7.536 4.351-2.8 8.959a3 3 0 11-5.727-1.79l.857-2.74-3.676 2.122a3 3 0 11-3-5.196l3.293-1.901-2.09-.528a3 3 0 011.47-5.818l8.076 2.041L89.717 391l-8.081-4.666-8.906 2.231a3.001 3.001 0 01-1.458-5.821l2.892-.724-3.33-1.922a3 3 0 113-5.196l3.555 2.052-1.098-3.296a3 3 0 115.693-1.896l3.16 9.487c.024.073.046.146.064.219l7.51 4.336v-9.211l-6.762-6.894a3 3 0 114.283-4.201l2.478 2.526V364z" fill="#B3E0FB"/><path d="M98.717 368.229h-1v2.411l1.707-1.704-.707-.707zm2.59-2.586l.706.708-.706-.708zm4.243.004l-.708.706.708-.706zm-.004 4.242l.706.708-.706-.708zm-6.829 6.818l-.706-.708-.294.293v.415h1zm0 9.097h-1v1.732l1.5-.866-.5-.866zm9.444-5.452l.5.866.31-.18.126-.335-.936-.351zm3.273-8.722l-.936-.351.936.351zm3.863-1.755l.352-.936-.352.936zm1.755 3.863l.936.352-.936-.352zm-.709 1.89l-.937-.352-.98 2.613 2.417-1.395-.5-.866zm1.257-.726l-.5-.866.5.866zm4.098 1.098l.866-.5-.866.5zm-1.098 4.098l-.5-.866.5.866zm-2.181 1.259l-.5-.866-1.973 1.14 2.174.681.299-.955zm2.78.871l.299-.954-.299.954zm1.966 3.76l.954.299-.954-.299zm-3.76 1.966l-.299.954.299-.954zm-8.046-2.521l.299-.954-.419-.131-.38.219.5.866zM101.717 391l-.5-.866-1.5.866 1.5.866.5-.866zm9.863 5.694l-.5.866.35.202.392-.098-.242-.97zm8.334-2.084l.243.97-.243-.97zm3.638 2.182l-.97.243.97-.243zm-2.182 3.639l.242.97-.242-.97zm-2.316.579l-.242-.971-2.399.6 2.141 1.237.5-.866zm1.546.892l.5-.866-.5.866zm1.098 4.098l-.866-.5.866.5zm-4.098 1.098l.5-.866-.5.866zm-1.642-.948l.5-.866-2.211-1.276.756 2.438.955-.296zm.78 2.516l.955-.296-.955.296zm-1.977 3.753l-.296-.955.296.955zm-3.754-1.977l.955-.296-.955.296zm-2.699-8.709l.955-.296-.116-.374-.339-.196-.5.866zm-9.59-5.537l.5-.866-1.5-.866v1.732h1zm0 10.443h-1v.389l.262.287.737-.676zm5.906 6.446l-.738.675.738-.675zm-.185 4.238l.675.738-.675-.738zm-4.239-.185l.737-.675-.737.675zm-1.483-1.618l.737-.676-1.737-1.895v2.571h1zm-6-.541h1v-2.455l-1.715 1.757.715.698zm-1.964 2.012l-.716-.699.716.699zm-4.243.051l-.698.715.698-.715zm-.05-4.243l.716.699-.716-.699zm6.257-6.408l.716.699.284-.291v-.408h-1zm0-10.195h1v-1.732l-1.5.866.5.866zm-7.536 4.351l-.5-.866-.338.195-.116.373.954.298zm-2.8 8.959l-.955-.298.955.298zm-5.727-1.79l.955.299-.955-.299zm.857-2.74l.954.298.765-2.445-2.22 1.281.5.866zm-3.676 2.122l.5.866-.5-.866zM69.737 406l-.866.5.866-.5zm1.098-4.098l-.5-.866.5.866zm3.293-1.901l.5.866 2.134-1.232-2.39-.604-.244.97zm-2.09-.528l.245-.97-.245.97zm-2.174-3.644l-.97-.245.97.245zm3.643-2.174l.245-.969-.245.969zm8.077 2.041l-.245.969.394.1.351-.203-.5-.866zM89.717 391l.5.866 1.5-.866-1.5-.866-.5.866zm-8.081-4.666l.5-.866-.35-.202-.393.098.243.97zm-8.906 2.231l.242.97-.242-.97zm-1.458-5.821l-.243-.97.243.97zm2.892-.724l.243.97 2.397-.6-2.14-1.236-.5.866zm-3.33-1.922l.5-.866-.5.866zM69.738 376l.866.5-.866-.5zm4.098-1.098l.5-.866-.5.866zm3.554 2.052l-.5.866 2.282 1.317-.833-2.499-.949.316zm-1.098-3.296l.949-.316-.949.316zm1.898-3.794l.316.949-.316-.949zm3.795 1.898l-.949.316.949-.316zm3.16 9.487l-.949.316.95-.316zm.064.219l-.97.244.104.411.366.211.5-.866zm7.51 4.336l-.5.866 1.5.866v-1.732h-1zm0-9.211h1v-.408l-.287-.292-.714.7zm-6.762-6.894l-.714.7.714-.7zm.04-4.242l-.7-.714.7.714zm4.243.041l-.714.7.714-.7zm2.478 2.526l-.714.701 1.714 1.747v-2.448h-1zm3-8.024a4 4 0 00-4 4h2a2 2 0 012-2v-2zm4 4a4 4 0 00-4-4v2a2 2 0 012 2h2zm0 4.229V364h-2v4.229h2zm.883-3.293l-2.59 2.585 1.414 1.415 2.589-2.585-1.413-1.415zm5.657.004a4 4 0 00-5.657-.004l1.413 1.415a2.002 2.002 0 012.829.002l1.415-1.413zm-.005 5.657a4 4 0 00.005-5.657l-1.415 1.413a2 2 0 01-.003 2.829l1.413 1.415zm-6.828 6.817l6.828-6.817-1.413-1.415-6.828 6.817 1.413 1.415zm.293 8.39v-9.097h-2v9.097h2zm7.944-6.318l-9.444 5.452 1 1.732 9.444-5.452-1-1.732zm2.837-8.207L107.225 380l1.872.703 3.274-8.722-1.873-.702zm5.151-2.34a4 4 0 00-5.151 2.34l1.873.702a2 2 0 012.575-1.169l.703-1.873zm2.339 5.151a4.001 4.001 0 00-2.339-5.151l-.703 1.873a2 2 0 011.17 2.575l1.872.703zm-.709 1.889l.709-1.889-1.872-.703-.71 1.889 1.873.703zm-.179-1.943l-1.257.726 1 1.732 1.257-.726-1-1.732zm5.464 1.464a4 4 0 00-5.464-1.464l1 1.732a2 2 0 012.732.732l1.732-1zm-1.464 5.464a4 4 0 001.464-5.464l-1.732 1a2 2 0 01-.732 2.732l1 1.732zm-2.181 1.259l2.181-1.259-1-1.732-2.181 1.259 1 1.732zm2.579-.949l-2.78-.871-.598 1.909 2.78.87.598-1.908zm2.621 5.013a4 4 0 00-2.621-5.013l-.598 1.908a2.001 2.001 0 011.311 2.507l1.908.598zm-5.013 2.621a4 4 0 005.013-2.621l-1.908-.598a2 2 0 01-2.507 1.31l-.598 1.909zm-8.046-2.52l8.046 2.52.598-1.909-8.046-2.52-.598 1.909zm-8.843 5.478l9.642-5.566-1-1.733-9.642 5.567 1 1.732zm9.863 3.962l-9.863-5.694-1 1.732 9.863 5.694 1-1.732zm-.258 1.836l8.335-2.084-.485-1.94-8.335 2.084.485 1.94zm8.335-2.084a2 2 0 012.425 1.455l1.94-.485a3.999 3.999 0 00-4.85-2.91l.485 1.94zm2.425 1.455a1.999 1.999 0 01-1.455 2.425l.485 1.941a4 4 0 002.91-4.851l-1.94.485zm-1.455 2.425l-2.315.579.485 1.941 2.315-.579-.485-1.941zm-.027 1.576l-1.546-.892-1 1.732 1.546.892 1-1.732zm1.464 5.464a4 4 0 00-1.464-5.464l-1 1.732a2 2 0 01.732 2.732l1.732 1zm-5.464 1.464a4 4 0 005.464-1.464l-1.732-1a2 2 0 01-2.732.732l-1 1.732zm-1.642-.948l1.642.948 1-1.732-1.642-.948-1 1.732zm2.235 1.354l-.779-2.516-1.911.592.78 2.516 1.91-.592zm-2.636 5.005a4 4 0 002.636-5.005l-1.91.592a2 2 0 01-1.318 2.502l.592 1.911zm-5.005-2.637a4 4 0 005.005 2.637l-.592-1.911a2 2 0 01-2.503-1.318l-1.91.592zm-2.7-8.709l2.7 8.709 1.91-.592-2.699-8.709-1.911.592zm-9.135-4.967l9.591 5.537 1-1.732-9.59-5.537-1 1.732zm1.5 9.577v-10.443h-2v10.443h2zm5.644 5.77l-5.907-6.446-1.474 1.352 5.906 6.445 1.475-1.351zm-.247 5.652a4 4 0 00.247-5.652l-1.475 1.351a2 2 0 01-.123 2.826l1.351 1.475zm-5.651-.247a4 4 0 005.651.247l-1.351-1.475a2 2 0 01-2.826-.123l-1.474 1.351zm-1.483-1.618l1.483 1.618 1.474-1.351-1.483-1.619-1.474 1.352zM99.717 418v-2.48h-2V418h2zm-4 4a4 4 0 004-4h-2a2 2 0 01-2 2v2zm-4-4a4 4 0 004 4v-2a2 2 0 01-2-2h-2zm0-3.021V418h2v-3.021h-2zm-.249 2.711l1.965-2.012-1.431-1.397-1.965 2.011 1.431 1.398zm-5.656.067a4 4 0 005.656-.067l-1.43-1.398a2 2 0 01-2.829.034l-1.397 1.431zm-.067-5.656a4 4 0 00.067 5.656l1.397-1.431a2 2 0 01-.034-2.828l-1.43-1.397zm6.257-6.408l-6.257 6.408 1.43 1.397 6.258-6.408-1.431-1.397zm-.285-9.497v10.195h2v-10.195h-2zm-6.036 5.217l7.536-4.351-1-1.732-7.536 4.351 1 1.732zm-2.346 8.392l2.8-8.96-1.908-.596-2.8 8.959 1.908.597zm-5.011 2.624a4 4 0 005.011-2.624l-1.909-.597a2 2 0 01-2.505 1.312l-.597 1.909zm-2.624-5.011a4 4 0 002.624 5.011l.597-1.909a2 2 0 01-1.313-2.505l-1.908-.597zm.856-2.741l-.856 2.741 1.909.597.856-2.741-1.909-.597zm-2.221 3.287l3.676-2.122-1-1.732-3.676 2.122 1 1.732zM68.87 406.5a4 4 0 005.464 1.464l-1-1.732a2 2 0 01-2.732-.732l-1.732 1zm1.464-5.464a4 4 0 00-1.464 5.464l1.732-1a2 2 0 01.732-2.732l-1-1.732zm3.293-1.901l-3.293 1.901 1 1.732 3.293-1.901-1-1.732zm-1.835 1.307l2.09.528.49-1.939-2.09-.528-.49 1.939zm-2.899-4.858a4 4 0 002.899 4.858l.49-1.939a2 2 0 01-1.45-2.429l-1.939-.49zm4.858-2.898a4 4 0 00-4.858 2.898l1.94.49a2 2 0 012.428-1.449l.49-1.939zm8.077 2.04l-8.077-2.04-.49 1.939 8.077 2.04.49-1.939zm7.388-4.592l-8.133 4.696 1 1.732 8.133-4.696-1-1.732zm-8.081-2.934l8.081 4.666 1-1.732-8.081-4.666-1 1.732zm-8.164 2.335l8.907-2.231-.486-1.94-8.906 2.23.485 1.941zm-4.851-2.909a4 4 0 004.851 2.909l-.485-1.941a1.999 1.999 0 01-2.426-1.454l-1.94.486zm2.908-4.852a4 4 0 00-2.908 4.852l1.94-.486a2 2 0 011.454-2.426l-.486-1.94zm2.892-.724l-2.892.724.486 1.94 2.892-.724-.486-1.94zm-3.586-.086l3.329 1.922 1-1.732-3.33-1.922-1 1.732zM68.87 375.5a4 4 0 001.464 5.464l1-1.732a2 2 0 01-.732-2.732l-1.732-1zm5.464-1.464a4 4 0 00-5.464 1.464l1.732 1a2 2 0 012.732-.732l1-1.732zm3.554 2.052l-3.554-2.052-1 1.732 3.554 2.052 1-1.732zm-2.546-2.114l1.097 3.296 1.898-.632-1.098-3.296-1.897.632zm2.53-5.059a4 4 0 00-2.53 5.059l1.897-.632a2 2 0 011.265-2.529l-.632-1.898zm5.06 2.531a4 4 0 00-5.06-2.531l.632 1.898a2 2 0 012.53 1.265l1.897-.632zm3.16 9.487l-3.16-9.487-1.898.632 3.16 9.487 1.898-.632zm.085.291a4.2 4.2 0 00-.085-.291l-1.898.632c.017.049.031.099.044.147l1.939-.488zm7.04 3.714l-7.51-4.336-1 1.732 7.51 4.336 1-1.732zm-1.5-8.345v9.211h2v-9.211h-2zm-6.476-6.194l6.761 6.894 1.428-1.4-6.761-6.894-1.428 1.4zm.055-5.656a4 4 0 00-.055 5.656l1.428-1.4a2 2 0 01.027-2.828l-1.4-1.428zm5.656.055a4 4 0 00-5.656-.055l1.4 1.428a2 2 0 012.828.027l1.428-1.4zm2.478 2.526l-2.478-2.526-1.428 1.4 2.478 2.527 1.428-1.401zM91.717 364v4.024h2V364h-2z" fill="#B3E0FB" mask="url(#e)"/><mask id="f" fill="#fff"><path fill-rule="evenodd" clip-rule="evenodd" d="M23.717 266a3 3 0 116 0v4.229l2.59-2.586a3 3 0 014.239 4.246l-6.829 6.818v9.097l9.444-5.452 3.273-8.722a3 3 0 015.618 2.108l-.71 1.89 1.258-.726a3 3 0 013 5.196l-2.181 1.259 2.78.871a3 3 0 01-1.794 5.726l-8.046-2.521L32.717 293l9.863 5.694 8.334-2.084a3 3 0 111.456 5.821l-2.316.579 1.546.892a3 3 0 11-3 5.196l-1.642-.948.78 2.516a3 3 0 11-5.731 1.776l-2.7-8.709-9.59-5.537v10.443l5.907 6.446a3 3 0 11-4.424 4.053l-1.483-1.618V320a3 3 0 11-6 0v-3.021l-1.964 2.012a3.001 3.001 0 01-4.293-4.192l6.257-6.408v-10.195l-7.536 4.351-2.8 8.959a3 3 0 11-5.727-1.79l.857-2.74-3.676 2.122a3 3 0 11-3-5.196l3.293-1.901-2.09-.528a3 3 0 011.47-5.818l8.076 2.041L20.717 293l-8.081-4.666-8.907 2.231a3.001 3.001 0 01-1.457-5.821l2.892-.724-3.33-1.922a3 3 0 113-5.196l3.555 2.052-1.098-3.296a3 3 0 115.693-1.896l3.16 9.487c.025.073.046.146.064.219l7.51 4.336v-9.211l-6.762-6.894a3 3 0 114.283-4.201l2.478 2.526V266z"/></mask><path fill-rule="evenodd" clip-rule="evenodd" d="M23.717 266a3 3 0 116 0v4.229l2.59-2.586a3 3 0 014.239 4.246l-6.829 6.818v9.097l9.444-5.452 3.273-8.722a3 3 0 015.618 2.108l-.71 1.89 1.258-.726a3 3 0 013 5.196l-2.181 1.259 2.78.871a3 3 0 01-1.794 5.726l-8.046-2.521L32.717 293l9.863 5.694 8.334-2.084a3 3 0 111.456 5.821l-2.316.579 1.546.892a3 3 0 11-3 5.196l-1.642-.948.78 2.516a3 3 0 11-5.731 1.776l-2.7-8.709-9.59-5.537v10.443l5.907 6.446a3 3 0 11-4.424 4.053l-1.483-1.618V320a3 3 0 11-6 0v-3.021l-1.964 2.012a3.001 3.001 0 01-4.293-4.192l6.257-6.408v-10.195l-7.536 4.351-2.8 8.959a3 3 0 11-5.727-1.79l.857-2.74-3.676 2.122a3 3 0 11-3-5.196l3.293-1.901-2.09-.528a3 3 0 011.47-5.818l8.076 2.041L20.717 293l-8.081-4.666-8.907 2.231a3.001 3.001 0 01-1.457-5.821l2.892-.724-3.33-1.922a3 3 0 113-5.196l3.555 2.052-1.098-3.296a3 3 0 115.693-1.896l3.16 9.487c.025.073.046.146.064.219l7.51 4.336v-9.211l-6.762-6.894a3 3 0 114.283-4.201l2.478 2.526V266z" fill="#B3E0FB"/><path d="M29.717 270.229h-1v2.411l1.707-1.704-.707-.707zm2.59-2.586l.706.708-.706-.708zm4.243.004l-.708.706.708-.706zm-.004 4.242l.706.708-.706-.708zm-6.829 6.818l-.706-.708-.294.293v.415h1zm0 9.097h-1v1.732l1.5-.866-.5-.866zm9.444-5.452l.5.866.31-.18.126-.335-.936-.351zm3.273-8.722l-.936-.351.937.351zm3.863-1.755l.352-.936-.352.936zm1.755 3.863l.936.352-.936-.352zm-.71 1.89l-.936-.352-.98 2.613 2.417-1.395-.5-.866zm1.258-.726l-.5-.866.5.866zM52.698 278l.866-.5-.866.5zm-1.098 4.098l-.5-.866.5.866zm-2.181 1.259l-.5-.866-1.973 1.14 2.174.681.299-.955zm2.78.871l.299-.954-.3.954zm1.966 3.76l.954.299-.954-.299zm-3.76 1.966l-.299.954.3-.954zm-8.046-2.521l.299-.954-.42-.131-.38.219.5.866zM32.717 293l-.5-.866-1.5.866 1.5.866.5-.866zm9.863 5.694l-.5.866.35.202.392-.098-.242-.97zm8.334-2.084l.243.97-.243-.97zm3.638 2.182l-.97.243.97-.243zm-2.182 3.639l.242.97-.242-.97zm-2.316.579l-.242-.971-2.399.6 2.141 1.237.5-.866zm1.546.892l.5-.866-.5.866zM52.698 308l-.866-.5.866.5zm-4.098 1.098l.5-.866-.5.866zm-1.642-.948l.5-.866-2.21-1.276.755 2.438.955-.296zm.78 2.516l.955-.296-.955.296zm-1.977 3.753l-.296-.955.296.955zm-3.754-1.977l.955-.296-.955.296zm-2.7-8.709l.956-.296-.116-.374-.34-.196-.5.866zm-9.59-5.537l.5-.866-1.5-.866v1.732h1zm0 10.443h-1v.389l.263.287.737-.676zm5.907 6.446l-.738.675.738-.675zm-.185 4.238l.675.738-.675-.738zm-4.239-.185l.737-.675-.737.675zm-1.483-1.618l.738-.676-1.738-1.895v2.571h1zm-6-.541h1v-2.455l-1.715 1.757.715.698zm-1.964 2.012l-.716-.699.716.699zm-4.242.051l-.7.715.7-.715zm-.051-4.243l.715.699-.715-.699zm6.257-6.408l.716.699.284-.291v-.408h-1zm0-10.195h1v-1.732l-1.5.866.5.866zm-7.536 4.351l-.5-.866-.338.195-.116.373.954.298zm-2.8 8.959l-.955-.298.955.298zm-5.727-1.79l.954.299-.954-.299zm.857-2.74l.954.298.765-2.445-2.22 1.281.5.866zm-3.676 2.122l.5.866-.5-.866zM.736 308l-.866.5.866-.5zm1.099-4.098l-.5-.866.5.866zm3.293-1.901l.5.866 2.134-1.232-2.39-.604-.244.97zm-2.09-.528l.245-.97-.245.97zm-2.174-3.644l-.97-.245.97.245zm3.643-2.174l.245-.969-.245.969zm8.077 2.041l-.245.969.394.1.351-.203-.5-.866zM20.717 293l.5.866 1.5-.866-1.5-.866-.5.866zm-8.081-4.666l.5-.866-.35-.202-.393.098.243.97zm-8.907 2.231l.243.97-.243-.97zm-1.457-5.821l-.243-.97.243.97zm2.892-.724l.243.97 2.397-.6-2.14-1.236-.5.866zm-3.33-1.922l.5-.866-.5.866zM.737 278l.867.5-.867-.5zm4.099-1.098l.5-.866-.5.866zm3.554 2.052l-.5.866 2.282 1.317-.833-2.499-.949.316zm-1.098-3.296l.949-.316-.949.316zm1.898-3.794l.316.949-.316-.949zm3.795 1.898l-.949.316.949-.316zm3.16 9.487l-.948.316.948-.316zm.064.219l-.97.244.104.411.366.211.5-.866zm7.51 4.336l-.5.866 1.5.866v-1.732h-1zm0-9.211h1v-.408l-.287-.292-.714.7zm-6.762-6.894l-.714.7.714-.7zm.04-4.242l-.7-.714.7.714zm4.243.041l-.714.7.714-.7zm2.478 2.526l-.714.701 1.714 1.747v-2.448h-1zm3-8.024a4 4 0 00-4 4h2a2 2 0 012-2v-2zm4 4a4 4 0 00-4-4v2a2 2 0 012 2h2zm0 4.229V266h-2v4.229h2zm.883-3.293l-2.59 2.585 1.414 1.415 2.59-2.585-1.414-1.415zm5.657.004a4 4 0 00-5.657-.004l1.413 1.415a2.001 2.001 0 012.829.002l1.415-1.413zm-.005 5.657a4 4 0 00.005-5.657l-1.415 1.413a2 2 0 01-.003 2.829l1.413 1.415zm-6.828 6.817l6.828-6.817-1.413-1.415-6.828 6.817 1.413 1.415zm.293 8.39v-9.097h-2v9.097h2zm7.944-6.318l-9.444 5.452 1 1.732 9.444-5.452-1-1.732zm2.837-8.207L38.225 282l1.872.703 3.274-8.722-1.873-.702zm5.15-2.34a4 4 0 00-5.15 2.34l1.873.702a2 2 0 012.575-1.169l.703-1.873zm2.34 5.151a4.001 4.001 0 00-2.34-5.151l-.702 1.873a2 2 0 011.17 2.575l1.872.703zm-.71 1.889l.71-1.889-1.872-.703-.71 1.889 1.873.703zm-.178-1.943l-1.257.726 1 1.732 1.257-.726-1-1.732zm5.464 1.464a4 4 0 00-5.464-1.464l1 1.732a2 2 0 012.732.732l1.732-1zm-1.464 5.464a4 4 0 001.464-5.464l-1.732 1a2 2 0 01-.732 2.732l1 1.732zm-2.181 1.259l2.18-1.259-1-1.732-2.18 1.259 1 1.732zm2.579-.949l-2.78-.871-.598 1.909 2.78.87.598-1.908zm2.621 5.013a4 4 0 00-2.621-5.013l-.598 1.908a2.001 2.001 0 011.31 2.507l1.91.598zm-5.013 2.621a4 4 0 005.013-2.621l-1.908-.598a1.999 1.999 0 01-2.507 1.31l-.598 1.909zm-8.046-2.52l8.046 2.52.598-1.909-8.046-2.52-.598 1.909zm-8.843 5.478l9.642-5.566-1-1.733-9.642 5.567 1 1.732zm9.863 3.962l-9.863-5.694-1 1.732 9.863 5.694 1-1.732zm-.258 1.836l8.335-2.084-.485-1.94-8.335 2.084.485 1.94zm8.335-2.084a2 2 0 012.425 1.455l1.94-.485a4 4 0 00-4.85-2.91l.485 1.94zm2.425 1.455a2 2 0 01-1.455 2.425l.485 1.941a4 4 0 002.91-4.851l-1.94.485zm-1.455 2.425l-2.315.579.485 1.941 2.315-.579-.485-1.941zm-.027 1.576l-1.546-.892-1 1.732 1.546.892 1-1.732zm1.464 5.464a4 4 0 00-1.464-5.464l-1 1.732a2 2 0 01.732 2.732l1.732 1zm-5.464 1.464a4 4 0 005.464-1.464l-1.732-1a2 2 0 01-2.732.732l-1 1.732zm-1.642-.948l1.642.948 1-1.732-1.642-.948-1 1.732zm2.235 1.354l-.78-2.516-1.91.592.78 2.516 1.91-.592zm-2.636 5.005a4 4 0 002.636-5.005l-1.91.592a2 2 0 01-1.318 2.502l.592 1.911zm-5.005-2.637a4 4 0 005.005 2.637l-.592-1.911a2 2 0 01-2.503-1.318l-1.91.592zm-2.7-8.709l2.7 8.709 1.91-.592-2.7-8.709-1.91.592zm-9.135-4.967l9.59 5.537 1-1.732-9.59-5.537-1 1.732zm1.5 9.577v-10.443h-2v10.443h2zm5.644 5.77l-5.906-6.446-1.475 1.352 5.906 6.445 1.475-1.351zm-.247 5.652a4 4 0 00.247-5.652l-1.475 1.351a2 2 0 01-.123 2.826l1.351 1.475zm-5.651-.247a4 4 0 005.651.247l-1.35-1.475a2 2 0 01-2.827-.123l-1.474 1.351zm-1.483-1.618l1.483 1.618 1.474-1.351-1.483-1.619-1.474 1.352zM30.717 320v-2.48h-2V320h2zm-4 4a4 4 0 004-4h-2a2 2 0 01-2 2v2zm-4-4a4 4 0 004 4v-2a2 2 0 01-2-2h-2zm0-3.021V320h2v-3.021h-2zm-.249 2.711l1.965-2.012-1.431-1.397-1.965 2.011 1.431 1.398zm-5.656.067a4 4 0 005.656-.067l-1.43-1.398a2 2 0 01-2.829.034l-1.397 1.431zm-.067-5.656a4 4 0 00.067 5.656l1.397-1.431a2 2 0 01-.034-2.828l-1.43-1.397zm6.257-6.408l-6.257 6.408 1.43 1.397 6.258-6.408-1.431-1.397zm-.285-9.497v10.195h2v-10.195h-2zm-6.036 5.217l7.536-4.351-1-1.732-7.536 4.351 1 1.732zm-2.346 8.392l2.8-8.96-1.908-.596-2.8 8.959 1.908.597zm-5.011 2.624a4 4 0 005.011-2.624l-1.909-.597a2 2 0 01-2.505 1.312l-.597 1.909zM6.7 309.418a4 4 0 002.624 5.011l.597-1.909a2 2 0 01-1.313-2.505l-1.908-.597zm.856-2.741l-.856 2.741 1.908.597.857-2.741-1.909-.597zm-2.221 3.287l3.676-2.122-1-1.732-3.676 2.122 1 1.732zM-.13 308.5a4 4 0 005.465 1.464l-1-1.732a2 2 0 01-2.732-.732l-1.733 1zm1.465-5.464A4 4 0 00-.13 308.5l1.733-1a2 2 0 01.732-2.732l-1-1.732zm3.293-1.901l-3.293 1.901 1 1.732 3.293-1.901-1-1.732zm-1.835 1.307l2.09.528.49-1.939-2.09-.528-.49 1.939zm-2.899-4.858a4 4 0 002.899 4.858l.49-1.939a2 2 0 01-1.45-2.429l-1.939-.49zm4.858-2.898a4 4 0 00-4.858 2.898l1.94.49a2 2 0 012.428-1.449l.49-1.939zm8.077 2.04l-8.077-2.04-.49 1.939 8.077 2.04.49-1.939zm7.388-4.592l-8.133 4.696 1 1.732 8.133-4.696-1-1.732zm-8.081-2.934l8.081 4.666 1-1.732-8.081-4.666-1 1.732zm-8.164 2.335l8.907-2.231-.486-1.94-8.906 2.23.485 1.941zm-4.851-2.909a4 4 0 004.851 2.909l-.485-1.941a1.999 1.999 0 01-2.426-1.454l-1.94.486zm2.908-4.852a4 4 0 00-2.908 4.852l1.94-.486a2 2 0 011.454-2.426l-.486-1.94zm2.892-.724l-2.892.724.486 1.94 2.892-.724-.486-1.94zm-3.586-.086l3.329 1.922 1-1.732-3.33-1.922-1 1.732zM-.13 277.5a4 4 0 001.465 5.464l1-1.732a2 2 0 01-.732-2.732l-1.733-1zm5.465-1.464A4 4 0 00-.13 277.5l1.733 1a2 2 0 012.732-.732l1-1.732zm3.554 2.052l-3.554-2.052-1 1.732 3.554 2.052 1-1.732zm-2.546-2.114l1.097 3.296 1.898-.632-1.098-3.296-1.897.632zm2.53-5.059a4 4 0 00-2.53 5.059l1.897-.632a2 2 0 011.265-2.529l-.632-1.898zm5.06 2.531a4 4 0 00-5.06-2.531l.632 1.898a2 2 0 012.53 1.265l1.897-.632zm3.16 9.487l-3.16-9.487-1.898.632 3.16 9.487 1.898-.632zm.085.291a4.2 4.2 0 00-.085-.291l-1.898.632c.017.049.031.099.043.147l1.94-.488zm7.04 3.714l-7.51-4.336-1 1.732 7.51 4.336 1-1.732zm-1.5-8.345v9.211h2v-9.211h-2zm-6.476-6.194l6.761 6.894 1.428-1.4-6.761-6.894-1.428 1.4zm.055-5.656a4 4 0 00-.055 5.656l1.428-1.4a2 2 0 01.027-2.828l-1.4-1.428zm5.656.055a4 4 0 00-5.656-.055l1.4 1.428a2 2 0 012.828.027l1.428-1.4zm2.478 2.526l-2.478-2.526-1.428 1.4 2.478 2.527 1.428-1.401zM22.717 266v4.024h2V266h-2z" fill="#B3E0FB" mask="url(#f)"/><mask id="g" fill="#fff"><path fill-rule="evenodd" clip-rule="evenodd" d="M373.717 264a3 3 0 116 0v4.229l2.59-2.586a3 3 0 014.239 4.246l-6.829 6.818v9.097l9.444-5.452 3.273-8.722a3.001 3.001 0 015.618 2.108l-.709 1.89 1.257-.726a3 3 0 013 5.196l-2.181 1.259 2.78.871a3 3 0 01-1.794 5.726l-8.046-2.521-9.642 5.567 9.863 5.694 8.334-2.084a3 3 0 111.456 5.821l-2.316.579 1.546.892a3 3 0 01-3 5.196l-1.642-.948.78 2.516a3 3 0 11-5.731 1.776l-2.699-8.709-9.591-5.537v10.443l5.907 6.446a3 3 0 01-4.424 4.053l-1.483-1.618V318a3 3 0 11-6 0v-3.021l-1.964 2.012a3 3 0 01-4.293-4.192l6.257-6.408v-10.195l-7.536 4.351-2.8 8.959a3 3 0 01-5.727-1.79l.857-2.74-3.676 2.122a3 3 0 11-3-5.196l3.293-1.901-2.09-.528a3 3 0 111.469-5.818l8.077 2.041 8.133-4.696-8.081-4.666-8.907 2.231a3 3 0 01-1.457-5.821l2.892-.724-3.329-1.922a3 3 0 113-5.196l3.554 2.052-1.098-3.296a3 3 0 015.693-1.896l3.16 9.487c.024.073.046.146.064.219l7.509 4.336v-9.211l-6.761-6.894a3 3 0 114.283-4.201l2.478 2.526V264z"/></mask><path fill-rule="evenodd" clip-rule="evenodd" d="M373.717 264a3 3 0 116 0v4.229l2.59-2.586a3 3 0 014.239 4.246l-6.829 6.818v9.097l9.444-5.452 3.273-8.722a3.001 3.001 0 015.618 2.108l-.709 1.89 1.257-.726a3 3 0 013 5.196l-2.181 1.259 2.78.871a3 3 0 01-1.794 5.726l-8.046-2.521-9.642 5.567 9.863 5.694 8.334-2.084a3 3 0 111.456 5.821l-2.316.579 1.546.892a3 3 0 01-3 5.196l-1.642-.948.78 2.516a3 3 0 11-5.731 1.776l-2.699-8.709-9.591-5.537v10.443l5.907 6.446a3 3 0 01-4.424 4.053l-1.483-1.618V318a3 3 0 11-6 0v-3.021l-1.964 2.012a3 3 0 01-4.293-4.192l6.257-6.408v-10.195l-7.536 4.351-2.8 8.959a3 3 0 01-5.727-1.79l.857-2.74-3.676 2.122a3 3 0 11-3-5.196l3.293-1.901-2.09-.528a3 3 0 111.469-5.818l8.077 2.041 8.133-4.696-8.081-4.666-8.907 2.231a3 3 0 01-1.457-5.821l2.892-.724-3.329-1.922a3 3 0 113-5.196l3.554 2.052-1.098-3.296a3 3 0 015.693-1.896l3.16 9.487c.024.073.046.146.064.219l7.509 4.336v-9.211l-6.761-6.894a3 3 0 114.283-4.201l2.478 2.526V264z" fill="#B3E0FB"/><path d="M379.717 268.229h-1v2.411l1.707-1.704-.707-.707zm2.59-2.586l.706.708-.706-.708zm4.243.004l-.708.706.708-.706zm-.004 4.242l.706.708-.706-.708zm-6.829 6.818l-.706-.708-.294.293v.415h1zm0 9.097h-1v1.732l1.5-.866-.5-.866zm9.444-5.452l.5.866.31-.18.126-.335-.936-.351zm3.273-8.722l-.936-.351.936.351zm3.863-1.755l.352-.936-.352.936zm1.755 3.863l.936.352-.936-.352zm-.709 1.89l-.937-.352-.98 2.613 2.417-1.395-.5-.866zm1.257-.726l-.5-.866.5.866zm4.098 1.098l.866-.5-.866.5zm-1.098 4.098l-.5-.866.5.866zm-2.181 1.259l-.5-.866-1.973 1.14 2.174.681.299-.955zm2.78.871l.299-.954-.299.954zm1.966 3.76l.954.299-.954-.299zm-3.76 1.966l-.299.954.299-.954zm-8.046-2.521l.299-.954-.419-.131-.38.219.5.866zM382.717 291l-.5-.866-1.5.866 1.5.866.5-.866zm9.863 5.694l-.5.866.35.202.392-.098-.242-.97zm8.334-2.084l.243.97-.243-.97zm3.638 2.182l-.97.243.97-.243zm-2.182 3.639l.242.97-.242-.97zm-2.316.579l-.242-.971-2.399.6 2.141 1.237.5-.866zm1.546.892l.5-.866-.5.866zm1.098 4.098l-.866-.5.866.5zm-4.098 1.098l.5-.866-.5.866zm-1.642-.948l.5-.866-2.211-1.276.756 2.438.955-.296zm.78 2.516l.955-.296-.955.296zm-1.977 3.753l-.296-.955.296.955zm-3.754-1.977l.955-.296-.955.296zm-2.699-8.709l.955-.296-.116-.374-.339-.196-.5.866zm-9.591-5.537l.5-.866-1.5-.866v1.732h1zm0 10.443h-1v.389l.263.287.737-.676zm5.907 6.446l-.738.675.738-.675zm-.185 4.238l.675.738-.675-.738zm-4.239-.185l.737-.675-.737.675zm-1.483-1.618l.737-.676-1.737-1.895v2.571h1zm-6-.541h1v-2.455l-1.715 1.757.715.698zm-1.964 2.012l-.716-.699.716.699zm-4.242.051l-.699.715.699-.715zm-.051-4.243l.716.699-.716-.699zm6.257-6.408l.716.699.284-.291v-.408h-1zm0-10.195h1v-1.732l-1.5.866.5.866zm-7.536 4.351l-.5-.866-.338.195-.116.373.954.298zm-2.8 8.959l-.955-.298.955.298zm-5.727-1.79l.954.299-.954-.299zm.857-2.74l.954.298.765-2.445-2.219 1.281.5.866zm-3.676 2.122l.5.866-.5-.866zM350.736 306l-.866.5.866-.5zm1.099-4.098l-.5-.866.5.866zm3.293-1.901l.5.866 2.134-1.232-2.389-.604-.245.97zm-2.09-.528l.245-.97-.245.97zm-2.174-3.644l-.97-.245.97.245zm3.643-2.174l.245-.969-.245.969zm8.077 2.041l-.245.969.394.1.351-.203-.5-.866zm8.133-4.696l.5.866 1.5-.866-1.5-.866-.5.866zm-8.081-4.666l.5-.866-.351-.202-.392.098.243.97zm-8.907 2.231l.243.97-.243-.97zm-1.457-5.821l-.243-.97.243.97zm2.892-.724l.243.97 2.397-.6-2.14-1.236-.5.866zm-3.329-1.922l.5-.866-.5.866zM350.736 276l.867.5-.867-.5zm4.099-1.098l.5-.866-.5.866zm3.554 2.052l-.5.866 2.281 1.317-.832-2.499-.949.316zm-1.098-3.296l.949-.316-.949.316zm1.898-3.794l.316.949-.316-.949zm3.795 1.898l-.949.316.949-.316zm3.16 9.487l-.949.316.949-.316zm.064.219l-.97.244.104.411.366.211.5-.866zm7.509 4.336l-.5.866 1.5.866v-1.732h-1zm0-9.211h1v-.408l-.286-.292-.714.7zm-6.761-6.894l-.714.7.714-.7zm.041-4.242l-.7-.714.7.714zm4.242.041l-.714.7.714-.7zm2.478 2.526l-.714.701 1.714 1.747v-2.448h-1zm3-8.024a4 4 0 00-4 4h2a2 2 0 012-2v-2zm4 4a4 4 0 00-4-4v2a2 2 0 012 2h2zm0 4.229V264h-2v4.229h2zm.883-3.293l-2.589 2.585 1.413 1.415 2.589-2.585-1.413-1.415zm5.657.004a4 4 0 00-5.657-.004l1.413 1.415a2.002 2.002 0 012.829.002l1.415-1.413zm-.005 5.657a4 4 0 00.005-5.657l-1.415 1.413a2 2 0 01-.003 2.829l1.413 1.415zm-6.828 6.817l6.828-6.817-1.413-1.415-6.828 6.817 1.413 1.415zm.293 8.39v-9.097h-2v9.097h2zm7.944-6.318l-9.444 5.452 1 1.732 9.444-5.452-1-1.732zm2.837-8.207L388.225 280l1.872.703 3.274-8.722-1.873-.702zm5.151-2.34a4 4 0 00-5.151 2.34l1.873.702a2 2 0 012.575-1.169l.703-1.873zm2.339 5.151a4.001 4.001 0 00-2.339-5.151l-.703 1.873a2 2 0 011.17 2.575l1.872.703zm-.709 1.889l.709-1.889-1.872-.703-.71 1.889 1.873.703zm-.179-1.943l-1.257.726 1 1.732 1.257-.726-1-1.732zm5.464 1.464a4 4 0 00-5.464-1.464l1 1.732a2 2 0 012.732.732l1.732-1zm-1.464 5.464a4 4 0 001.464-5.464l-1.732 1a2 2 0 01-.732 2.732l1 1.732zm-2.181 1.259l2.181-1.259-1-1.732-2.181 1.259 1 1.732zm2.579-.949l-2.78-.871-.598 1.909 2.78.87.598-1.908zm2.621 5.013a4 4 0 00-2.621-5.013l-.598 1.908a2.001 2.001 0 011.311 2.507l1.908.598zm-5.013 2.621a4 4 0 005.013-2.621l-1.908-.598a2 2 0 01-2.507 1.31l-.598 1.909zm-8.046-2.52l8.046 2.52.598-1.909-8.046-2.52-.598 1.909zm-8.843 5.478l9.642-5.566-1-1.733-9.642 5.567 1 1.732zm9.863 3.962l-9.863-5.694-1 1.732 9.863 5.694 1-1.732zm-.258 1.836l8.335-2.084-.485-1.94-8.335 2.084.485 1.94zm8.335-2.084a2 2 0 012.425 1.455l1.94-.485a3.999 3.999 0 00-4.85-2.91l.485 1.94zm2.425 1.455a1.999 1.999 0 01-1.455 2.425l.485 1.941a4 4 0 002.91-4.851l-1.94.485zm-1.455 2.425l-2.315.579.485 1.941 2.315-.579-.485-1.941zm-.027 1.576l-1.546-.892-1 1.732 1.546.892 1-1.732zm1.464 5.464a4 4 0 00-1.464-5.464l-1 1.732a2 2 0 01.732 2.732l1.732 1zm-5.464 1.464a4 4 0 005.464-1.464l-1.732-1a2 2 0 01-2.732.732l-1 1.732zm-1.642-.948l1.642.948 1-1.732-1.642-.948-1 1.732zm2.235 1.354l-.779-2.516-1.911.592.78 2.516 1.91-.592zm-2.636 5.005a4 4 0 002.636-5.005l-1.91.592a2 2 0 01-1.318 2.502l.592 1.911zm-5.005-2.637a4 4 0 005.005 2.637l-.592-1.911a2 2 0 01-2.503-1.318l-1.91.592zm-2.7-8.709l2.7 8.709 1.91-.592-2.699-8.709-1.911.592zm-9.135-4.967l9.591 5.537 1-1.732-9.591-5.537-1 1.732zm1.5 9.577v-10.443h-2v10.443h2zm5.644 5.77l-5.907-6.446-1.474 1.352 5.906 6.445 1.475-1.351zm-.247 5.652a4 4 0 00.247-5.652l-1.475 1.351a2 2 0 01-.123 2.826l1.351 1.475zm-5.651-.247a4 4 0 005.651.247l-1.351-1.475a2 2 0 01-2.826-.123l-1.474 1.351zm-1.483-1.618l1.483 1.618 1.474-1.351-1.483-1.619-1.474 1.352zm1.737 1.804v-2.48h-2V318h2zm-4 4a4 4 0 004-4h-2a2 2 0 01-2 2v2zm-4-4a4 4 0 004 4v-2a2 2 0 01-2-2h-2zm0-3.021V318h2v-3.021h-2zm-.249 2.711l1.965-2.012-1.431-1.397-1.965 2.011 1.431 1.398zm-5.656.067a4 4 0 005.656-.067l-1.431-1.398a1.999 1.999 0 01-2.828.034l-1.397 1.431zm-.067-5.656a3.999 3.999 0 00.067 5.656l1.397-1.431a2 2 0 01-.033-2.828l-1.431-1.397zm6.257-6.408l-6.257 6.408 1.431 1.397 6.257-6.408-1.431-1.397zm-.285-9.497v10.195h2v-10.195h-2zm-6.036 5.217l7.536-4.351-1-1.732-7.536 4.351 1 1.732zm-2.346 8.392l2.801-8.96-1.909-.596-2.801 8.959 1.909.597zm-5.011 2.624a4 4 0 005.011-2.624l-1.909-.597a1.999 1.999 0 01-2.505 1.312l-.597 1.909zm-2.624-5.011a3.999 3.999 0 002.624 5.011l.597-1.909a2 2 0 01-1.313-2.505l-1.908-.597zm.856-2.741l-.856 2.741 1.908.597.857-2.741-1.909-.597zm-2.221 3.287l3.676-2.122-1-1.732-3.676 2.122 1 1.732zm-5.465-1.464a4 4 0 005.465 1.464l-1-1.732a2 2 0 01-2.732-.732l-1.733 1zm1.465-5.464a4 4 0 00-1.465 5.464l1.733-1a1.999 1.999 0 01.732-2.732l-1-1.732zm3.293-1.901l-3.293 1.901 1 1.732 3.293-1.901-1-1.732zm-1.835 1.307l2.09.528.49-1.939-2.09-.528-.49 1.939zm-2.899-4.858a4 4 0 002.899 4.858l.49-1.939a2.001 2.001 0 01-1.45-2.429l-1.939-.49zm4.858-2.898a4 4 0 00-4.858 2.898l1.939.49a2 2 0 012.429-1.449l.49-1.939zm8.077 2.04l-8.077-2.04-.49 1.939 8.077 2.04.49-1.939zm7.388-4.592l-8.133 4.696 1 1.732 8.133-4.696-1-1.732zm-8.081-2.934l8.081 4.666 1-1.732-8.081-4.666-1 1.732zm-8.164 2.335l8.907-2.231-.486-1.94-8.906 2.23.485 1.941zm-4.851-2.909a4 4 0 004.851 2.909l-.485-1.941a1.999 1.999 0 01-2.426-1.454l-1.94.486zm2.908-4.852a4 4 0 00-2.908 4.852l1.94-.486a2 2 0 011.454-2.426l-.486-1.94zm2.892-.724l-2.892.724.486 1.94 2.892-.724-.486-1.94zm-3.586-.086l3.329 1.922 1-1.732-3.329-1.922-1 1.732zm-1.465-5.464a4 4 0 001.465 5.464l1-1.732a1.999 1.999 0 01-.732-2.732l-1.733-1zm5.465-1.464a4 4 0 00-5.465 1.464l1.733 1a2 2 0 012.732-.732l1-1.732zm3.554 2.052l-3.554-2.052-1 1.732 3.554 2.052 1-1.732zm-2.546-2.114l1.097 3.296 1.898-.632-1.098-3.296-1.897.632zm2.53-5.059a3.999 3.999 0 00-2.53 5.059l1.897-.632a2 2 0 011.265-2.529l-.632-1.898zm5.059 2.531a4 4 0 00-5.059-2.531l.632 1.898a2 2 0 012.53 1.265l1.897-.632zm3.161 9.487l-3.161-9.487-1.897.632 3.16 9.487 1.898-.632zm.085.291a4.56 4.56 0 00-.085-.291l-1.898.632c.017.049.031.099.043.147l1.94-.488zm7.039 3.714l-7.509-4.336-1 1.732 7.509 4.336 1-1.732zm-1.5-8.345v9.211h2v-9.211h-2zm-6.475-6.194l6.761 6.894 1.428-1.4-6.761-6.894-1.428 1.4zm.055-5.656a3.998 3.998 0 00-.055 5.656l1.428-1.4a1.999 1.999 0 01.027-2.828l-1.4-1.428zm5.656.055a4 4 0 00-5.656-.055l1.4 1.428a2 2 0 012.828.027l1.428-1.4zm2.478 2.526l-2.478-2.526-1.428 1.4 2.478 2.527 1.428-1.401zM372.717 264v4.024h2V264h-2z" fill="#B3E0FB" mask="url(#g)"/><defs><filter id="filter0_i" x="33" y="11" width="331" height="281" filterUnits="userSpaceOnUse" color-interpolation-filters="sRGB"><feFlood flood-opacity="0" result="BackgroundImageFix"/><feBlend in="SourceGraphic" in2="BackgroundImageFix" result="shape"/><feColorMatrix in="SourceAlpha" values="0 0 0 0 0 0 0 0 0 0 0 0 0 0 0 0 0 0 127 0" result="hardAlpha"/><feOffset dy="-20"/><feGaussianBlur stdDeviation="10"/><feComposite in2="hardAlpha" operator="arithmetic" k2="-1" k3="1"/><feColorMatrix values="0 0 0 0 0.870588 0 0 0 0 0.890196 0 0 0 0 0.905882 0 0 0 1 0"/><feBlend in2="shape" result="effect1_innerShadow"/></filter><filter id="filter1_f" x="15" y="33" width="364.8" height="308.8" filterUnits="userSpaceOnUse" color-interpolation-filters="sRGB"><feFlood flood-opacity="0" result="BackgroundImageFix"/><feBlend in="SourceGraphic" in2="BackgroundImageFix" result="shape"/><feGaussianBlur stdDeviation="25" result="effect1_foregroundBlur"/></filter><filter id="filter2_f" x="102" y="0" width="302" height="300" filterUnits="userSpaceOnUse" color-interpolation-filters="sRGB"><feFlood flood-opacity="0" result="BackgroundImageFix"/><feBlend in="SourceGraphic" in2="BackgroundImageFix" result="shape"/><feGaussianBlur stdDeviation="20" result="effect1_foregroundBlur"/></filter><linearGradient id="paint0_linear" x1="253" y1="40" x2="253" y2="260" gradientUnits="userSpaceOnUse"><stop stop-color="#DEE3E7"/><stop offset="1" stop-color="#fff" stop-opacity="0"/></linearGradient></defs></svg>