<svg width="602" height="422" viewBox="0 0 602 422" fill="none" xmlns="http://www.w3.org/2000/svg">
<g filter="url(#filter0_i)">
<path fill-rule="evenodd" clip-rule="evenodd" d="M373 117.5C373 118.108 372.994 118.714 372.981 119.319C417.251 123.112 452 160.248 452 205.5C452 249.718 418.821 286.188 376 291.369V292H365.5H207.5H196V291.242C153.664 285.618 121 249.374 121 205.5C121 160.248 155.749 123.112 200.019 119.319C200.006 118.714 200 118.108 200 117.5C200 69.7274 238.727 31 286.5 31C334.273 31 373 69.7274 373 117.5Z" fill="white"/>
</g>
<g filter="url(#filter1_f)">
<path fill-rule="evenodd" clip-rule="evenodd" d="M354.6 152.2C354.6 152.686 354.595 153.171 354.585 153.655C390.001 156.689 417.8 186.398 417.8 222.6C417.8 257.975 391.257 287.15 357 291.295V291.8L348.6 291.8H222.2L213 291.8V291.194C179.131 286.695 153 257.699 153 222.6C153 186.398 180.799 156.689 216.215 153.655C216.205 153.171 216.2 152.686 216.2 152.2C216.2 113.982 247.182 83 285.4 83C323.618 83 354.6 113.982 354.6 152.2Z" fill="#5B7186"/>
</g>
<g filter="url(#filter2_f)">
<path fill-rule="evenodd" clip-rule="evenodd" d="M359.622 121.857C359.985 118.761 360.173 115.604 360.173 112.398C360.173 72.4137 331.033 40 295.086 40C259.14 40 230 72.4137 230 112.398C230 152.382 259.14 184.796 295.086 184.796C304.832 184.796 314.078 182.413 322.378 178.143C322.015 181.239 321.827 184.396 321.827 187.602C321.827 227.586 350.967 260 386.914 260C422.86 260 452 227.586 452 187.602C452 147.618 422.86 115.204 386.914 115.204C377.168 115.204 367.922 117.587 359.622 121.857Z" fill="url(#paint0_linear)"/>
</g>
<g filter="url(#filter3_f)">
<path fill-rule="evenodd" clip-rule="evenodd" d="M357.554 221.811C401.014 214.173 509.883 189.993 547.593 202.554C585.079 215.041 500.748 233.434 511.099 254.232C519.662 271.438 556.504 260.816 561.614 278.312C567.826 299.577 497.146 294.138 482.309 314.473C467.997 334.089 577.455 357.53 533.572 361.783C357.554 354.97 263.959 410.504 295.301 361.783C261.768 359.331 81.8635 358.09 48.5912 354.97C3.31782 350.724 157.021 314.473 48.5913 314.473C16.213 298.938 95.7885 299.248 106.919 278.312C117.972 257.521 33.5397 235.573 69.0633 221.811C23.8221 203.703 187.449 240.528 212.771 230.147C253.486 230.147 314.868 229.312 357.554 221.811Z" fill="#ADB8C2" fill-opacity="0.54"/>
</g>
<defs>
<filter id="filter0_i" x="121" y="11" width="331" height="281" filterUnits="userSpaceOnUse" color-interpolation-filters="sRGB">
<feFlood flood-opacity="0" result="BackgroundImageFix"/>
<feBlend mode="normal" in="SourceGraphic" in2="BackgroundImageFix" result="shape"/>
<feColorMatrix in="SourceAlpha" type="matrix" values="0 0 0 0 0 0 0 0 0 0 0 0 0 0 0 0 0 0 127 0" result="hardAlpha"/>
<feOffset dy="-20"/>
<feGaussianBlur stdDeviation="10"/>
<feComposite in2="hardAlpha" operator="arithmetic" k2="-1" k3="1"/>
<feColorMatrix type="matrix" values="0 0 0 0 0.870588 0 0 0 0 0.890196 0 0 0 0 0.905882 0 0 0 1 0"/>
<feBlend mode="normal" in2="shape" result="effect1_innerShadow"/>
</filter>
<filter id="filter1_f" x="103" y="33" width="364.8" height="308.8" filterUnits="userSpaceOnUse" color-interpolation-filters="sRGB">
<feFlood flood-opacity="0" result="BackgroundImageFix"/>
<feBlend mode="normal" in="SourceGraphic" in2="BackgroundImageFix" result="shape"/>
<feGaussianBlur stdDeviation="25" result="effect1_foregroundBlur"/>
</filter>
<filter id="filter2_f" x="190" y="0" width="302" height="300" filterUnits="userSpaceOnUse" color-interpolation-filters="sRGB">
<feFlood flood-opacity="0" result="BackgroundImageFix"/>
<feBlend mode="normal" in="SourceGraphic" in2="BackgroundImageFix" result="shape"/>
<feGaussianBlur stdDeviation="20" result="effect1_foregroundBlur"/>
</filter>
<filter id="filter3_f" x="0" y="159" width="602" height="263" filterUnits="userSpaceOnUse" color-interpolation-filters="sRGB">
<feFlood flood-opacity="0" result="BackgroundImageFix"/>
<feBlend mode="normal" in="SourceGraphic" in2="BackgroundImageFix" result="shape"/>
<feGaussianBlur stdDeviation="20" result="effect1_foregroundBlur"/>
</filter>
<linearGradient id="paint0_linear" x1="341" y1="40" x2="341" y2="260" gradientUnits="userSpaceOnUse">
<stop stop-color="#DEE3E7"/>
<stop offset="1" stop-color="white" stop-opacity="0"/>
</linearGradient>
</defs>
</svg>
