<svg width="36" height="36" viewBox="0 0 36 36" fill="none" xmlns="http://www.w3.org/2000/svg">
<path d="M33.31 7.35L25 9.94V14H23V10.29L14 5.68V9H12V5.27L2.33001 9.27C2.23414 9.30904 2.1518 9.3753 2.09316 9.4606C2.03451 9.5459 2.00213 9.6465 2.00001 9.75V30.45C1.99945 30.5381 2.02086 30.625 2.06231 30.7027C2.10375 30.7805 2.16393 30.8466 2.23739 30.8953C2.31085 30.9439 2.39528 30.9735 2.48304 30.9813C2.5708 30.9891 2.65912 30.9749 2.74001 30.94L12 27.12V23H14V27.53L23 32.14V28H25V31.79L33.63 29.09C33.7381 29.0558 33.8324 28.9877 33.899 28.8959C33.9656 28.8041 34.001 28.6934 34 28.58V7.86C34.0008 7.77629 33.9817 7.6936 33.9443 7.6187C33.9069 7.54379 33.8524 7.4788 33.7851 7.42905C33.7177 7.37929 33.6396 7.34619 33.557 7.33245C33.4745 7.31871 33.3898 7.32472 33.31 7.35V7.35ZM14 21H12V17H14V21ZM14 15H12V11H14V15ZM25 26H23V22H25V26ZM25 20H23V16H25V20Z" fill="#333866"/>
</svg>
