<svg width="32" height="32" viewBox="0 0 32 32" fill="none" xmlns="http://www.w3.org/2000/svg">
<path d="M16 2C13.0837 2.00344 10.2878 3.16347 8.22564 5.22563C6.16348 7.28778 5.00345 10.0837 5.00001 13C4.99652 15.3832 5.77499 17.7018 7.21601 19.6C7.21601 19.6 7.51601 19.995 7.56501 20.052L16 30L24.439 20.047C24.483 19.994 24.784 19.6 24.784 19.6L24.785 19.597C26.2253 17.6996 27.0034 15.3821 27 13C26.9966 10.0837 25.8365 7.28778 23.7744 5.22563C21.7122 3.16347 18.9163 2.00344 16 2V2ZM19.6 18L16 15.709L12.4 18L13 13.926L10 11.173L14.2 10.666L16 7L17.912 10.667L22 11.173L19 13.926L19.6 18Z" fill="#333866"/>
</svg>
