<svg width="27" height="24" viewBox="0 0 27 24" fill="none" xmlns="http://www.w3.org/2000/svg">
<path fill-rule="evenodd" clip-rule="evenodd" d="M5.09486 11C5.09486 7.1818 8.36868 4 12.5167 4C16.6647 4 19.9385 7.1818 19.9385 11C19.9385 12.8636 19.1586 14.5757 17.8777 15.8401C17.8289 15.8756 17.7826 15.916 17.7396 15.9613C17.7205 15.9813 17.7025 16.002 17.6854 16.0231C16.3565 17.2425 14.5406 18 12.5167 18C8.36868 18 5.09486 14.8182 5.09486 11ZM18.4359 18.0019C16.8115 19.2544 14.7472 20 12.5167 20C7.3622 20 3.09486 16.0184 3.09486 11C3.09486 5.98164 7.3622 2 12.5167 2C17.6712 2 21.9385 5.98164 21.9385 11C21.9385 13.1354 21.1658 15.0831 19.881 16.6162L23.7327 20.275C24.1331 20.6553 24.1494 21.2883 23.769 21.6887C23.3886 22.0891 22.7557 22.1054 22.3552 21.725L18.4359 18.0019Z" fill="#333866"/>
</svg>
